<svg xmlns="http://www.w3.org/2000/svg" viewBox="0 0 48 48"><path d="M24 .5C11.04.5.5 11.04.5 24S11.04 47.5 24 47.5 47.5 36.96 47.5 24 36.96.5 24 .5zm0 44C12.7 44.5 3.5 35.3 3.5 24S12.7 3.5 24 3.5 44.5 12.7 44.5 24 35.3 44.5 24 44.5z"/><path d="M16.09 25.33c3.56 0 6.61-2.17 7.91-5.25a8.572 8.572 0 0 0 7.91 5.25c4.74 0 8.58-4.75 8.58-9.48H7.51c0 4.74 3.84 9.48 8.58 9.48zM24 29.2c-3.03 0-5.5 2.47-5.5 5.5s2.47 5.5 5.5 5.5 5.5-2.47 5.5-5.5-2.47-5.5-5.5-5.5zm0 8a2.5 2.5 0 0 1 0-5 2.5 2.5 0 0 1 0 5z"/></svg>