<svg xmlns="http://www.w3.org/2000/svg" viewBox="0 0 48 48"><path d="M29.04 18.23c0 1.93 1.57 3.5 3.5 3.5s3.5-1.57 3.5-3.5a5.975 5.975 0 0 1-7 0z"/><circle cx="15.46" cy="18.23" r="3.5"/><path d="M24 .5C11.04.5.5 11.04.5 24S11.04 47.5 24 47.5 47.5 36.96 47.5 24 36.96.5 24 .5zm0 44C12.7 44.5 3.5 35.3 3.5 24S12.7 3.5 24 3.5 44.5 12.7 44.5 24 35.3 44.5 24 44.5z"/><path d="M32.75 30.12A12.301 12.301 0 0 1 24 33.75c-3.31 0-6.42-1.29-8.75-3.63a1.49 1.49 0 0 0-2.12 0 1.49 1.49 0 0 0 0 2.12c2.83 2.83 6.56 4.4 10.54 4.49.67 1.47 2.13 2.49 3.83 2.49 2.33 0 4.23-1.92 4.23-4.28 0-.09-.02-.18-.03-.27a15.16 15.16 0 0 0 3.18-2.43c.59-.59.59-1.54 0-2.12-.59-.59-1.54-.59-2.13 0z"/></svg>