<?xml version="1.0" encoding="utf-8"?>
<!-- Generator: Adobe Illustrator 27.0.0, SVG Export Plug-In . SVG Version: 6.00 Build 0)  -->
<svg version="1.1" id="Layer_1" xmlns="http://www.w3.org/2000/svg" xmlns:xlink="http://www.w3.org/1999/xlink" x="0px" y="0px"
	 viewBox="0 0 612 612" style="enable-background:new 0 0 612 612;" xml:space="preserve">
<style type="text/css">
	.st0{fill:#EAA9B1;}
	.st1{fill:none;}
	.st2{fill:#080402;}
	.st3{fill:#FEFEFE;}
	.st4{fill:#D69DA6;}
	.st5{fill:#C497A2;}
	.st6{fill:#FFFFFF;}
	.st7{fill:#E6E2CF;}
	.st8{fill:#331409;}
</style>
<g>
	<g>
		<g>
			<g>
				<path class="st0" d="M339.38,214.76c0.03,0.03,0.07,0.09,0.1,0.09c0.13-0.01,0.26-0.04,0.39-0.06c-0.03-0.03-0.07-0.09-0.1-0.09
					C339.64,214.71,339.51,214.74,339.38,214.76z"/>
			</g>
			<g>
				<path class="st0" d="M369.8,226.12c0.14,0.11,0.29,0.22,0.43,0.32c0.07-0.45-0.34-0.15-0.46-0.3L369.8,226.12z"/>
			</g>
			<g>
				<path class="st0" d="M369.77,226.15c-0.15-0.15-0.3-0.31-0.45-0.46c0,0,0.03-0.03,0.03-0.03c0.15,0.15,0.3,0.31,0.45,0.46
					C369.8,226.12,369.77,226.15,369.77,226.15z"/>
			</g>
			<g>
				<g>
					<path class="st1" d="M252.43,446.29c0.07,0.03,0.14,0.05,0.22,0.08c-0.06-0.03-0.13-0.05-0.19-0.07
						C252.45,446.3,252.44,446.29,252.43,446.29z"/>
				</g>
				<g>
					<polygon class="st1" points="375.56,447.87 375.57,447.87 375.57,447.87 					"/>
				</g>
				<g>
					<polygon class="st0" points="358.47,513.06 358.45,513.07 358.41,513 					"/>
				</g>
				<g>
					<path class="st0" d="M230.88,505.56c-0.05,0.05-0.1,0.11-0.14,0.16l0,0h0C230.78,505.67,230.83,505.61,230.88,505.56z"/>
				</g>
				<g>
					<path class="st1" d="M299.26,454.03c-3.02-0.16-6.13-0.37-9.36-0.62C293.19,453.66,296.3,453.86,299.26,454.03z"/>
				</g>
				<g>
					<polygon class="st1" points="228.08,438.45 228.08,438.45 228.08,438.45 					"/>
				</g>
				<g>
					<path class="st1" d="M252.43,446.29c-0.33-0.13-0.82,6.41-1.42,6.15C251.48,452.64,251.96,446.1,252.43,446.29
						c0.01,0,0.02,0.01,0.02,0.01C252.45,446.3,252.44,446.29,252.43,446.29z"/>
				</g>
				<g>
					<path class="st2" d="M308.08,463.69c-4.53-2.14-8.94-1.46-13.89,0.88C299.08,460.34,304.74,460.07,308.08,463.69z"/>
				</g>
				<g>
					<path class="st1" d="M231.27,472.9c-0.02-0.03-0.02-0.06-0.04-0.09c0.08,0.16,0.17,0.32,0.26,0.48
						C231.41,473.15,231.33,473.02,231.27,472.9z"/>
				</g>
				<g>
					<path class="st1" d="M409.71,287.29c-0.19,0.89-0.37,1.79-0.55,2.68C409.34,289.08,409.52,288.19,409.71,287.29z"/>
				</g>
				<g>
					<path class="st1" d="M411.1,282.03c-0.59,1.71-1.01,3.48-1.39,5.26C410.09,285.51,410.51,283.74,411.1,282.03z"/>
				</g>
				<g>
					<path class="st1" d="M475.64,335.84c0.38-0.95,0.72-1.92,1.03-2.9C476.36,333.92,476.02,334.89,475.64,335.84z"/>
				</g>
				<g>
					<path class="st1" d="M477.49,329.99c0.36-1.5,0.64-3.02,0.84-4.56C478.13,326.97,477.85,328.49,477.49,329.99z"/>
				</g>
				<g>
					<path class="st1" d="M472.16,342.8c0.82-1.35,1.57-2.72,2.24-4.12C473.73,340.07,472.99,341.45,472.16,342.8z"/>
				</g>
				<g>
					<path class="st1" d="M444.27,362.72c1.19-0.03,2.39-0.14,3.58-0.32C446.66,362.58,445.47,362.68,444.27,362.72z"/>
				</g>
				<g>
					<path class="st1" d="M476.67,332.95c0.31-0.98,0.58-1.96,0.82-2.96C477.25,330.98,476.98,331.97,476.67,332.95z"/>
				</g>
				<g>
					<path class="st1" d="M474.4,338.67c0.45-0.93,0.86-1.88,1.24-2.83C475.26,336.8,474.85,337.74,474.4,338.67z"/>
				</g>
				<g>
					<path class="st1" d="M444.27,362.72c-1.19,0.03-2.38-0.01-3.56-0.12C441.89,362.71,443.08,362.75,444.27,362.72z"/>
				</g>
				<g>
					<path class="st1" d="M441.52,346.16c-0.42-0.12-0.86-0.16-1.34,0.09c0,0,0,0,0,0C440.66,346,441.1,346.03,441.52,346.16z"/>
				</g>
				<g>
					<path class="st1" d="M413.66,343.03c0.56,1.18,1.18,2.31,1.85,3.4C414.84,345.34,414.22,344.21,413.66,343.03z"/>
				</g>
				<g>
					<path class="st1" d="M408.37,294.97c-0.18-0.41-0.25-0.8-0.22-1.19C408.13,294.17,408.2,294.57,408.37,294.97L408.37,294.97z"
						/>
				</g>
				<g>
					<path class="st1" d="M407.28,302.71c-0.15,2.61-0.23,5.21-0.23,7.8C407.05,307.92,407.13,305.32,407.28,302.71
						c0.01-0.18,0.01-0.37,0.01-0.55C407.3,302.35,407.29,302.53,407.28,302.71z"/>
				</g>
				<g>
					<path class="st1" d="M417.67,349.56c0.77,1,1.59,1.94,2.44,2.84C419.26,351.5,418.44,350.56,417.67,349.56z"/>
				</g>
				<g>
					<path class="st1" d="M415.51,346.43c0.67,1.09,1.39,2.13,2.16,3.13C416.9,348.57,416.18,347.52,415.51,346.43z"/>
				</g>
				<g>
					<path class="st1" d="M422.81,354.93c1.4,1.19,2.89,2.25,4.44,3.18C425.7,357.18,424.21,356.12,422.81,354.93z"/>
				</g>
				<g>
					<path class="st1" d="M428.82,359.01c1.06,0.56,2.15,1.07,3.26,1.51C430.97,360.07,429.88,359.57,428.82,359.01z"/>
				</g>
				<g>
					<path class="st1" d="M431.84,341.27c-2.09-1.3-3.92-3.11-5.89-4.64c-0.26-0.28-0.53-0.56-0.79-0.84
						c0.26,0.28,0.53,0.56,0.79,0.84C427.92,338.16,429.75,339.97,431.84,341.27z"/>
				</g>
				<g>
					<path class="st3" d="M415.43,332.98c-0.13-0.64-0.44-1.17-1.17-1.22c-0.62-0.04-1.02,0.29-0.92,0.94
						c0.12,0.75,0.58,1.24,1.27,1.42C415.37,334.02,415.55,333.57,415.43,332.98z"/>
				</g>
				<g>
					<path class="st3" d="M419.57,343.44c-0.84,0.18-1.18,0.91-1.4,1.6c0.22,0.65,0.3,1.55,1.01,1.35c0.81-0.23,1.28-1.11,1.34-2
						C420.55,343.87,420.2,343.3,419.57,343.44z"/>
				</g>
				<g>
					<path class="st3" d="M423.04,350.1c-0.81-0.07-1.1,0.66-1.26,1.35c0.12,1.06,0.62,1.86,1.64,2.06
						c0.79,0.16,1.38-0.44,1.32-1.19C424.68,351.28,424.3,350.21,423.04,350.1z"/>
				</g>
				<g>
					<path class="st4" d="M441.52,346.16c0.13,0.04,0.27,0.08,0.4,0.14C441.79,346.24,441.66,346.2,441.52,346.16z"/>
				</g>
				<g>
					<polygon class="st0" points="440.19,346.25 440.19,346.25 440.19,346.25 440.19,346.25 					"/>
				</g>
				<g>
					<polygon class="st0" points="440.19,346.25 440.19,346.25 440.18,346.25 440.19,346.25 440.19,346.25 					"/>
				</g>
				<g>
					<path class="st0" d="M440.04,345.78c0.07,0.11,0.12,0.26,0.15,0.47l0,0C440.16,346.04,440.11,345.89,440.04,345.78z"/>
				</g>
				<g>
					<path class="st0" d="M440.19,346.25C440.19,346.25,440.19,346.25,440.19,346.25c0,0,0,0.01,0,0.01c0,0,0,0,0,0
						C440.19,346.26,440.19,346.25,440.19,346.25z"/>
				</g>
				<g>
					<path class="st0" d="M440.19,346.25c0,0,0,0.01,0,0.01C440.19,346.26,440.18,346.25,440.19,346.25
						C440.19,346.25,440.19,346.25,440.19,346.25z"/>
				</g>
				<g>
					<path class="st0" d="M440.19,346.26C440.19,346.26,440.19,346.26,440.19,346.26C440.19,346.26,440.19,346.26,440.19,346.26
						C440.19,346.26,440.19,346.26,440.19,346.26c0,0,0-0.01,0-0.01L440.19,346.26z"/>
				</g>
				<g>
					<path class="st1" d="M327.94,551.49c0.12-1.55,0.32-3.09,0.56-4.62C328.26,548.4,328.07,549.94,327.94,551.49
						c-0.02,0.28-0.03,0.56-0.03,0.83C327.91,552.04,327.92,551.77,327.94,551.49z"/>
				</g>
				<g>
					<path class="st1" d="M329.29,542.29c0.57-3.05,1.17-6.09,1.54-9.16c0.37-3.01,0.75-6.02,1.13-9.04
						c-0.38,3.01-0.76,6.02-1.13,9.04C330.46,536.2,329.86,539.24,329.29,542.29z"/>
				</g>
				<g>
					<path class="st1" d="M334.64,558.27c-0.87-0.39-1.63-0.84-2.26-1.33C333.01,557.43,333.76,557.87,334.64,558.27
						c0.34,0.15,0.61,0.32,0.57,0.74c0,0,0,0,0,0C335.25,558.58,334.98,558.42,334.64,558.27z"/>
				</g>
				<g>
					<path class="st1" d="M330.1,554.05c-0.19-0.44-0.33-0.9-0.43-1.38C329.76,553.15,329.91,553.62,330.1,554.05z"/>
				</g>
				<g>
					<path class="st1" d="M329.66,552.67c-0.15-0.72-0.21-1.5-0.18-2.32C329.45,551.18,329.51,551.95,329.66,552.67z"/>
				</g>
				<g>
					<path class="st0" d="M328.5,546.87c0.24-1.53,0.51-3.06,0.8-4.58c0.57-3.05,1.17-6.09,1.54-9.16c0.37-3.01,0.75-6.02,1.13-9.04
						c0.53,1.44,0.62,2.83,0.51,4.2c-0.13,1.63-0.27,3.27-0.44,4.9s-0.36,3.26-0.58,4.88s-0.46,3.24-0.74,4.86s-0.57,3.22-0.91,4.83
						c-0.19,0.92-0.3,1.79-0.33,2.61s0.03,1.59,0.18,2.32c0.1,0.48,0.24,0.94,0.43,1.38c0.09,0.22,0.2,0.43,0.31,0.64
						c0.35,0.63,0.8,1.2,1.36,1.73c0.19,0.18,0.39,0.35,0.6,0.51c0.64,0.49,1.39,0.94,2.26,1.33c0.34,0.15,0.61,0.32,0.57,0.74
						c-1.82-0.03-3.35-0.47-4.53-1.23c-0.98-0.64-1.73-1.51-2.2-2.57c-0.37-0.85-0.57-1.82-0.58-2.9c0-0.27,0.01-0.54,0.03-0.83
						C328.07,549.94,328.26,548.4,328.5,546.87z"/>
				</g>
				<g>
					<path class="st1" d="M226.65,417.23c1.55,1.23,3.15,2.38,4.78,3.49C229.8,419.62,228.2,418.46,226.65,417.23z"/>
				</g>
				<g>
					<path class="st1" d="M212.18,359.79c0.88,2.2,1.62,3.96,2.29,5.76c0.17,0.47,0.11,1.03,0.15,1.55
						c1.04,1.49,1.19,3.27,1.64,4.96c-0.44-1.69-0.6-3.47-1.64-4.96c-0.91,0.27-1.05,1.11-1.3,1.83
						c-3.69,10.64-3.66,21.19,0.78,31.63c0.38,0.89,0.76,1.84,0.4,2.86c-0.45-1.52-1.63-2.61-2.29-3.99
						C206,386.36,206.53,373.3,212.18,359.79z"/>
				</g>
				<g>
					<path class="st1" d="M251.91,432.01c2.29,0.99,4.61,1.89,6.95,2.69C256.51,433.89,254.2,433,251.91,432.01z"/>
				</g>
				<g>
					<path class="st1" d="M222.16,413.33c0.96,0.92,1.95,1.8,2.96,2.65C224.1,415.14,223.12,414.25,222.16,413.33z"/>
				</g>
				<g>
					<path class="st1" d="M215.91,406.34c0.39,0.59,0.83,1.16,1.29,1.71C216.74,407.5,216.31,406.93,215.91,406.34z"/>
				</g>
				<g>
					<path class="st1" d="M250.19,391.11c-1.79-1.01-3.57-2.03-5.34-3.08C246.62,389.08,248.4,390.1,250.19,391.11z"/>
				</g>
				<g>
					<path class="st1" d="M337.39,442.3c3.06,0.11,6.12,0.24,9.18,0.37C343.51,442.54,340.45,442.41,337.39,442.3z"/>
				</g>
				<g>
					<path class="st1" d="M229.38,377.46c1.44,1.17,2.9,2.27,4.38,3.34C232.29,379.73,230.83,378.62,229.38,377.46L229.38,377.46z"
						/>
				</g>
				<g>
					<path class="st1" d="M239.77,394.36c0.83,0.68,1.69,1.33,2.58,1.96C241.46,395.69,240.6,395.04,239.77,394.36z"/>
				</g>
				<g>
					<path class="st1" d="M258.86,434.7c1.56,0.54,3.14,1.03,4.72,1.49C262,435.73,260.42,435.23,258.86,434.7z"/>
				</g>
				<g>
					<path class="st1" d="M311.29,441.6c3.76,0.13,7.52,0.23,11.28,0.31C318.81,441.82,315.05,441.72,311.29,441.6z"/>
				</g>
				<g>
					<path class="st1" d="M300.02,441.11c3.75,0.2,7.51,0.36,11.27,0.48C307.53,441.47,303.77,441.31,300.02,441.11z"/>
				</g>
				<g>
					<path class="st1" d="M243.68,397.25c0.62,0.42,1.26,0.83,1.89,1.24C244.93,398.08,244.3,397.67,243.68,397.25z"/>
				</g>
				<g>
					<path class="st1" d="M294.39,440.78c-3.75-0.25-7.5-0.55-11.25-0.92c-6.69-0.66-13.22-1.85-19.56-3.68
						c6.34,1.82,12.87,3.02,19.56,3.68C286.89,440.23,290.64,440.53,294.39,440.78z"/>
				</g>
				<g>
					<path class="st1" d="M234.75,422.87c1.12,0.69,2.26,1.37,3.4,2.03C237.01,424.24,235.87,423.56,234.75,422.87z"/>
				</g>
				<g>
					<path class="st1" d="M374.74,440.98c10.52-3.67,18.87-15.09,18.52-25.19c4.63-0.18,4.63-0.18,3.63,4.23
						c-3.21,14.18-13.57,22.7-28.59,23.49l-1.38-0.01c-0.15-0.06-0.3-0.1-0.45-0.13c-0.39,0.03-0.78,0.1-1.16,0.12
						c0.39-0.02,0.77-0.09,1.16-0.12C369.23,442.58,372.03,441.93,374.74,440.98z"/>
				</g>
				<g>
					<path class="st1" d="M337.39,442.3c-3.06-0.11-6.12-0.2-9.18-0.27c-1.88-0.04-3.76-0.08-5.64-0.12
						c1.88,0.04,3.76,0.08,5.64,0.12C331.27,442.1,334.33,442.19,337.39,442.3z"/>
				</g>
				<g>
					<path class="st0" d="M214.49,403.42c0.33,1.07,0.83,2.03,1.42,2.92c0.39,0.59,0.83,1.16,1.29,1.71
						c0.69,0.82,1.43,1.61,2.15,2.41c0.9,1,1.84,1.96,2.8,2.88c0.96,0.92,1.95,1.8,2.96,2.65c0.51,0.42,1.02,0.84,1.53,1.25
						c1.55,1.23,3.15,2.38,4.78,3.49c1.09,0.74,2.2,1.45,3.32,2.15c1.12,0.69,2.26,1.37,3.4,2.03c2.29,1.32,4.62,2.59,6.97,3.84
						c2.23,1.19,4.5,2.28,6.79,3.27c2.29,0.99,4.61,1.89,6.95,2.69c1.56,0.54,3.14,1.03,4.72,1.49c6.34,1.82,12.87,3.02,19.56,3.68
						c3.75,0.37,7.5,0.67,11.25,0.92c1.88,0.12,3.75,0.24,5.63,0.34c3.75,0.2,7.51,0.36,11.27,0.48c3.76,0.13,7.52,0.23,11.28,0.31
						c1.88,0.04,3.76,0.08,5.64,0.12c3.06,0.06,6.12,0.16,9.18,0.27c3.06,0.11,6.12,0.24,9.18,0.37c6.12,0.27,12.24,0.57,18.35,0.82
						c0.13,0.01,0.26,0,0.39,0c0.39-0.02,0.77-0.09,1.16-0.12c2.76-0.79,5.56-1.45,8.27-2.39c10.52-3.67,18.87-15.09,18.52-25.19
						c-6.23-0.84-12.43-1.87-18.65-2.84c-3.11-0.49-6.21-0.96-9.33-1.38c-2.08-0.28-4.16-0.55-6.24-0.78
						c-1.04-0.12-2.08-0.23-3.13-0.33c-2.09-0.2-4.18-0.37-6.28-0.49c-2.1-0.12-4.2-0.2-6.32-0.23
						c-14.07-0.18-28.16-0.73-42.15-2.51c-17.94-2.29-35.1-7.18-50.98-16.1c-1.79-1.01-3.57-2.03-5.34-3.08
						c-2.65-1.57-5.27-3.21-7.86-4.96c-1.09-0.74-2.16-1.5-3.24-2.28c-1.47-1.07-2.93-2.18-4.38-3.34c0.01,1.36,0.24,2.56,0.61,3.68
						c0.09,0.28,0.19,0.56,0.3,0.83c0.32,0.82,0.7,1.6,1.1,2.38c0.79,1.54,1.7,2.94,2.7,4.25c0.33,0.43,0.68,0.86,1.03,1.27
						c0.71,0.83,1.45,1.61,2.23,2.35c0.78,0.75,1.58,1.46,2.42,2.14c0.83,0.68,1.69,1.33,2.58,1.96c0.44,0.31,0.89,0.62,1.33,0.93
						c0.62,0.42,1.26,0.83,1.89,1.24c0.74,0.47,1.49,0.93,2.24,1.39c0.94,0.56,1.88,1.12,2.82,1.67c4.06,2.37,8.31,4.43,12.67,6.29
						c-7.16-1.11-14.08-2.79-20.61-6.08c-3.13-1.58-6.05-3.33-8.74-5.29c-1.35-0.98-2.64-2.01-3.87-3.09
						c-1.84-1.62-3.56-3.37-5.12-5.24c-3.66-4.37-6.53-9.45-8.51-15.36c-0.08-0.24-0.15-0.48-0.21-0.72
						c-0.44-1.69-0.6-3.47-1.64-4.96c-0.91,0.27-1.05,1.11-1.3,1.83c-3.69,10.64-3.66,21.19,0.78,31.63
						C214.47,401.45,214.85,402.4,214.49,403.42z"/>
				</g>
				<g>
					<path class="st1" d="M343.8,381.35c1.03-0.06,2.05-0.11,3.08-0.16c3.53-0.17,7.04-0.27,10.56-0.28
						c-3.51,0.01-7.03,0.1-10.56,0.28C345.85,381.24,344.82,381.29,343.8,381.35z"/>
				</g>
				<g>
					<path class="st1" d="M278.36,295.18c-0.18,0.76-0.33,1.52-0.47,2.29C278.03,296.7,278.19,295.94,278.36,295.18z"/>
				</g>
				<g>
					<path class="st1" d="M325.3,382.09c1.03,0.01,2.06,0,3.09-0.02C327.36,382.09,326.33,382.1,325.3,382.09z"/>
				</g>
				<g>
					<path class="st1" d="M365.52,342.18c0.38-0.49,0.75-0.99,1.1-1.51C366.27,341.19,365.9,341.69,365.52,342.18z"/>
				</g>
				<g>
					<path class="st1" d="M279.38,291.63c-0.18,0.52-0.35,1.04-0.5,1.57C279.04,292.67,279.2,292.15,279.38,291.63z"/>
				</g>
				<g>
					<path class="st1" d="M420.24,402.03c3.35-1.9,5.2-5.26,7.56-8.05c3-3.55,4.46-8.07,6.08-12.41c0.25,0.17,0.45,0.14,0.59-0.16
						c-0.11-0.13-0.21-0.2-0.29-0.2c0.08,0.01,0.18,0.07,0.29,0.2c1.42-0.8,1.62-0.64,1.05,0.99c-2.99,8.53-7.44,15.97-15.14,21.1
						c-1.11,0.97-2.32,1.77-3.58,2.44c1.27-0.67,2.47-1.46,3.58-2.43C418.01,403.23,419.51,402.44,420.24,402.03z"/>
				</g>
				<g>
					<path class="st1" d="M405.39,360.93c2.22,0.49,4.43,1.08,6.63,1.75C409.82,362,407.61,361.41,405.39,360.93z"/>
				</g>
				<g>
					<path class="st1" d="M366.65,340.64c0.61-0.9,1.18-1.83,1.68-2.81C367.83,338.8,367.26,339.74,366.65,340.64z"/>
				</g>
				<g>
					<path class="st1" d="M429.22,369.28c-3.13-1.42-6.38-2.58-9.57-3.88c-1.27-0.52-2.55-1-3.83-1.45
						c1.28,0.46,2.56,0.93,3.83,1.45C422.84,366.7,426.08,367.86,429.22,369.28z"/>
				</g>
				<g>
					<path class="st1" d="M422.12,252.99c-6.02-6.32-13.25-11.15-21.05-15.03c-16.7-8.31-34.6-12.14-53.05-13.73
						c-1.01-0.09-16.26,3.16-20.89,7.29c0.67-2.69,2.3-4.16,4.45-5.02c2.09-0.84,4.27-1.44,6.41-2.14c-1-0.57-2.07-0.28-3.08-0.15
						c-7.08,0.9-14.2,1.45-21.12,3.47c-8.76,2.56-17.32,5.68-25.47,9.72c-10.15,5.04-19.15,11.81-27.29,19.72
						c-5.14,5-9.61,10.58-14.23,16.05c-4.99,5.9-9.47,12-12.51,19.12c-0.26,0.55-0.52,1.1-0.78,1.65c0,0,0,0,0,0
						c-3.32,6.7-5.08,13.72-4.32,21.25c-0.71-1.02-1.07-2.18-1.44-3.34c-2.84-8.83-0.3-16.71,4.18-24.29
						c11.68-19.78,26.54-36.57,46.05-48.96c8.04-5.11,16.33-9.7,25.44-12.76c26.21-8.81,52.36-7.59,78.57-0.01
						c17.66,5.11,33.33,13.61,46.25,26.85c2.36,2.42,4.62,4.95,6.24,8.2c-1.52,0.12-2.8,0.21-4.08,0.31c-0.42-0.19-0.76-0.13-1,0.29
						c0.2,0.08,0.39,0.09,0.55,0.05c-0.17,0.05-0.35,0.03-0.56-0.05l-0.19-0.03l-0.19,0.02c-0.44,0.17-0.87,0.38-1.32,0.52
						c0.45-0.14,0.88-0.35,1.32-0.52C427.38,258.1,424.6,255.59,422.12,252.99z"/>
				</g>
				<g>
					<path class="st1" d="M279.22,360.18c0.08,0.08,0.16,0.15,0.22,0.23c1.14,1.37,2.33,2.66,3.58,3.89
						c-1.25-1.23-2.45-2.52-3.58-3.89C279.37,360.34,279.3,360.26,279.22,360.18z"/>
				</g>
				<g>
					<path class="st1" d="M220.98,320.33c-3.8,10.55-5.27,21.2-1.36,32.08c0.29,0.79,1.13,1.63,0.27,2.58
						c-8.06-13.36-6.01-31.97,0.38-42.44c0.05,2.52,1.62,4.4,1.78,6.71c1.87,2.11,3.12,4.64,4.81,6.9
						c-1.69-2.25-2.94-4.79-4.81-6.89C221.48,319.4,221.15,319.85,220.98,320.33z"/>
				</g>
				<g>
					<path class="st1" d="M393.82,410.27c0.68,0.01,1.36,0,2.04-0.01C395.18,410.27,394.5,410.27,393.82,410.27z"/>
				</g>
				<g>
					<path class="st1" d="M219.88,355.89c-0.06-0.27-0.06-0.57,0.01-0.9C219.82,355.32,219.82,355.61,219.88,355.89z"/>
				</g>
				<g>
					<path class="st1" d="M401.91,305.49c-0.13,2.16-0.2,4.32-0.19,6.48C401.71,309.81,401.78,307.65,401.91,305.49z"/>
				</g>
				<g>
					<path class="st1" d="M285.34,363.95c-1.68-1.43-3.27-2.97-4.8-4.6c-0.07-0.07-0.14-0.16-0.21-0.25
						c0.07,0.09,0.14,0.17,0.21,0.25C282.07,360.98,283.66,362.52,285.34,363.95z"/>
				</g>
				<g>
					<path class="st1" d="M401.72,312.03c0.02,7.56,0.85,15.15,2.43,22.78c0.37,1.78,0.83,3.51,1.38,5.19
						c-0.55-1.68-1.01-3.41-1.38-5.19C402.57,327.17,401.73,319.58,401.72,312.03z"/>
				</g>
				<g>
					<path class="st1" d="M436.28,373.12c-0.55-0.26-1.07-0.6-1.58-0.93c-1.17-0.75-2.38-1.41-3.61-2.03
						c1.23,0.61,2.44,1.28,3.61,2.03C435.21,372.51,435.73,372.85,436.28,373.12z"/>
				</g>
				<g>
					<path class="st1" d="M437.33,373.98c-0.27-0.28-0.55-0.55-0.83-0.74C436.79,373.43,437.06,373.7,437.33,373.98z"/>
				</g>
				<g>
					<path class="st1" d="M437.94,374.6c-0.13-0.13-0.27-0.26-0.4-0.4C437.67,374.34,437.8,374.47,437.94,374.6z"/>
				</g>
				<g>
					<path class="st1" d="M402.16,302.25c0.4-4.31,1.09-8.61,2.06-12.9C403.24,293.64,402.56,297.94,402.16,302.25z"/>
				</g>
				<g>
					<path class="st1" d="M281.88,303.51c0.94,3.98,1.83,7.98,3.44,11.73C283.71,311.49,282.83,307.49,281.88,303.51
						c0.11-0.99,0.13-1.97-0.27-2.92C282.01,301.54,281.99,302.52,281.88,303.51z"/>
				</g>
				<g>
					<path class="st1" d="M392.37,383.53c-2.32-0.36-4.64-0.68-6.96-0.96C387.74,382.86,390.06,383.18,392.37,383.53z"/>
				</g>
				<g>
					<path class="st1" d="M320.28,381.93c-1.14-0.07-2.28-0.18-3.4-0.31C318,381.76,319.14,381.86,320.28,381.93z"/>
				</g>
				<g>
					<path class="st1" d="M282.58,285.26c-1.38,2-2.42,4.14-3.2,6.36C280.17,289.4,281.2,287.26,282.58,285.26
						c3.34-10.72,9.85-18.61,18.67-24.42C292.43,266.65,285.92,274.53,282.58,285.26z"/>
				</g>
				<g>
					<path class="st1" d="M266.28,379.59c0.03,0.57,0.22,1.06,0.62,1.41C266.51,380.64,266.31,380.16,266.28,379.59z"/>
				</g>
				<g>
					<path class="st1" d="M292.62,327.08c3.05,3.12,6.2,6.15,9.78,8.58C298.81,333.23,295.66,330.2,292.62,327.08
						c-0.79-1.04-1.58-2.09-2.37-3.13C291.04,324.99,291.83,326.04,292.62,327.08z"/>
				</g>
				<g>
					<path class="st1" d="M231.01,370.26c1.4,1.36,2.86,2.66,4.37,3.91C233.87,372.92,232.41,371.62,231.01,370.26z"/>
				</g>
				<g>
					<path class="st1" d="M235.38,374.17c1.01,0.83,2.04,1.64,3.09,2.42C237.42,375.81,236.39,375,235.38,374.17z"/>
				</g>
				<g>
					<path class="st1" d="M381.93,382.17c-2.32-0.25-4.65-0.46-6.98-0.63C377.28,381.71,379.61,381.92,381.93,382.17z"/>
				</g>
				<g>
					<path class="st1" d="M225.74,364.49c1.24,1.53,2.54,2.99,3.9,4.39C228.27,367.48,226.97,366.02,225.74,364.49z"/>
				</g>
				<g>
					<path class="st1" d="M220.2,356.65c0.14,0.24,0.31,0.47,0.48,0.69C220.51,357.12,220.34,356.89,220.2,356.65z"/>
				</g>
				<g>
					<path class="st1" d="M302.2,372.92c1.73,0.5,3.48,0.9,5.25,1.23C305.68,373.82,303.93,373.41,302.2,372.92z"/>
				</g>
				<g>
					<path class="st1" d="M280.11,358.83c0.07,0.09,0.15,0.19,0.22,0.28C280.26,359.02,280.18,358.93,280.11,358.83z"/>
				</g>
				<g>
					<path class="st1" d="M408.19,346.42c-1.04-2.04-1.93-4.19-2.66-6.43C406.27,342.23,407.16,344.38,408.19,346.42z"/>
				</g>
				<g>
					<path class="st1" d="M308.31,379.89c-2.23-0.65-4.42-1.45-6.56-2.43C303.9,378.43,306.08,379.24,308.31,379.89z"/>
				</g>
				<g>
					<path class="st1" d="M411.72,352.21c-0.98-1.36-1.9-2.79-2.73-4.28C409.83,349.42,410.74,350.85,411.72,352.21z"/>
				</g>
				<g>
					<path class="st1" d="M374.95,381.54c-4.66-0.35-9.33-0.55-14.01-0.61C365.63,380.98,370.29,381.19,374.95,381.54z"/>
				</g>
				<g>
					<polygon class="st1" points="433.86,381.56 433.86,381.56 433.86,381.56 					"/>
				</g>
				<g>
					<path class="st1" d="M289.02,324.42c0.18-0.38,0.44-0.7,0.91-0.89l0,0C289.46,323.71,289.2,324.04,289.02,324.42z"/>
				</g>
				<g>
					<path class="st1" d="M350.01,344.3C350.01,344.3,350.01,344.3,350.01,344.3c7.63-2.43,14.84-5.59,20.29-11.77
						c0.47-0.32,0.78-0.73,1-1.19c-0.22,0.46-0.52,0.87-1,1.19c0,0,0,0,0,0C364.84,338.72,357.63,341.87,350.01,344.3z"/>
				</g>
				<g>
					<path class="st1" d="M316.88,381.62c-1.75-0.21-3.48-0.5-5.19-0.88C313.4,381.12,315.13,381.41,316.88,381.62z"/>
				</g>
				<g>
					<path class="st0" d="M395.86,410.26c0.68-0.01,1.36-0.03,2.04-0.06c1.36-0.06,2.71-0.16,4.07-0.31
						c1.36-0.15,2.71-0.34,4.06-0.58c1.35-0.24,2.7-0.54,4.05-0.9c2.32-0.61,4.6-1.36,6.71-2.47c1.27-0.67,2.47-1.46,3.58-2.43
						c5.93-2.43,6.08-4.5,8.44-7.29c3-3.55,9.53-16.08,12.64-21.22c0.98-1.62,1.46-3.24,2.04-5.15
						c25.65-85.19-32.4-125.83-42.43-131.89c-15.97-9.65-34.6-12.14-53.05-13.73c-1.01-0.09-16.26,3.16-20.89,7.29
						c0.67-2.69,2.3-4.16,4.45-5.02c2.09-0.84,4.27-1.44,6.41-2.14c-1-0.57-2.07-0.28-3.08-0.15c-7.08,0.9-14.2,1.45-21.12,3.47
						c-8.76,2.56-17.32,5.68-25.47,9.72c-10.15,5.04-19.15,11.81-27.29,19.72c-5.14,5-9.61,10.58-14.23,16.05
						c-4.99,5.9-9.47,12-12.51,19.12c0,0-0.78,1.65-0.78,1.65c0,0,0,0,0,0c0,0,0,0,0,0c-3.32,6.7-5.08,13.72-4.32,21.25c0,0,0,0,0,0
						c0.46,2.35,1.78,4.22,3.17,6.02c0.46,0.6,0.94,1.19,1.39,1.79c3.52,4.67,7.44,8.99,12.11,12.58c0.55,0.42,1.08,0.87,1.59,1.34
						c0.51,0.47,0.99,0.97,1.45,1.49c0.92,1.04,1.73,2.18,2.43,3.42c-3.07-1.64-6.26-3.08-9.37-4.61c-1.04-0.51-2.07-1.04-3.09-1.58
						c-1.02-0.55-2.02-1.11-3-1.72c-2.46-1.51-4.78-3.22-6.87-5.33c-0.42-0.42-0.83-0.86-1.22-1.31c-0.32-0.36-0.61-0.74-0.9-1.12
						c-1.69-2.25-2.94-4.79-4.81-6.89c-0.58,0.13-0.9,0.58-1.07,1.06c-3.8,10.55-5.27,21.2-1.36,32.08
						c0.29,0.79,1.13,1.63,0.27,2.58c-0.08,0.33-0.07,0.62-0.01,0.9c0.06,0.27,0.17,0.52,0.31,0.76c0.14,0.24,0.31,0.47,0.48,0.69
						c0.17,0.23,0.34,0.45,0.48,0.68c1.4,2.28,2.94,4.43,4.58,6.47c1.24,1.53,2.54,2.99,3.9,4.39c0.45,0.47,0.91,0.93,1.38,1.38
						c1.4,1.36,2.86,2.66,4.37,3.91c1.01,0.83,2.04,1.64,3.09,2.42c1.58,1.18,3.21,2.3,4.88,3.38c3.95,2.55,7.91,5.05,11.96,7.4
						c2.02,1.17,4.07,2.31,6.14,3.39s4.17,2.11,6.31,3.07c2.85,1.28,5.76,2.44,8.76,3.44c7.09,2.37,14.3,4.05,21.6,5.26
						c1.62,0.27,3.25,0.51,4.88,0.74c2.45,0.34,4.9,0.63,7.37,0.89c1.64,0.17,3.29,0.32,4.94,0.47c5.71,0.49,11.43,0.74,17.16,0.93
						c5.72,0.19,11.45,0.31,17.17,0.52c5.85,0.21,11.65,0.82,17.45,1.53c3.48,0.43,6.95,0.9,10.43,1.34
						c1.36,0.17,2.71,0.34,4.07,0.49c2.04,0.23,4.08,0.43,6.12,0.57c1.36,0.1,2.72,0.17,4.08,0.21c0.68,0.02,1.36,0.04,2.04,0.04
						C394.5,410.27,395.18,410.27,395.86,410.26z M263.89,269.22c-2.95,8.78-5.82,17.48-2.63,27.23c-3.37-2.3-5-7.79-4.42-13.69
						C257.38,277.19,260.77,270.56,263.89,269.22z M280.54,258.7c-6.07,1.11-10,4.19-12.12,9.51
						C268.24,262.13,275.79,255.93,280.54,258.7z M293.7,244.44c-3.07,0.15-5.95,1.4-9.02,1.55
						C287.55,244.64,290.42,243.31,293.7,244.44z M398.81,245.21c-9.4-5.76-14.6-6.63-21.86-3.43c-0.98,0.43-1.8-0.87-0.98-1.54
						c2.66-2.16,5.78-2.68,9.04-2.55c5.74,0.23,10.54,2.38,14.68,6.4C400.32,244.68,399.54,245.65,398.81,245.21z M371.05,252.36
						c-0.63-0.65,0.2-1.66,0.97-1.18c13.72,8.58,20.33,9.16,31.47,3.3c0.46-0.24,0.93,0.31,0.62,0.73
						c-3.8,5.05-8.72,6.16-13.93,5.95C382.63,260.84,376.41,257.89,371.05,252.36z"/>
				</g>
				<g>
					<path class="st0" d="M433.88,381.57c-0.01,0-0.01-0.01-0.02-0.01c0.01-0.01,0.02-0.01,0.03-0.02
						C433.89,381.55,433.89,381.56,433.88,381.57z"/>
				</g>
				<g>
					<path class="st2" d="M261.26,296.45c-3.37-2.3-5-7.79-4.42-13.69c0.54-5.57,3.94-12.2,7.05-13.54
						C260.94,277.99,258.07,286.7,261.26,296.45z"/>
				</g>
				<g>
					<path class="st2" d="M268.42,268.21c-0.18-6.09,7.37-12.28,12.12-9.51C274.47,259.81,270.55,262.89,268.42,268.21z"/>
				</g>
				<g>
					<path class="st2" d="M293.7,244.44c-3.07,0.15-5.95,1.4-9.02,1.55C287.55,244.64,290.42,243.31,293.7,244.44z"/>
				</g>
				<g>
					<path class="st3" d="M371.29,331.34c0.29-0.61,0.44-1.29,0.66-1.93C371.73,330.05,371.58,330.73,371.29,331.34z"/>
				</g>
				<g>
					<path class="st4" d="M364.61,343.31c0.31-0.37,0.61-0.75,0.91-1.13C365.22,342.56,364.92,342.94,364.61,343.31z"/>
				</g>
				<g>
					<path class="st4" d="M279.39,291.62c0,0,0,0.01,0,0.01C279.39,291.63,279.39,291.62,279.39,291.62z"/>
				</g>
				<g>
					<path class="st4" d="M278.88,293.2c-0.19,0.66-0.37,1.32-0.52,1.99C278.52,294.52,278.69,293.85,278.88,293.2z"/>
				</g>
				<g>
					<path class="st4" d="M366.62,340.68c0.01-0.01,0.02-0.03,0.03-0.04C366.64,340.65,366.63,340.66,366.62,340.68z"/>
				</g>
				<g>
					<path class="st1" d="M234.82,560.88c-0.02,0.06-0.03,0.12-0.04,0.19C234.79,561.01,234.8,560.94,234.82,560.88z"/>
				</g>
				<g>
					<path class="st1" d="M242.23,558.73c-0.38,0.02-0.76,0.05-1.14,0.09C241.47,558.78,241.85,558.75,242.23,558.73z"/>
				</g>
				<g>
					<path class="st1" d="M243.37,558.71c-0.19,0-0.38,0-0.57,0C242.99,558.71,243.18,558.71,243.37,558.71z"/>
				</g>
				<g>
					<path class="st1" d="M235.39,561.93c0.04,0.02,0.09,0.04,0.13,0.05C235.48,561.97,235.43,561.95,235.39,561.93z"/>
				</g>
				<g>
					<path class="st1" d="M238.87,559.16c0.36-0.09,0.71-0.17,1.07-0.21c0.38-0.05,0.76-0.09,1.14-0.13
						c-0.38,0.04-0.76,0.08-1.14,0.13C239.58,558.99,239.22,559.07,238.87,559.16z"/>
				</g>
				<g>
					<path class="st1" d="M239.77,561.4c1.94-0.4,3.91-0.65,5.89-0.82C243.68,560.75,241.72,561,239.77,561.4z"/>
				</g>
				<g>
					<path class="st1" d="M236.82,562.14c0.98-0.29,1.96-0.53,2.96-0.74C238.78,561.61,237.8,561.85,236.82,562.14z"/>
				</g>
				<g>
					<path class="st1" d="M235.13,561.79c-0.15-0.11-0.26-0.27-0.32-0.49C234.86,561.53,234.98,561.68,235.13,561.79z"/>
				</g>
				<g>
					<path class="st0" d="M247.32,560.46c-0.55,0.04-1.11,0.08-1.66,0.13c-1.98,0.17-3.95,0.42-5.89,0.82
						c-0.99,0.2-1.98,0.45-2.96,0.74c-0.18,0.05-0.38,0.04-0.58,0.01c-0.07-0.01-0.13-0.02-0.19-0.04
						c-0.06-0.01-0.13-0.03-0.19-0.04c-0.11-0.02-0.22-0.05-0.33-0.09c-0.05-0.02-0.09-0.03-0.13-0.05
						c-0.09-0.04-0.18-0.08-0.26-0.14c-0.15-0.11-0.26-0.27-0.32-0.49c-0.02-0.08-0.03-0.16-0.03-0.23c0-0.07,0.01-0.13,0.04-0.19
						c0.1-0.29,0.42-0.45,0.72-0.57c0.06-0.02,0.12-0.04,0.18-0.06c0.35-0.12,0.7-0.25,1.05-0.38c0.7-0.26,1.4-0.52,2.11-0.71
						c0.36-0.09,0.71-0.17,1.07-0.21c0.38-0.05,0.76-0.09,1.14-0.13c0.38-0.04,0.76-0.07,1.14-0.09c0.19-0.01,0.38-0.02,0.57-0.02
						c0.19,0,0.38,0,0.57,0c0.38,0.01,0.76,0.03,1.13,0.07c0.94,0.1,1.86,0.31,2.76,0.7c0.54,0.23,1.07,0.53,1.59,0.89
						C248.34,560.39,247.83,560.42,247.32,560.46z"/>
				</g>
				<g>
					<path class="st1" d="M284.77,443.82c-1.39-0.1-2.77-0.22-4.15-0.35C282,443.61,283.38,443.72,284.77,443.82z"/>
				</g>
				<g>
					<path class="st1" d="M316.09,445.19c-2.35-0.06-4.7-0.13-7.05-0.2C311.39,445.06,313.74,445.13,316.09,445.19z"/>
				</g>
				<g>
					<path class="st1" d="M222.89,431.3c2.31,3.3,5.05,6.31,8.38,8.93c1.72,1.36,3.72,2.71,5.83,3.99
						c-2.11-1.28-4.11-2.64-5.83-3.99C227.94,437.61,225.2,434.61,222.89,431.3z"/>
				</g>
				<g>
					<path class="st1" d="M243.58,447.74c-0.62-0.3-1.24-0.6-1.86-0.92C242.35,447.13,242.97,447.44,243.58,447.74z"/>
				</g>
				<g>
					<path class="st1" d="M239.86,445.82c-0.93-0.51-1.85-1.04-2.76-1.59C238,444.77,238.93,445.31,239.86,445.82z"/>
				</g>
				<g>
					<path class="st1" d="M221.89,446.56c1.33,2.03,2.82,3.97,4.43,5.83C224.7,450.53,223.22,448.59,221.89,446.56z"/>
				</g>
				<g>
					<path class="st1" d="M326.67,445.49c-3.52-0.11-7.05-0.21-10.57-0.3C319.62,445.28,323.14,445.37,326.67,445.49z"/>
				</g>
				<g>
					<path class="st1" d="M218.36,440.17c1.01,2.23,2.2,4.36,3.53,6.39C220.55,444.53,219.37,442.4,218.36,440.17z"/>
				</g>
				<g>
					<path class="st0" d="M308.9,447.28c0.07-0.62,0.48-0.98,1.2-0.94c0.56,0.04,1.05,0.28,1.06,0.91c0.01,0.68-0.37,1.21-1.06,1.28
						C309.36,448.62,309.08,448.04,308.9,447.28z"/>
				</g>
				<g>
					<path class="st1" d="M339.61,510.5c4.3-1.16,8.55-2.56,12.17-5.33c3.25-2.22,5.58-4.19,7.33-6.04
						c-2.12,2.4-4.65,4.29-7.33,6.04C348.16,507.94,343.91,509.33,339.61,510.5c-0.01,0-0.01,0-0.02,0
						C339.6,510.5,339.61,510.5,339.61,510.5z"/>
				</g>
				<g>
					<path class="st1" d="M356.62,562.23c0.84,0.2,1.68,0.43,2.52,0.65C358.3,562.66,357.46,562.43,356.62,562.23z"/>
				</g>
				<g>
					<path class="st1" d="M341.96,559.95c0.01,0.14,0.02,0.28,0.03,0.43C341.98,560.23,341.97,560.09,341.96,559.95
						c0.72-0.15,1.44-0.34,2.15-0.5C343.39,559.61,342.68,559.8,341.96,559.95z"/>
				</g>
				<g>
					<path class="st1" d="M356.05,562.1c-0.45-0.1-0.9-0.19-1.35-0.25c-1.05-0.15-2.11-0.29-3.17-0.42
						c1.06,0.13,2.12,0.27,3.17,0.42C355.15,561.92,355.6,562.01,356.05,562.1z"/>
				</g>
				<g>
					<path class="st1" d="M363.24,562.56c0.01-0.21-0.05-0.38-0.15-0.53C363.19,562.18,363.25,562.35,363.24,562.56z"/>
				</g>
				<g>
					<path class="st0" d="M344.11,559.45c0.72-0.17,1.44-0.31,2.17-0.39c0.34-0.04,0.67-0.07,1.01-0.1c0.67-0.06,1.34-0.11,2-0.14
						c1-0.05,2-0.06,2.99-0.03c0.33,0.01,0.66,0.03,0.99,0.05c0.99,0.07,1.96,0.19,2.93,0.37c1.94,0.37,3.84,1,5.68,1.99
						c0.16,0.09,0.34,0.17,0.52,0.27c0.09,0.05,0.18,0.1,0.26,0.16c0.17,0.11,0.32,0.24,0.43,0.39c0.11,0.15,0.17,0.33,0.15,0.53
						c-0.01,0.1-0.03,0.21-0.08,0.33c-0.04,0.11-0.1,0.21-0.16,0.29c-0.31,0.39-0.84,0.4-1.35,0.31c-0.2-0.03-0.41-0.08-0.59-0.12
						c-0.65-0.14-1.29-0.31-1.93-0.48c-0.84-0.23-1.68-0.45-2.52-0.65c-0.19-0.05-0.38-0.09-0.57-0.13c-0.45-0.1-0.9-0.19-1.35-0.25
						c-1.05-0.15-2.11-0.29-3.17-0.42c-3.17-0.39-6.36-0.7-9.54-1.06c-0.01-0.14-0.02-0.28-0.03-0.43
						C342.68,559.8,343.39,559.61,344.11,559.45z"/>
				</g>
				<g>
					<path class="st1" d="M260.23,548.45c-0.83,2.08-1.84,4.11-3.08,6.07C258.39,552.55,259.4,550.53,260.23,548.45z"/>
				</g>
				<g>
					<path class="st1" d="M257.41,557.55c-0.19,0.2-0.4,0.38-0.61,0.55C257.01,557.93,257.21,557.75,257.41,557.55z"/>
				</g>
				<g>
					<path class="st1" d="M254.48,559.07c-0.25,0.02-0.51,0.02-0.78,0c1.32-1.47,2.46-2.99,3.45-4.55
						c-0.99,1.57-2.13,3.09-3.45,4.55C253.97,559.09,254.23,559.09,254.48,559.07z"/>
				</g>
				<g>
					<path class="st1" d="M264.5,538c-0.21,1.11-0.43,2.23-0.66,3.34c-0.13,0.63-0.27,1.27-0.42,1.9c0.15-0.63,0.28-1.26,0.42-1.9
						C264.07,540.23,264.29,539.11,264.5,538z"/>
				</g>
				<g>
					<path class="st1" d="M259.1,555.11c1.78-3.16,2.96-6.53,3.85-10C262.06,548.59,260.88,551.95,259.1,555.11z"/>
				</g>
				<g>
					<path class="st1" d="M266.23,520.98c0-0.01,0-0.02,0-0.03C266.23,520.96,266.23,520.97,266.23,520.98z"/>
				</g>
				<g>
					<path class="st0" d="M262.85,539.44c0.27-1.32,0.51-2.65,0.72-3.98c0.14-0.89,0.28-1.78,0.4-2.68
						c0.19-1.34,0.37-2.69,0.54-4.04c0.23-1.8,0.46-3.6,0.72-5.39c0.26-1.79,0.54-3.58,0.88-5.35c0.06,0.99,0.09,1.97,0.11,2.95
						c0,0.01,0,0.02,0,0.03c0.06,5.73-0.67,11.39-1.73,17.02c-0.21,1.11-0.43,2.23-0.66,3.34c-0.13,0.63-0.27,1.27-0.42,1.9
						s-0.3,1.26-0.46,1.88c-0.89,3.47-2.08,6.84-3.85,10c-0.14,0.25-0.27,0.51-0.42,0.75c-0.38,0.64-0.81,1.2-1.28,1.68
						c-0.19,0.2-0.4,0.38-0.61,0.55c-0.49,0.39-1.01,0.68-1.59,0.84c-0.24,0.07-0.48,0.11-0.73,0.13c-0.25,0.02-0.51,0.02-0.78,0
						c1.32-1.47,2.46-2.99,3.45-4.55c1.24-1.96,2.25-3.98,3.08-6.07c0.83-2.08,1.49-4.22,2.03-6.39
						C262.47,541.19,262.67,540.32,262.85,539.44z"/>
				</g>
				<g>
					<path class="st2" d="M210.03,408.15c1.42,1.38,2.8,7.8,5.01,13.76c1.62,4.36-1.84,47.66,28.46,74.75
						c5.1,4.56,9.92,9.27,15.82,12.77c1.1,0.65,2.17,1.42,1.92,3.19c-1.53,10.73-1.85,21.66-5.3,32.06c-0.93,2.8-2.09,5.5-3.56,8.1
						c-1.28,2.26-2.87,2.99-5.18,2.21c-5.24-1.78-10.06-0.73-14.56,2.15c-1.32,0.84-2.58,1.99-2.95,3.61
						c-0.69,3.04,1.77,5.26,4.55,5.45c10.89,0.73,21.53-0.73,32.09-3.21c0.08-0.02,0.19,0.03,0.26-0.01
						c0.99-0.54,0.93-2.61-0.15-2.57c-1.89,0.07-2.38-0.24-1.64-2.27c1.75-4.83,5.07-22.55,5.43-24.82
						c0.8-5.08,1.01-10.15,0.97-15.27c-0.02-2.54,0.64-3.14,3.08-2.15c9.95,4.01,31.62,5.52,36.95,5.58
						c4.51,0.05,8.97-0.27,13.41-1.04c2.53-0.44,3.18,0.35,2.79,2.96c-0.94,6.4-5.3,37.25-7.1,37.86c-1.41,0.48-1.16,2.38,0.71,2.73
						c8.21,1.53,16.5,2.29,24.84,2.86c4.46,0.31,8.95,0.01,13.44,0.62c1.94,0.27,4.52,0.1,6.67-1.16c2.68-1.57,3.13-2.88,1.28-5.27
						c-3.58-4.65-8.71-5.92-14.12-6.42c-4.19-0.38-8.38,0.18-12.56,0.51c-0.42,0.03-0.84,0.02-1.25-0.03
						c-3.29-0.42-4.01-1.28-4.04-4.57c-0.08-7.02,1.59-13.86,2.05-20.81c0.2-3.05,0.11-6.13,0.02-9.2c-0.04-1.18,0.33-1.55,1.45-1.9
						c1-0.31,1.93-0.82,2.95-1.13c4-1.21,7.48-2.86,10.43-4.64c5.82-3.5,10.26-8.7,14.39-14.09c17.34-22.64,10.21-47.87,8.96-50.89
						c-0.06,0.14-3.45,0.48-3.26,0.89c1.77,3.86,8.3,36.79-20.52,56.4c-3.62,2.77-7.87,4.17-12.17,5.33
						c-1.08,0.29-2.16,0.57-3.23,0.83s-2.16,0.51-3.24,0.74c-2.16,0.46-4.32,0.86-6.49,1.2c-12.99,2.03-26.08,1.8-39.23-0.91
						c-6.69-1.38-60.07-69.4-59.34-73.91l0,0v0c1.32-0.68,1.57-0.81,2.89-1.49c8.72,6.1,29.09,13.81,29.51,13.98
						c0.07,0.03,16.76,1.48,29.4,2.48c0,0,0,0,0,0c49.66,5.6,85.68-5.54,85.67-5.54c0,0,0,0,0.01,0c0.22,0.05,1.93-0.72,3.08-1.11
						c13.41-4.48,21.15-13.74,23.69-27.55c0.37-1.98,0.22-3.78,3.64-4.33c9.21-1.46,17.94-5.16,23.75-12.72
						c31.79-41.31,34.31-83.93,22.16-117.35c-11.66-32.08-39.87-65.15-100.53-69.73c-6.26-0.47-12.55-0.57-18.8-0.13
						c-10.64,0.74-21.14,2.54-31.25,6.19c-8.88,3.21-17.27,7.39-25.27,12.43c-11.75,7.4-21.76,16.85-31.02,27.01
						c-9.73,10.68-18.05,22.48-24.36,35.67c-1.35,2.82-2.23,5.83-3.02,8.85c-0.57,2.15-2.33,4-3.34,6.08
						c-2.87,5.93-4.55,12.22-5.45,18.72c-0.97,6.99-0.88,13.97,0.49,20.92c0.34,1.71-0.03,3.39-1,4.93
						c-3.6,5.7-5.5,11.93-6.39,18.62c-1.31,9.9-0.32,19.31,4.55,28.16C207.57,404.5,208.43,406.59,210.03,408.15z M341.96,559.95
						c0.72-0.15,1.44-0.34,2.15-0.5c0.72-0.17,1.44-0.31,2.17-0.39c0.34-0.04,0.67-0.07,1.01-0.1c0.67-0.06,1.34-0.11,2-0.14
						c1-0.05,2-0.06,2.99-0.03c0.33,0.01,0.66,0.03,0.99,0.05c0.99,0.07,1.96,0.19,2.93,0.37c1.94,0.37,3.84,1,5.68,1.99
						c0.16,0.09,0.34,0.17,0.52,0.27c0.09,0.05,0.18,0.1,0.26,0.16c0.17,0.11,0.32,0.24,0.43,0.39c0.11,0.15,0.17,0.33,0.15,0.53
						c-0.01,0.1-0.03,0.21-0.08,0.33c-0.04,0.11-0.1,0.21-0.16,0.29c-0.31,0.39-0.84,0.4-1.35,0.31c-0.2-0.03-0.41-0.08-0.59-0.12
						c-0.65-0.14-1.29-0.31-1.93-0.48c-0.84-0.23-1.68-0.45-2.52-0.65c-0.19-0.05-0.38-0.09-0.57-0.13c-0.45-0.1-0.9-0.19-1.35-0.25
						c-1.05-0.15-2.11-0.29-3.17-0.42c-3.17-0.39-6.36-0.7-9.54-1.06C341.98,560.23,341.97,560.09,341.96,559.95z M327.91,552.31
						c0-0.27,0.01-0.54,0.03-0.83c0.12-1.55,0.32-3.09,0.56-4.62s0.51-3.06,0.8-4.58c0.57-3.05,1.17-6.09,1.54-9.16
						c0.37-3.01,0.75-6.02,1.13-9.04c0.53,1.44,0.62,2.83,0.51,4.2c-0.13,1.63-0.27,3.27-0.44,4.9s-0.36,3.26-0.58,4.88
						c-0.22,1.62-0.46,3.24-0.74,4.86s-0.57,3.22-0.91,4.83c-0.19,0.92-0.3,1.79-0.33,2.61s0.03,1.59,0.18,2.32
						c0.1,0.48,0.24,0.94,0.43,1.38c0.09,0.22,0.2,0.43,0.31,0.64c0.35,0.63,0.8,1.2,1.36,1.73c0.19,0.18,0.39,0.35,0.6,0.51
						c0.64,0.49,1.39,0.94,2.26,1.33c0.34,0.15,0.61,0.32,0.57,0.74c0,0,0,0,0,0c0,0,0,0,0,0c-1.82-0.03-3.35-0.47-4.53-1.23
						c-0.98-0.64-1.73-1.51-2.2-2.57C328.11,554.36,327.92,553.39,327.91,552.31z M248.85,560.37c-0.51,0.03-1.02,0.05-1.53,0.09
						c-0.55,0.04-1.11,0.08-1.66,0.13c-1.98,0.17-3.95,0.42-5.89,0.82c-0.99,0.2-1.98,0.45-2.96,0.74
						c-0.18,0.05-0.38,0.04-0.58,0.01c-0.07-0.01-0.13-0.02-0.19-0.04c-0.06-0.01-0.13-0.03-0.19-0.04
						c-0.11-0.02-0.22-0.05-0.33-0.09c-0.05-0.02-0.09-0.03-0.13-0.05c-0.09-0.04-0.18-0.08-0.26-0.14
						c-0.15-0.11-0.26-0.27-0.32-0.49c-0.02-0.08-0.03-0.16-0.03-0.23c0-0.07,0.01-0.13,0.04-0.19c0.1-0.29,0.42-0.45,0.72-0.57
						c0.06-0.02,0.12-0.04,0.18-0.06c0.35-0.12,0.7-0.25,1.05-0.38c0.7-0.26,1.4-0.52,2.11-0.71c0.36-0.09,0.71-0.17,1.07-0.21
						c0.38-0.05,0.76-0.09,1.14-0.13c0.38-0.04,0.76-0.07,1.14-0.09c0.19-0.01,0.38-0.02,0.57-0.02c0.19,0,0.38,0,0.57,0
						c0.38,0.01,0.76,0.03,1.13,0.07c0.94,0.1,1.86,0.31,2.76,0.7C247.8,559.71,248.33,560,248.85,560.37z M262.26,542.06
						c0.22-0.87,0.41-1.74,0.59-2.62c0.27-1.32,0.51-2.65,0.72-3.98c0.14-0.89,0.28-1.78,0.4-2.68c0.19-1.34,0.37-2.69,0.54-4.04
						c0.23-1.8,0.46-3.6,0.72-5.39c0.26-1.79,0.54-3.58,0.88-5.35c0.06,0.99,0.09,1.97,0.11,2.95c0,0.01,0,0.02,0,0.03
						c0.06,5.73-0.67,11.39-1.73,17.02c-0.21,1.11-0.43,2.23-0.66,3.34c-0.13,0.63-0.27,1.27-0.42,1.9s-0.3,1.26-0.46,1.88
						c-0.89,3.47-2.08,6.84-3.85,10c-0.14,0.25-0.27,0.51-0.42,0.75c-0.38,0.64-0.81,1.2-1.28,1.68c-0.19,0.2-0.4,0.38-0.61,0.55
						c-0.49,0.39-1.01,0.68-1.59,0.84c-0.24,0.07-0.48,0.11-0.73,0.13c-0.25,0.02-0.51,0.02-0.78,0c1.32-1.47,2.46-2.99,3.45-4.55
						c1.24-1.96,2.25-3.98,3.08-6.07C261.06,546.37,261.72,544.23,262.26,542.06z M397.9,410.2c-0.68,0.03-1.36,0.05-2.04,0.06
						c-0.68,0.01-1.36,0.01-2.04,0.01c-0.68-0.01-1.36-0.02-2.04-0.04c-1.36-0.04-2.72-0.12-4.08-0.21
						c-2.04-0.14-4.08-0.34-6.12-0.57c-1.36-0.15-2.72-0.32-4.07-0.49c-3.48-0.45-6.95-0.92-10.43-1.34
						c-5.79-0.71-11.6-1.32-17.45-1.53c-5.72-0.21-11.45-0.33-17.17-0.52c-5.72-0.19-11.44-0.45-17.16-0.93
						c-1.65-0.14-3.3-0.29-4.94-0.47c-2.46-0.26-4.92-0.55-7.37-0.89c-1.63-0.23-3.26-0.47-4.88-0.74
						c-7.3-1.21-14.52-2.88-21.6-5.26c-2.99-1-5.91-2.16-8.76-3.44c-2.14-0.96-4.24-1.99-6.31-3.07s-4.12-2.22-6.14-3.39
						c-4.05-2.35-8.02-4.85-11.96-7.4c-1.67-1.08-3.3-2.21-4.88-3.38c-1.05-0.78-2.08-1.59-3.09-2.42
						c-1.51-1.25-2.97-2.55-4.37-3.91c-0.47-0.45-0.93-0.91-1.38-1.38c-1.36-1.4-2.66-2.86-3.9-4.39c-1.65-2.04-3.18-4.19-4.58-6.47
						c-0.14-0.23-0.31-0.45-0.48-0.68c-0.17-0.23-0.34-0.45-0.48-0.69c-0.14-0.24-0.25-0.49-0.31-0.76
						c-0.06-0.27-0.06-0.57,0.01-0.9c-8.06-13.36-6.01-31.97,0.38-42.44c0.05,2.52,1.62,4.4,1.78,6.71c1.87,2.11,3.12,4.64,4.81,6.9
						c0.29,0.38,0.58,0.76,0.9,1.12c0.4,0.45,0.81,0.89,1.22,1.31c2.09,2.11,4.41,3.82,6.87,5.33c0.98,0.6,1.99,1.17,3,1.72
						c1.02,0.55,2.05,1.07,3.09,1.58c3.12,1.54,6.3,2.97,9.37,4.61c-0.7-1.24-1.51-2.38-2.43-3.42c-0.46-0.52-0.94-1.02-1.45-1.49
						c-0.51-0.47-1.04-0.92-1.59-1.34c-4.68-3.59-8.59-7.92-12.11-12.58c-0.45-0.6-0.93-1.19-1.39-1.79
						c-1.39-1.8-2.71-3.67-3.17-6.02c0,0,0,0,0,0c-0.71-1.02-1.07-2.18-1.44-3.34c-2.84-8.83-0.3-16.71,4.18-24.29
						c11.68-19.78,26.54-36.57,46.05-48.96c8.04-5.11,16.33-9.7,25.44-12.76c26.21-8.81,52.15-6.8,78.57-0.01
						c38.55,9.91,58.54,46.16,62.31,55.71c23.06,58.45-9.15,112.27-23.89,121.97c-1.11,0.97-2.32,1.77-3.58,2.44
						c-2.11,1.11-4.39,1.86-6.71,2.47c-1.35,0.36-2.7,0.65-4.05,0.9c-1.35,0.24-2.71,0.44-4.06,0.58
						C400.61,410.03,399.26,410.14,397.9,410.2z M212.18,359.79c0.88,2.2,1.62,3.96,2.29,5.76c0.17,0.47,0.11,1.03,0.15,1.55
						c1.04,1.49,1.19,3.27,1.64,4.96c0.06,0.24,0.13,0.48,0.21,0.72c1.98,5.91,4.85,10.99,8.51,15.36c1.57,1.87,3.28,3.62,5.12,5.24
						c1.23,1.08,2.52,2.11,3.87,3.09c2.69,1.96,5.62,3.71,8.74,5.29c6.53,3.29,13.45,4.97,20.61,6.08
						c-4.36-1.85-8.61-3.92-12.67-6.29c-0.94-0.55-1.89-1.11-2.82-1.67c-0.75-0.45-1.5-0.92-2.24-1.39
						c-0.64-0.4-1.27-0.81-1.89-1.24c-0.45-0.3-0.89-0.61-1.33-0.93c-0.88-0.63-1.74-1.28-2.58-1.96c-0.83-0.68-1.64-1.39-2.42-2.14
						c-0.78-0.75-1.52-1.53-2.23-2.35c-0.35-0.41-0.7-0.84-1.03-1.27c-1-1.3-1.9-2.71-2.7-4.25c-0.4-0.78-0.78-1.56-1.1-2.38
						c-0.11-0.27-0.21-0.55-0.3-0.83c-0.37-1.12-0.6-2.33-0.61-3.68l0,0v0c1.44,1.17,2.9,2.27,4.38,3.34
						c1.07,0.78,2.15,1.54,3.24,2.28c2.58,1.75,5.2,3.38,7.86,4.96c1.77,1.05,3.55,2.07,5.34,3.08
						c15.88,8.93,33.04,13.81,50.98,16.1c13.98,1.79,28.08,2.33,42.15,2.51c2.11,0.03,4.22,0.11,6.32,0.23
						c2.1,0.12,4.19,0.29,6.28,0.49c1.04,0.1,2.09,0.21,3.13,0.33c2.08,0.23,4.16,0.5,6.24,0.78c3.11,0.43,6.22,0.9,9.33,1.38
						c6.21,0.97,12.41,2,18.65,2.84c4.63-0.18,4.63-0.18,3.63,4.23c-3.21,14.18-13.57,22.7-28.59,23.49l-1.38-0.01
						c-0.15-0.06-0.3-0.1-0.45-0.13c-0.39,0.03-0.78,0.1-1.16,0.12c-0.13,0.01-0.26,0.01-0.39,0c-6.12-0.25-12.24-0.55-18.35-0.82
						c-3.06-0.14-6.12-0.26-9.18-0.37c-3.06-0.11-6.12-0.2-9.18-0.27c-1.88-0.04-3.76-0.08-5.64-0.12
						c-3.76-0.09-7.52-0.19-11.28-0.31c-3.76-0.13-7.51-0.28-11.27-0.48c-1.88-0.1-3.75-0.21-5.63-0.34
						c-3.75-0.25-7.5-0.55-11.25-0.92c-6.69-0.66-13.22-1.85-19.56-3.68c-1.59-0.46-3.16-0.95-4.72-1.49
						c-2.34-0.8-4.66-1.7-6.95-2.69c-2.29-0.99-4.55-2.08-6.79-3.27c-2.35-1.25-4.68-2.51-6.97-3.84c-1.14-0.66-2.28-1.34-3.4-2.03
						c-1.12-0.69-2.23-1.41-3.32-2.15c-1.64-1.11-3.23-2.26-4.78-3.49c-0.52-0.41-1.03-0.83-1.53-1.25c-1.01-0.85-2-1.73-2.96-2.65
						c-0.96-0.92-1.9-1.88-2.8-2.88c-0.72-0.8-1.46-1.59-2.15-2.41c-0.46-0.55-0.9-1.11-1.29-1.71c-0.59-0.89-1.09-1.85-1.42-2.92
						c-0.45-1.52-1.63-2.61-2.29-3.99C206,386.36,206.53,373.3,212.18,359.79z"/>
				</g>
				<g>
					<path class="st2" d="M381.59,409.44c2.04,0.23,4.08,0.43,6.12,0.57C385.67,409.87,383.63,409.67,381.59,409.44z"/>
				</g>
				<g>
					<path class="st2" d="M332.48,405.55c-5.72-0.19-11.44-0.45-17.16-0.93c-1.65-0.14-3.3-0.29-4.94-0.47
						c1.64,0.17,3.29,0.32,4.94,0.47C321.03,405.11,326.75,405.36,332.48,405.55z"/>
				</g>
				<g>
					<path class="st2" d="M235.86,333.92c-2.46-1.51-4.78-3.22-6.87-5.33C231.08,330.7,233.41,332.42,235.86,333.92z"/>
				</g>
				<g>
					<path class="st2" d="M391.79,410.23c0.68,0.02,1.36,0.04,2.04,0.04C393.14,410.26,392.47,410.25,391.79,410.23z"/>
				</g>
				<g>
					<path class="st2" d="M227.77,327.28c-0.32-0.36-0.61-0.74-0.9-1.12C227.15,326.54,227.45,326.92,227.77,327.28z"/>
				</g>
				<g>
					<path class="st2" d="M248.9,338.42c-0.46-0.52-0.94-1.02-1.45-1.49C247.96,337.4,248.44,337.9,248.9,338.42z"/>
				</g>
				<g>
					<path class="st2" d="M278.37,359.32c-0.08-0.13-0.14-0.27-0.14-0.41C278.23,359.05,278.28,359.19,278.37,359.32z"/>
				</g>
				<g>
					<path class="st2" d="M241.95,337.22c-1.04-0.51-2.07-1.04-3.09-1.58C239.88,336.19,240.91,336.71,241.95,337.22z"/>
				</g>
				<g>
					<path class="st2" d="M232.35,321.21c-1.39-1.8-2.71-3.67-3.17-6.02c0,0,0,0,0,0c0,0,0,0,0,0
						C229.64,317.53,230.96,319.41,232.35,321.21z"/>
				</g>
				<g>
					<path class="st2" d="M367.09,407.6c3.48,0.43,6.95,0.9,10.43,1.34C374.04,408.5,370.57,408.03,367.09,407.6z"/>
				</g>
				<g>
					<path class="st2" d="M279.52,358.22c0.08,0.06,0.17,0.13,0.25,0.21C279.68,358.35,279.6,358.28,279.52,358.22z"/>
				</g>
				<g>
					<path class="st2" d="M255.32,387.37c2.02,1.17,4.07,2.31,6.14,3.39C259.39,389.68,257.34,388.55,255.32,387.37z"/>
				</g>
				<g>
					<path class="st2" d="M298.13,402.53c1.62,0.27,3.25,0.51,4.88,0.74C301.38,403.04,299.75,402.8,298.13,402.53z"/>
				</g>
				<g>
					<path class="st2" d="M261.46,390.76c2.07,1.08,4.17,2.11,6.31,3.07C265.64,392.87,263.54,391.84,261.46,390.76z"/>
				</g>
				<g>
					<path class="st2" d="M397.9,410.2c1.36-0.06,2.71-0.16,4.07-0.31C400.61,410.03,399.26,410.14,397.9,410.2z"/>
				</g>
				<g>
					<path class="st2" d="M401.97,409.89c1.36-0.15,2.71-0.34,4.06-0.58C404.68,409.55,403.33,409.74,401.97,409.89z"/>
				</g>
				<g>
					<path class="st2" d="M303.01,403.27c2.45,0.34,4.9,0.63,7.37,0.89C307.92,403.9,305.46,403.61,303.01,403.27z"/>
				</g>
				<g>
					<path class="st2" d="M437.99,368.41c-1.71-0.26-3.38-0.63-5-1.1C434.62,367.78,436.28,368.15,437.99,368.41z"/>
				</g>
				<g>
					<path class="st2" d="M416.8,405.94c-2.11,1.11-4.39,1.86-6.71,2.47c-1.35,0.36-2.7,0.65-4.05,0.9c1.35-0.24,2.7-0.54,4.05-0.9
						C412.41,407.8,414.69,407.05,416.8,405.94z"/>
				</g>
				<g>
					<path class="st2" d="M401.72,311.97c0,0.02,0,0.04,0,0.05C401.72,312.01,401.72,311.99,401.72,311.97z"/>
				</g>
				<g>
					<path class="st2" d="M426.76,364.91c-0.99-0.48-1.97-1.01-2.91-1.57C424.79,363.91,425.76,364.43,426.76,364.91z"/>
				</g>
				<g>
					<path class="st2" d="M245.86,335.59c0.55,0.42,1.08,0.87,1.59,1.34C246.94,336.46,246.41,336.01,245.86,335.59z"/>
				</g>
				<g>
					<path class="st2" d="M234.09,388.6c-1-1.3-1.9-2.71-2.7-4.25c-0.4-0.78-0.78-1.56-1.1-2.38c0.32,0.82,0.7,1.6,1.1,2.38
						C232.19,385.88,233.1,387.29,234.09,388.6z"/>
				</g>
				<g>
					<path class="st2" d="M235.12,389.87c0.71,0.83,1.45,1.61,2.23,2.35C236.57,391.48,235.83,390.69,235.12,389.87z"/>
				</g>
				<g>
					<path class="st2" d="M245.57,398.48c0.74,0.47,1.49,0.93,2.24,1.39C247.06,399.42,246.31,398.95,245.57,398.48z"/>
				</g>
				<g>
					<path class="st2" d="M216.25,372.06c0.06,0.24,0.13,0.48,0.21,0.72c1.98,5.91,4.85,10.99,8.51,15.36
						c-3.66-4.37-6.53-9.45-8.51-15.36C216.38,372.54,216.31,372.3,216.25,372.06z"/>
				</g>
				<g>
					<path class="st2" d="M355.92,410.45c-2.09-0.2-4.18-0.37-6.28-0.49C351.73,410.08,353.83,410.25,355.92,410.45z"/>
				</g>
				<g>
					<path class="st2" d="M237,383.08c-1.09-0.74-2.16-1.5-3.24-2.28C234.83,381.58,235.91,382.34,237,383.08z"/>
				</g>
				<g>
					<path class="st2" d="M229.38,377.46L229.38,377.46c0.01,1.36,0.24,2.56,0.61,3.68C229.63,380.02,229.39,378.81,229.38,377.46z"
						/>
				</g>
				<g>
					<path class="st2" d="M233.96,396.46c-1.35-0.98-2.64-2.01-3.87-3.09C231.32,394.46,232.61,395.49,233.96,396.46z"/>
				</g>
				<g>
					<path class="st2" d="M393.26,415.79c-6.23-0.84-12.43-1.87-18.65-2.84C380.82,413.92,387.02,414.95,393.26,415.79z"/>
				</g>
				<g>
					<path class="st2" d="M365.28,411.56c-2.08-0.28-4.16-0.55-6.24-0.78C361.13,411.01,363.21,411.28,365.28,411.56z"/>
				</g>
				<g>
					<path class="st2" d="M215.86,433.14c-0.43-1.64-0.78-3.33-1.03-5.08c-0.19-1.34-0.33-2.69-0.34-4.03
						c0.01,1.35,0.15,2.69,0.34,4.03C215.08,429.81,215.43,431.5,215.86,433.14z"/>
				</g>
				<g>
					<path class="st2" d="M344.27,446.37c3.52,0.26,7.03,0.59,10.54,1.01c1.29,0.15,2.59,0.26,3.89,0.38
						c-1.3-0.12-2.6-0.23-3.89-0.38C351.3,446.96,347.79,446.63,344.27,446.37z"/>
				</g>
				<g>
					<path class="st2" d="M228.93,425.55c0.31,0.14,0.59,0.31,0.87,0.49c1.9,1.25,3.83,2.42,5.79,3.52
						c-1.96-1.1-3.89-2.27-5.79-3.52C229.52,425.86,229.23,425.69,228.93,425.55z"/>
				</g>
				<g>
					<path class="st2" d="M340.75,446.13c-2.35-0.15-4.69-0.27-7.04-0.37C336.06,445.86,338.41,445.98,340.75,446.13z"/>
				</g>
				<g>
					<path class="st2" d="M361.29,448.05c-0.86-0.12-1.73-0.21-2.59-0.29C359.56,447.84,360.43,447.93,361.29,448.05z"/>
				</g>
				<g>
					<path class="st2" d="M363.86,448.51c-0.85-0.19-1.71-0.34-2.57-0.46C362.15,448.17,363.01,448.31,363.86,448.51z"/>
				</g>
				<g>
					<path class="st2" d="M287.19,443.99c-0.81-0.05-1.61-0.11-2.42-0.17C285.57,443.88,286.38,443.94,287.19,443.99z"/>
				</g>
				<g>
					<path class="st2" d="M245.62,434.51c-1.37-0.59-2.73-1.21-4.07-1.85C242.89,433.31,244.25,433.92,245.62,434.51z"/>
				</g>
				<g>
					<path class="st2" d="M251.86,436.99c-2.11-0.77-4.19-1.59-6.24-2.48C247.67,435.4,249.76,436.22,251.86,436.99z"/>
				</g>
				<g>
					<path class="st2" d="M298.47,444.58c-1.51-0.07-3.01-0.14-4.52-0.22C295.46,444.44,296.97,444.51,298.47,444.58z"/>
				</g>
				<g>
					<path class="st2" d="M293.96,444.36c-1.51-0.07-3.01-0.15-4.52-0.24C290.95,444.21,292.45,444.29,293.96,444.36z"/>
				</g>
				<g>
					<path class="st2" d="M280.61,443.47c-1.56-0.15-3.12-0.32-4.67-0.52C277.5,443.16,279.05,443.33,280.61,443.47z"/>
				</g>
				<g>
					<path class="st2" d="M253.98,437.74c2.83,0.97,5.7,1.85,8.62,2.64c3.67,1,7.38,1.72,11.11,2.27
						c-3.73-0.55-7.43-1.27-11.11-2.27C259.68,439.59,256.81,438.72,253.98,437.74z"/>
				</g>
				<g>
					<path class="st2" d="M408.37,294.99c0,0,0-0.01,0-0.01l0,0C408.37,294.98,408.37,294.98,408.37,294.99z"/>
				</g>
				<g>
					<path class="st2" d="M263.98,532.78c-0.13,0.9-0.26,1.79-0.4,2.68C263.72,534.57,263.85,533.67,263.98,532.78z"/>
				</g>
				<g>
					<path class="st2" d="M259.1,555.11c-0.14,0.25-0.27,0.51-0.42,0.75c-0.38,0.64-0.81,1.2-1.28,1.68
						c0.46-0.48,0.89-1.04,1.28-1.68C258.83,555.62,258.96,555.36,259.1,555.11z"/>
				</g>
				<g>
					<path class="st2" d="M262.85,539.44c-0.18,0.88-0.38,1.75-0.59,2.62C262.47,541.19,262.67,540.32,262.85,539.44z"/>
				</g>
				<g>
					<path class="st2" d="M263.57,535.46c-0.22,1.34-0.45,2.66-0.72,3.98C263.12,538.12,263.36,536.79,263.57,535.46z"/>
				</g>
				<g>
					<path class="st2" d="M264.5,538c1.06-5.63,1.79-11.29,1.73-17.02C266.29,526.71,265.56,532.37,264.5,538z"/>
				</g>
				<g>
					<path class="st2" d="M254.48,559.07c0.25-0.02,0.49-0.07,0.73-0.13C254.98,559,254.73,559.05,254.48,559.07z"/>
				</g>
				<g>
					<path class="st2" d="M255.21,558.94c0.58-0.16,1.1-0.46,1.59-0.84C256.31,558.48,255.79,558.78,255.21,558.94z"/>
				</g>
				<g>
					<path class="st2" d="M264.52,528.74c-0.18,1.35-0.35,2.7-0.54,4.04C264.17,531.43,264.35,530.08,264.52,528.74z"/>
				</g>
				<g>
					<path class="st2" d="M265.24,523.34c-0.26,1.79-0.49,3.59-0.72,5.39C264.76,526.94,264.99,525.14,265.24,523.34z"/>
				</g>
				<g>
					<path class="st2" d="M265.24,523.34c0.26-1.79,0.54-3.58,0.88-5.35c0.06,0.99,0.09,1.97,0.11,2.95
						c-0.01-0.98-0.05-1.96-0.11-2.95C265.78,519.77,265.5,521.55,265.24,523.34z"/>
				</g>
				<g>
					<path class="st2" d="M327.91,552.31c0.01,1.08,0.21,2.05,0.58,2.9C328.11,554.36,327.92,553.39,327.91,552.31z"/>
				</g>
				<g>
					<path class="st2" d="M331.77,556.42c-0.56-0.53-1.01-1.1-1.36-1.73C330.76,555.32,331.21,555.9,331.77,556.42z"/>
				</g>
				<g>
					<path class="st2" d="M335.21,559.01c-1.82-0.03-3.35-0.47-4.53-1.23C331.87,558.54,333.39,558.97,335.21,559.01
						C335.21,559.01,335.21,559.01,335.21,559.01z"/>
				</g>
				<g>
					<path class="st2" d="M332.03,533.19c0.17-1.63,0.32-3.26,0.44-4.9C332.35,529.93,332.2,531.56,332.03,533.19z"/>
				</g>
				<g>
					<path class="st2" d="M330.68,557.78c-0.98-0.64-1.73-1.51-2.2-2.57C328.96,556.27,329.7,557.14,330.68,557.78z"/>
				</g>
				<g>
					<path class="st2" d="M330.72,542.92c0.27-1.61,0.52-3.23,0.74-4.86C331.24,539.69,330.99,541.31,330.72,542.92z"/>
				</g>
				<g>
					<path class="st2" d="M356.19,559.21c1.94,0.37,3.84,1,5.68,1.99c0.16,0.09,0.34,0.17,0.52,0.27c-0.18-0.1-0.36-0.19-0.52-0.27
						C360.03,560.21,358.13,559.58,356.19,559.21z"/>
				</g>
				<g>
					<path class="st2" d="M349.29,558.82c1-0.05,2-0.06,2.99-0.03C351.29,558.76,350.29,558.77,349.29,558.82z"/>
				</g>
				<g>
					<path class="st2" d="M356.19,559.21c-0.97-0.18-1.95-0.3-2.93-0.37C354.25,558.91,355.23,559.03,356.19,559.21z"/>
				</g>
				<g>
					<path class="st2" d="M349.29,558.82c-0.67,0.03-1.34,0.08-2,0.14C347.95,558.9,348.62,558.86,349.29,558.82z"/>
				</g>
				<g>
					<path class="st2" d="M356.05,562.1c0.19,0.04,0.38,0.08,0.57,0.13C356.43,562.19,356.24,562.15,356.05,562.1z"/>
				</g>
				<g>
					<path class="st2" d="M362.66,561.63c0.17,0.11,0.32,0.24,0.43,0.39C362.98,561.88,362.83,561.75,362.66,561.63z"/>
				</g>
				<g>
					<path class="st2" d="M363.24,562.56c-0.01,0.1-0.03,0.21-0.08,0.33c-0.04,0.11-0.1,0.21-0.16,0.29
						c0.06-0.08,0.12-0.17,0.16-0.29C363.21,562.77,363.24,562.66,363.24,562.56z"/>
				</g>
				<g>
					<path class="st2" d="M361.65,563.49c-0.2-0.03-0.41-0.08-0.59-0.12c-0.65-0.14-1.29-0.31-1.93-0.48
						c0.64,0.17,1.28,0.34,1.93,0.48C361.25,563.41,361.45,563.46,361.65,563.49z"/>
				</g>
				<g>
					<path class="st2" d="M235.52,561.99c0.11,0.03,0.22,0.06,0.33,0.09C235.74,562.05,235.63,562.02,235.52,561.99z"/>
				</g>
				<g>
					<path class="st2" d="M248.85,560.37c-0.52-0.37-1.05-0.66-1.59-0.89C247.8,559.71,248.33,560,248.85,560.37
						c-0.51,0.03-1.02,0.05-1.53,0.09C247.83,560.42,248.34,560.39,248.85,560.37z"/>
				</g>
				<g>
					<path class="st2" d="M236.82,562.14c-0.18,0.05-0.38,0.04-0.58,0.01C236.43,562.18,236.64,562.19,236.82,562.14z"/>
				</g>
				<g>
					<path class="st2" d="M235.54,560.32c0.06-0.02,0.12-0.04,0.18-0.06c0.35-0.12,0.7-0.25,1.05-0.38
						c-0.35,0.13-0.7,0.26-1.05,0.38C235.66,560.27,235.6,560.29,235.54,560.32z"/>
				</g>
				<g>
					<path class="st2" d="M245.66,560.58c0.55-0.05,1.1-0.09,1.66-0.13C246.77,560.49,246.22,560.53,245.66,560.58z"/>
				</g>
				<g>
					<path class="st2" d="M235.13,561.79c0.08,0.06,0.17,0.1,0.26,0.14C235.29,561.9,235.2,561.85,235.13,561.79z"/>
				</g>
				<g>
					<path class="st2" d="M234.79,561.08c0,0.07,0.01,0.15,0.03,0.23C234.79,561.22,234.78,561.15,234.79,561.08z"/>
				</g>
				<g>
					<path class="st2" d="M244.5,558.78c-0.37-0.04-0.75-0.06-1.13-0.07C243.75,558.72,244.12,558.74,244.5,558.78z"/>
				</g>
				<g>
					<path class="st2" d="M326.65,513.26c2.17-0.34,4.33-0.74,6.49-1.2C330.98,512.53,328.82,512.93,326.65,513.26z"/>
				</g>
				<g>
					<path class="st2" d="M339.61,510.5c-1.08,0.29-2.16,0.57-3.23,0.83c1.07-0.26,2.15-0.54,3.22-0.83
						C339.6,510.5,339.61,510.5,339.61,510.5z"/>
				</g>
				<g>
					<path class="st2" d="M230.69,505.72c0-0.01,0.01-0.02,0.01-0.02c0,0,0.03,0.03,0.03,0.03
						C230.72,505.72,230.71,505.72,230.69,505.72z"/>
				</g>
				<g>
					<path class="st2" d="M230.73,505.72L230.73,505.72c0,0-0.03-0.03-0.03-0.03c0.06-0.05,0.12-0.09,0.18-0.14
						C230.83,505.61,230.78,505.67,230.73,505.72z"/>
				</g>
				<g>
					<path class="st0" d="M252.46,446.3c0.06,0.03,0.13,0.05,0.19,0.07c11.96,4.7,24.58,6.1,37.24,7.04
						C277.14,452.95,264.47,451.06,252.46,446.3z"/>
				</g>
				<g>
					<path class="st0" d="M319.21,492.05c0.85-0.05,1.61,0.14,1.8,1.06c0.17,0.84-0.49,1.19-1.19,1.39
						c-0.91-0.02-1.47-0.54-1.66-1.35C317.98,492.38,318.51,492.1,319.21,492.05z"/>
				</g>
				<g>
					<path class="st0" d="M252.65,446.37c11.96,4.7,24.59,6.04,37.24,7.04c0,0,0,0,0,0c0,0,0,0,0,0
						C277.23,452.47,264.61,451.07,252.65,446.37z"/>
				</g>
				<g>
					<path class="st0" d="M230.8,469.88c3.59,7.33,22.9,38.53,53.96,44.69c54.65,10.83,72.67-14.21,76.52-20.06
						c15.34-24.56,8.54-45.14,8.54-45.14c-4.91,0.38-39.11-0.81-79.93-3.02c-24.55-1.33-56.62-10.52-65.8-24.49
						C223.54,425.3,219.27,446.35,230.8,469.88z"/>
				</g>
				<g>
					<path class="st0" d="M289.89,453.41C289.89,453.41,289.89,453.41,289.89,453.41c0.01,0,0.01,0,0.02,0
						C289.9,453.41,289.89,453.41,289.89,453.41z"/>
				</g>
				<g>
					<path class="st0" d="M357.93,496.43c0.03-0.52,0.33-0.72,0.82-0.7C358.75,495.73,357.88,496.56,357.93,496.43z"/>
				</g>
				<g>
					<path class="st2" d="M356.45,474.28c0.01,0.61-0.34,0.95-0.96,0.96c0,0,0,0,0,0C356.11,475.22,356.46,474.89,356.45,474.28z"/>
				</g>
				<g>
					<path class="st2" d="M270.33,465.33c0.01,0.61-0.34,0.95-0.96,0.96c0,0,0,0,0,0C269.99,466.27,270.33,465.93,270.33,465.33z"/>
				</g>
				<g>
					<g>
						<path class="st5" d="M403.56,250.27c0.78,1.42,1.58,3.02,1.2,4.59c-0.42,1.72-2.11,2.8-3.73,3.52
							c-9.22,4.11-20.9,1.86-27.94-5.37c-0.96-0.99-1.87-2.11-2.17-3.46c-0.54-2.45,1.04-4.82,2.54-6.84
							c0.52-0.7,1.06-1.42,1.8-1.88c0.78-0.49,1.71-0.66,2.62-0.82c2-0.36,2.04-1.99,4.05-2.34c2.03-0.36,6.05,0.54,8.11,0.64
							C397.61,238.68,400.34,244.38,403.56,250.27z"/>
					</g>
					<g>
						<path class="st2" d="M372.02,251.18c13.72,8.58,20.33,9.16,31.47,3.3c0.46-0.24,0.93,0.31,0.62,0.73
							c-3.8,5.05-8.72,6.16-13.93,5.95c-7.54-0.31-13.77-3.26-19.13-8.79C370.42,251.71,371.25,250.7,372.02,251.18z"/>
					</g>
					<g>
						<path class="st2" d="M398.81,245.21c-9.4-5.76-14.6-6.63-21.86-3.43c-0.98,0.43-1.8-0.87-0.98-1.54
							c2.66-2.16,5.78-2.68,9.04-2.55c5.74,0.23,10.54,2.38,14.68,6.4C400.32,244.68,399.54,245.65,398.81,245.21z"/>
					</g>
				</g>
			</g>
			<g>
				<path class="st2" d="M399.94,464.63c0.76,4.06-0.17,8.23-1.04,12.27s-1.69,8.25-0.72,12.27c0.97,4.02,4.26,7.78,8.39,7.93
					c0.75,0.03,1.55-0.08,2.17-0.51c1.35-0.94,1.32-3.04,0.5-4.46c-0.82-1.42-2.21-2.42-3.34-3.61c-4.14-4.38-4.59-11.02-4.44-17.04
					s0.58-12.44-2.39-17.69c-1.28-2.25-3.12-4.13-5.12-5.76c-3.86-3.13-27.16-10.51-17.38-1.08c2.92,2.82,10.81,3,14.64,5.64
					C395.41,455.47,398.98,459.48,399.94,464.63z"/>
			</g>
			<g>
				<path class="st2" d="M185.95,412.69c-3.93,2.39-6.69,6.26-9.38,9.99c-2.7,3.73-5.57,7.54-9.62,9.73
					c-4.05,2.18-9.45,2.1-12.81-1.05c-4.07-3.8-1.9-9.5,2.14-10.27c1.8-0.35,3.65,0.03,5.48,0.08c6.71,0.17,12.54-0.03,17.42-4.64
					c4.88-4.61,9.87-9.74,16.43-11.18c2.81-0.62,5.74-0.5,8.59-0.05c5.47,0.86,28.92,14.67,13.83,13.59
					c-4.5-0.32-10.53-6.71-15.57-7.93C196.91,409.62,190.94,409.64,185.95,412.69z"/>
			</g>
			<g>
				<path class="st0" d="M171.3,423.51c-2.76,0.94-5.73,1.29-8.63,1.01c-1.4-0.13-2.84-0.41-4.21-0.08
					c-1.37,0.33-2.68,1.51-2.58,2.92c0.13,1.85,2.41,2.71,4.26,2.72c4.32,0.01,8.57-2.37,10.83-6.05"/>
			</g>
			<g>
				<path class="st0" d="M400.92,486.43c0.88,1.71,1.81,3.49,3.41,4.55c0.68,0.45,1.46,0.76,2.08,1.29
					c0.62,0.53,1.06,1.41,0.75,2.17c-1.34,0.84-3.2,0.18-4.21-1.04c-1.01-1.21-1.38-2.82-1.71-4.36c-0.17-0.77-0.33-1.54-0.5-2.31"
					/>
			</g>
		</g>
	</g>
	<g>
		<g>
			<path class="st6" d="M382.54,293.25c0,2.09-0.14,4.19-0.39,6.25c-1.63,13.14-8.42,24.59-20.85,20.57
				c-12.19-3.95-14.13-16.94-11.03-28.9c0.23-0.87,0.48-1.74,0.76-2.59c5.3,3.12,13.8,7,24.05,7.64
				C378.2,296.4,380.76,294.85,382.54,293.25z"/>
		</g>
		<g>
			<path class="st6" d="M408.36,318.78c-11.02,1.04-16.71-8.21-18.08-18.65c-0.24-1.78-0.35-3.6-0.34-5.41
				c1.87,1.33,4.26,2.45,7.08,2.59c5.51,0.27,16.42-3.6,23.34-6.94c0.3,0.93,0.56,1.86,0.78,2.81
				C423.93,304.89,420.91,317.6,408.36,318.78z"/>
		</g>
		<g>
			<path class="st7" d="M420.59,302.07c0.31,3.78-1.7,11.73-11.31,14.85c-9.61,3.12-15.89-9.28-15.89-9.28s4.94,7.93,14.64,4.97
				C417.74,309.65,420.59,302.07,420.59,302.07z"/>
		</g>
		<g>
			<path class="st7" d="M352.05,294.21c-1.59,8.41-0.18,21.21,10.23,23.95c10.41,2.74,14.82-6.95,14.82-6.95s-8.64,8.59-17.82,0.91
				C350.11,304.45,352.05,294.21,352.05,294.21z"/>
		</g>
		<g>
			<path class="st7" d="M382.54,293.25c0,2.09-0.14,4.19-0.39,6.25c-2.22,1.18-5.34,2.18-9.26,1.84
				c-5.74-0.5-16.41-6.44-22.62-10.17c0.23-0.87,0.48-1.74,0.76-2.59c5.3,3.12,13.8,7,24.05,7.64
				C378.2,296.4,380.76,294.85,382.54,293.25z"/>
		</g>
		<g>
			<path class="st7" d="M421.15,293.18c-6.2,3.44-18.55,9.89-23.39,9.62c-2.87-0.16-5.47-1.36-7.48-2.67
				c-0.24-1.78-0.35-3.6-0.34-5.41c1.87,1.33,4.26,2.45,7.08,2.59c5.51,0.27,16.42-3.6,23.34-6.94
				C420.67,291.3,420.93,292.24,421.15,293.18z"/>
		</g>
		<g>
			<path class="st6" d="M418.61,354.49c0,0-3.83,0.81-8.48,0.56c-2.34-0.12-4.88-0.52-7.25-1.41c-7.07-2.68-16.09-5.37-20.36-4.39
				c-4.26,0.98-14.87,5.49-19.38,5.97c-0.63,0.07-1.28,0.11-1.94,0.12c-4.06,0.11-8.3-0.61-8.3-0.61l1.83-26.45
				c0,0,9.63,0.85,18.17,6.09c8.53,5.24,29.99-1.7,29.99-1.7l7.8-3.78l5.61-0.85L418.61,354.49z"/>
		</g>
		<g>
			<path class="st7" d="M418.61,354.49c0,0-3.83,0.81-8.48,0.56c-1.02-5.95-2.22-14.24-2.49-21.53
				c-11.95,5.61-23.41,8.29-44.98,0.37c1.23,5.31-0.29,15.31-1.45,21.46c-4.06,0.11-8.3-0.61-8.3-0.61l1.83-26.45
				c0,0,9.63,0.85,18.17,6.09c8.53,5.24,29.99-1.7,29.99-1.7l7.8-3.78l5.61-0.85L418.61,354.49z"/>
		</g>
		<g>
			<g>
				<path class="st8" d="M374.82,295.63c-8.28-0.58-16.23-3.26-23.38-7.44c-0.26-0.15-1.11-0.42-1.26,0.06
					c-3.02,9.5-3.76,22.3,4.95,29.16c3.8,3,9.23,4.84,14.06,3.8c4.62-1,7.94-4.54,10.08-8.59c3.08-5.82,4.1-12.67,4.14-19.18
					c0-0.63-1.22-1.01-1.64-0.64C379.78,294.53,377.52,295.69,374.82,295.63c-1.2-0.03-0.24,1.17,0.53,1.19
					c3.06,0.07,5.68-1.13,7.96-3.12c-0.55-0.21-1.1-0.43-1.64-0.64c-0.04,5.26-0.75,10.58-2.6,15.52
					c-1.54,4.12-4.02,8.35-8.06,10.45c-4.53,2.35-10.15,1.13-14.17-1.74c-3.8-2.71-5.9-7.06-6.64-11.59
					c-0.92-5.62-0.03-11.41,1.68-16.79c-0.42,0.02-0.84,0.04-1.26,0.06c7.56,4.41,15.97,7.24,24.73,7.85
					C376.54,296.9,375.58,295.68,374.82,295.63z"/>
			</g>
		</g>
		<g>
			<g>
				<path class="st8" d="M396.69,296.84c-2.3-0.18-4.32-1.03-6.2-2.32c-0.28-0.19-1.42-0.55-1.42,0.05c0,9.16,3.03,20.59,12.7,23.91
					c4.36,1.49,9.63,1.11,13.63-1.22c3.77-2.19,6.03-6.08,6.97-10.25c1.23-5.43,0.53-11.21-1.13-16.47
					c-0.15-0.47-1.14-0.79-1.57-0.58c-3.78,1.81-7.68,3.36-11.66,4.65C404.42,295.77,400.52,296.97,396.69,296.84
					c-1.18-0.04,0.06,0.93,0.67,0.95c3.71,0.13,7.45-0.91,10.96-1.99c4.36-1.34,8.62-3.02,12.73-4.99
					c-0.52-0.19-1.05-0.39-1.57-0.58c2.39,7.58,3.16,17.9-2.86,24.09c-3.12,3.21-7.88,4.55-12.27,3.94
					c-4.61-0.64-8.04-3.94-10.17-7.9c-2.52-4.7-3.38-10.2-3.38-15.47c-0.47,0.02-0.95,0.03-1.42,0.05c2.41,1.65,5.05,2.64,7.97,2.86
					C398.54,297.88,397.3,296.89,396.69,296.84z"/>
			</g>
		</g>
		<g>
			<g>
				<path class="st8" d="M347.55,286.93c5.2,3.3,11.05,5.94,16.94,7.72c4.06,1.23,8.99,2.57,13.24,1.68c2.7-0.57,5.4-2.26,7.15-4.41
					c0.39-0.48-0.95-1.72-1.31-1.28c-1.66,2.04-4.15,3.63-6.7,4.23c-4.4,1.04-9.76-0.53-13.94-1.89c-5.4-1.75-10.73-4.18-15.54-7.22
					C346.4,285.13,347.03,286.6,347.55,286.93L347.55,286.93z"/>
			</g>
		</g>
		<g>
			<g>
				<path class="st8" d="M386.61,292.05c3.58,4.69,9.87,5.46,15.28,4.45c7.81-1.46,15.5-4.64,22.63-8.08
					c0.28-0.14-1.24-0.28-1.58-0.11c-6.07,2.93-12.46,5.5-18.98,7.23c-3.66,0.97-7.2,1.61-10.79-0.01c-1.75-0.79-3.54-2-4.72-3.54
					C388.13,291.58,386.66,292.12,386.61,292.05L386.61,292.05z"/>
			</g>
		</g>
		<g>
			<path class="st8" d="M371.53,300.22c-1.11,3.53-3.49,5.93-5.31,5.36c-1.83-0.57-2.41-3.9-1.31-7.44
				c0.39-1.25,0.94-2.36,1.57-3.24c1.77,0.44,3.64,0.79,5.57,1.03C372.17,297.18,372.01,298.68,371.53,300.22z"/>
		</g>
		<g>
			<path class="st8" d="M405.15,305.58c-1.83,0.57-4.21-1.83-5.32-5.36c-0.32-1.03-0.5-2.04-0.55-2.98
				c1.83-0.19,3.98-0.64,6.26-1.26c0.35,0.65,0.66,1.38,0.91,2.17C407.56,301.68,406.98,305,405.15,305.58z"/>
		</g>
		<g>
			<g>
				<path class="st8" d="M428.63,339.59c-0.5-6.31-3.97-11.57-10.57-12.38c-7.74-0.96-14.06,4.22-21.08,6.45
					c-8.4,2.66-17.44,2.33-25.69-0.74c-6.58-2.45-12.57-7.01-19.98-5.54c-6.37,1.26-9.09,6.9-9.33,12.93
					c-0.19,4.81,1,9.6,5.11,12.53c6.66,4.75,15.62,3.65,22.88,1.16c4.27-1.47,8.48-3.36,13-3.95c4.51-0.59,8.85,0.69,13.06,2.19
					c8.51,3.04,18.36,6.42,26.85,1.21C427.82,350.39,428.98,345.02,428.63,339.59c-0.06-0.97-1.83-1.18-1.76-0.07
					c0.28,4.41-0.38,8.99-4.11,11.85c-6.53,5.02-15.68,3.2-22.76,0.67c-3.72-1.33-7.41-2.84-11.33-3.48
					c-3.76-0.61-7.44-0.11-11.07,0.97c-8.09,2.43-15.52,6.42-24.21,4.37c-5.53-1.31-9.19-4.9-9.63-10.64
					c-0.4-5.24,0.81-11.53,6.19-13.75c6.33-2.61,12.34,1.2,17.95,3.66c6.94,3.05,14.28,4.43,21.86,3.68
					c4.34-0.43,8.55-1.67,12.55-3.38c3.66-1.56,7.01-3.72,10.96-4.47c2.93-0.55,6.18-0.47,8.82,1.09c3.33,1.97,4.5,5.78,4.79,9.43
					C426.95,340.49,428.72,340.7,428.63,339.59z"/>
			</g>
		</g>
		<g>
			<path class="st8" d="M356.8,328.4c0,0,2.38,7.13,1.65,13.53c-0.73,6.4-4.21,12.98-4.21,12.98s-12.25-2.19-11.34-15.36
				S356.8,328.4,356.8,328.4z"/>
		</g>
		<g>
			<path class="st8" d="M414.4,328.22c0,0.55-3.47,14.08,2.56,27.06c8.78-2.19,12.25-7.68,10.61-17.74
				C425.92,327.49,414.4,328.22,414.4,328.22z"/>
		</g>
		<g>
			<g>
				<path class="st8" d="M355.39,339.35c0.99,0.67,2.44,0.96,3.55,1.29c2.71,0.81,5.48,1.42,8.26,1.92
					c9.46,1.7,19.15,2.04,28.73,1.31c7.55-0.58,15.04-1.86,22.38-3.7c0.75-0.19-0.36-0.58-0.57-0.65c-0.71-0.24-1.75-0.41-2.5-0.22
					c-17.14,4.3-36.24,6-53.49,1.16c-0.88-0.25-1.58-0.45-2.33-0.73c-0.25-0.09-0.5-0.18-0.74-0.28c-0.26-0.11,0.17,0.13-0.11-0.06
					c-0.63-0.43-1.72-0.53-2.45-0.51C355.84,338.9,354.77,338.93,355.39,339.35L355.39,339.35z"/>
			</g>
		</g>
		<g>
			<g>
				<path class="st8" d="M350.71,321.67c-2.96,0.29-5.96,1.67-8.27,3.48c-5.71,4.46-6.72,11.86-5.9,18.65
					c0.08,0.63,1.86,0.25,1.77-0.45c-0.77-6.34,0.05-13.44,5.34-17.69c1.89-1.52,4.58-2.75,6.81-2.97
					C351.34,322.61,351.93,321.55,350.71,321.67L350.71,321.67z"/>
			</g>
		</g>
		<g>
			<g>
				<path class="st8" d="M422.23,322.8c2.51,0.49,5.02,1.93,6.82,3.72c5.1,5.1,5.03,13.06,3.67,19.64c-0.08,0.4,1.35,1.36,1.4,1.07
					c1.53-7.39,1.06-15.37-4.6-20.91c-2.22-2.17-5.21-4.13-8.32-4.74C420.77,321.49,421.83,322.72,422.23,322.8L422.23,322.8z"/>
			</g>
		</g>
		<g>
			<g>
				<path class="st8" d="M372.78,363.77c6.42-4.94,15.91-7.34,23.44-3.78c1.14,0.54,0.42-0.34-0.2-0.64
					c-8.1-3.82-17.86-1.84-24.84,3.53C371.08,362.96,372.38,364.08,372.78,363.77L372.78,363.77z"/>
			</g>
		</g>
		<g>
			<path class="st8" d="M339.95,271.44c0.72-0.72,1.49-1.41,2.32-2.03c0.84-0.62,1.73-1.18,2.69-1.67c1.92-0.96,4.14-1.51,6.41-1.52
				c1.13,0,2.27,0.13,3.37,0.37c1.1,0.24,2.17,0.59,3.2,0.99c2.05,0.83,3.93,1.92,5.7,3.08c1.76,1.16,3.51,2.28,5.17,3.41
				c1.66,1.13,3.13,2.37,4.46,3.62c1.34,1.24,2.57,2.41,3.85,3.29c0.64,0.46,1.3,0.81,2.1,1.08c0.79,0.25,1.72,0.36,2.82,0.33
				l0.01,0c0.21-0.01,0.39,0.16,0.4,0.38c0,0.08-0.02,0.16-0.06,0.22c-0.64,0.96-1.63,1.74-2.82,2.22
				c-1.19,0.46-2.56,0.61-3.82,0.47c-1.27-0.12-2.47-0.46-3.57-0.89c-1.1-0.43-2.1-0.96-3.04-1.53c-1.88-1.14-3.43-2.51-4.8-3.98
				c-1.37-1.47-2.64-2.95-4.06-4.21c-1.41-1.26-2.86-2.41-4.38-3.36c-1.52-0.95-3.12-1.69-4.83-2.04c-1.71-0.38-3.53-0.32-5.35,0.1
				c-1.82,0.43-3.62,1.23-5.35,2.21l-0.01,0c-0.17,0.1-0.38,0.04-0.48-0.13C339.81,271.72,339.84,271.55,339.95,271.44z"/>
		</g>
		<g>
			<path class="st8" d="M431.2,271.99c-1.73-0.98-3.53-1.78-5.35-2.21c-1.82-0.43-3.64-0.48-5.35-0.1
				c-1.71,0.35-3.31,1.09-4.83,2.04c-1.52,0.95-2.97,2.1-4.38,3.36c-1.42,1.25-2.7,2.74-4.06,4.21c-1.37,1.47-2.92,2.84-4.8,3.98
				c-0.94,0.57-1.94,1.1-3.04,1.53c-1.09,0.43-2.29,0.77-3.57,0.89c-1.26,0.13-2.63-0.01-3.82-0.47c-1.19-0.49-2.18-1.26-2.82-2.22
				c-0.12-0.18-0.07-0.42,0.11-0.54c0.07-0.05,0.15-0.07,0.22-0.06l0.01,0c1.09,0.03,2.02-0.08,2.82-0.33
				c0.79-0.27,1.45-0.62,2.1-1.08c1.28-0.88,2.51-2.06,3.85-3.29c1.33-1.24,2.8-2.49,4.46-3.62c1.66-1.13,3.42-2.24,5.17-3.41
				c1.76-1.16,3.64-2.25,5.7-3.08c1.03-0.41,2.1-0.75,3.2-0.99c1.1-0.24,2.24-0.37,3.37-0.37c2.27,0.01,4.49,0.56,6.41,1.52
				c0.96,0.48,1.85,1.05,2.69,1.67c0.83,0.63,1.6,1.32,2.32,2.03c0.14,0.14,0.14,0.36,0,0.5
				C431.51,272.05,431.34,272.07,431.2,271.99L431.2,271.99z"/>
		</g>
	</g>
	<g>
		<path d="M37.01,137.08c1.19-2.88,3.03-5.53,5.53-7.94c2.5-2.42,5.39-4.51,8.67-6.29c3.28-1.78,6.87-3.17,10.76-4.17
			c3.89-1,7.86-1.56,11.91-1.66c4.04-0.1,8.02,0.3,11.93,1.21c3.91,0.91,7.57,2.42,10.97,4.54c3.4,2.12,6.4,4.88,9,8.27
			c2.6,3.4,4.61,7.52,6.03,12.35c1.08,3.92,1.64,8.08,1.67,12.46c0.03,4.39-0.45,8.78-1.44,13.18c-1,4.4-2.47,8.7-4.41,12.89
			c-1.95,4.19-4.36,8.02-7.25,11.48c-2.88,3.46-6.21,6.46-9.99,9c-3.78,2.54-7.92,4.35-12.43,5.43c-0.57,0.14-1.17-0.54-1.8-2.04
			c-0.63-1.51-1.29-3.52-1.98-6.06c-0.69-2.53-1.37-5.45-2.04-8.76c-0.67-3.31-1.34-6.73-2.01-10.26
			c-0.66-3.53-1.27-7.01-1.81-10.45c-0.54-3.43-1.03-6.55-1.45-9.33c-0.42-2.79-0.77-5.08-1.03-6.9c-0.26-1.81-0.42-2.9-0.46-3.26
			c-0.05-0.44,0.29-0.9,1.04-1.4c0.75-0.5,1.7-0.99,2.86-1.47c1.16-0.48,2.41-0.89,3.77-1.25c1.36-0.35,2.63-0.61,3.83-0.76
			s2.23-0.19,3.08-0.11c0.86,0.08,1.32,0.37,1.38,0.88c0.06,0.51,0.18,1.9,0.36,4.16c0.17,2.27,0.39,4.99,0.64,8.16
			c0.25,3.18,0.53,6.54,0.82,10.08c0.3,3.54,0.63,6.78,1,9.72s0.77,5.38,1.2,7.32c0.43,1.94,0.86,2.88,1.29,2.83
			c0.44-0.05,1.22-0.45,2.34-1.18c1.12-0.73,2.35-1.81,3.69-3.23c1.33-1.42,2.68-3.19,4.03-5.32c1.36-2.12,2.5-4.65,3.42-7.57
			c0.92-2.92,1.52-6.24,1.79-9.96c0.27-3.72,0.05-7.86-0.67-12.42c-0.42-2.75-1.65-5.25-3.71-7.5c-2.05-2.25-4.56-4.02-7.53-5.31
			c-2.96-1.29-6.21-2.06-9.75-2.32c-3.54-0.26-7.06,0.2-10.56,1.38c-3.5,1.18-6.82,3.14-9.94,5.89c-3.12,2.75-5.72,6.44-7.8,11.05
			c-0.24,0.47-0.8,0.53-1.69,0.16c-0.9-0.37-1.97-0.99-3.22-1.86c-1.25-0.87-2.55-1.91-3.88-3.11c-1.33-1.2-2.52-2.45-3.57-3.76
			c-1.05-1.31-1.83-2.55-2.35-3.74C36.76,138.95,36.67,137.93,37.01,137.08z"/>
		<path d="M133.69,132.57c0.16,1.31,0.14,2.57-0.08,3.77c-0.22,1.21-0.6,2.29-1.14,3.24c-0.54,0.95-1.22,1.76-2.02,2.41
			c-0.8,0.65-1.68,1.04-2.62,1.16c-0.94,0.12-1.85-0.06-2.72-0.54c-0.87-0.48-1.64-1.18-2.31-2.09c-0.67-0.91-1.24-1.95-1.72-3.1
			c-0.48-1.16-0.8-2.39-0.96-3.7c-0.16-1.31-0.08-2.55,0.25-3.74c0.33-1.18,0.83-2.24,1.48-3.17c0.66-0.93,1.45-1.69,2.37-2.29
			c0.92-0.59,1.85-0.95,2.8-1.07c1.89-0.24,3.39,0.57,4.51,2.42C132.64,127.73,133.37,129.96,133.69,132.57z M120.82,148.13
			c-0.05-0.36,0.3-0.7,1.03-1.01c0.74-0.31,1.68-0.58,2.83-0.8c1.15-0.22,2.39-0.36,3.71-0.41c1.32-0.06,2.56-0.04,3.71,0.03
			c1.15,0.08,2.11,0.22,2.87,0.41c0.76,0.2,1.17,0.48,1.21,0.84c-0.03,0.37,0.01,1.71,0.12,4.02c0.1,2.31,0.24,5.13,0.4,8.47
			c0.16,3.34,0.31,6.91,0.46,10.73c0.15,3.82,0.28,7.36,0.39,10.63c0.11,3.27,0.21,6.06,0.28,8.37s0.09,3.62,0.05,3.92
			c-0.09,0.45-0.7,0.88-1.83,1.28c-1.13,0.4-2.37,0.68-3.71,0.85c-1.34,0.17-2.59,0.21-3.75,0.14c-1.15-0.08-1.8-0.36-1.93-0.86
			c-0.11-0.28-0.3-1.55-0.59-3.8c-0.28-2.25-0.64-4.97-1.08-8.16c-0.44-3.19-0.87-6.66-1.31-10.4c-0.43-3.74-0.86-7.3-1.29-10.68
			c-0.42-3.38-0.77-6.3-1.05-8.78C121.09,150.46,120.91,148.86,120.82,148.13z"/>
		<path d="M177.77,146.18c0.16,1.31,0.34,2.98,0.52,5.02c0.18,2.04,0.38,4.32,0.58,6.84c0.21,2.52,0.39,5.17,0.55,7.95
			c0.17,2.78,0.3,5.51,0.42,8.19c0.12,2.68,0.22,5.25,0.3,7.71c0.09,2.46,0.17,4.61,0.25,6.44c0.03,0.81-0.52,1.47-1.63,1.98
			c-1.12,0.51-2.37,0.85-3.74,1.02c-1.38,0.17-2.65,0.17-3.82-0.02c-1.17-0.19-1.79-0.6-1.87-1.26c-0.26-2.1-0.49-4.77-0.67-7.99
			c-0.64,1.41-1.35,2.79-2.14,4.14c-0.79,1.35-1.67,2.53-2.65,3.54c-0.98,1.01-2.08,1.79-3.3,2.35c-1.22,0.56-2.5,0.81-3.83,0.76
			c-2.08-0.11-3.85-0.7-5.31-1.77c-1.46-1.07-2.62-2.53-3.48-4.38c-0.86-1.85-1.46-4.02-1.81-6.52c-0.35-2.5-0.42-5.24-0.2-8.22
			c0.14-2.97,0.7-5.62,1.66-7.95c0.96-2.33,2.16-4.27,3.58-5.82c1.43-1.54,2.96-2.68,4.61-3.4c1.64-0.72,3.25-1.03,4.81-0.93
			c1.92,0.05,3.63,0.72,5.12,2.01c-0.46-1.93-1.12-3.49-1.97-4.68c-0.85-1.18-1.99-1.89-3.42-2.12c-1.43-0.23-3.19,0.01-5.28,0.72
			c-2.09,0.71-4.61,1.94-7.55,3.71c-0.75,0.46-1.49,0.19-2.21-0.83c-0.72-1.02-1.28-2.29-1.7-3.83c-0.41-1.53-0.61-3.06-0.57-4.58
			c0.03-1.51,0.42-2.54,1.16-3.08c0.88-0.63,1.76-1.25,2.64-1.88c0.88-0.63,1.89-1.23,3.04-1.82c1.14-0.59,2.51-1.13,4.11-1.62
			c1.6-0.49,3.59-0.96,5.96-1.41c2.39-0.37,4.6-0.34,6.65,0.11c2.05,0.44,3.86,1.21,5.43,2.31c1.58,1.09,2.87,2.44,3.88,4.05
			C176.91,142.55,177.54,144.29,177.77,146.18z M159.74,180.53c0.6,0.07,1.19-0.33,1.78-1.22c0.59-0.88,1.1-1.98,1.52-3.29
			c0.43-1.31,0.72-2.75,0.9-4.32c0.17-1.57,0.21-3.01,0.12-4.33c-0.09-1.32-0.38-2.4-0.85-3.27c-0.48-0.86-1.16-1.31-2.05-1.35
			c-0.88,0.04-1.64,0.48-2.27,1.34c-0.63,0.85-1.14,1.93-1.53,3.23c-0.39,1.3-0.65,2.72-0.79,4.25c-0.14,1.53-0.11,2.95,0.09,4.25
			c0.2,1.3,0.54,2.4,1.02,3.3C158.16,180.03,158.85,180.5,159.74,180.53z"/>
		<path d="M241.27,127.59c2.76-0.35,5.1,0.38,7.02,2.16c1.92,1.79,3.51,4.17,4.77,7.15c1.26,2.98,2.25,6.35,2.99,10.14
			c0.73,3.78,1.29,7.51,1.68,11.19c0.39,3.68,0.68,7.07,0.89,10.18c0.21,3.11,0.41,5.46,0.61,7.06c0.09,0.73-0.41,1.32-1.49,1.79
			c-1.09,0.47-2.32,0.81-3.69,1.02c-1.38,0.21-2.66,0.28-3.85,0.21c-1.19-0.07-1.85-0.32-1.97-0.75c-0.38-1.28-0.76-2.98-1.14-5.11
			c-0.38-2.13-0.77-4.4-1.19-6.82c-0.41-2.42-0.85-4.85-1.3-7.3c-0.46-2.45-0.97-4.65-1.55-6.61c-0.58-1.96-1.24-3.53-1.98-4.73
			c-0.74-1.2-1.55-1.78-2.43-1.74c-1.39,0.1-2.5,0.91-3.35,2.41c-0.84,1.51-1.49,3.38-1.95,5.61c-0.46,2.23-0.76,4.67-0.91,7.31
			c-0.15,2.64-0.23,5.12-0.23,7.44c0,2.32,0.03,4.33,0.09,6.02c0.06,1.69,0.12,2.68,0.15,2.97l0.21,1.63
			c0.09,0.73-0.41,1.32-1.49,1.79c-1.09,0.47-2.32,0.81-3.69,1.02c-1.38,0.21-2.66,0.28-3.85,0.21c-1.19-0.07-1.85-0.32-1.98-0.75
			c-0.38-1.28-0.76-2.98-1.14-5.11c-0.38-2.13-0.77-4.4-1.19-6.82c-0.41-2.42-0.87-4.85-1.36-7.3c-0.49-2.45-1.03-4.65-1.6-6.6
			c-0.58-1.96-1.24-3.53-1.98-4.73c-0.74-1.2-1.55-1.78-2.43-1.74c-1.17,0.07-2.21,0.76-3.12,2.05c-0.91,1.29-1.68,2.96-2.31,4.99
			c-0.63,2.03-1.16,4.31-1.58,6.84c-0.42,2.53-0.75,5-0.98,7.43c-0.24,2.43-0.4,4.72-0.47,6.86c-0.08,2.15-0.14,3.89-0.19,5.22
			c0.13,1.02,0.23,2.02,0.32,3c0.09,0.98,0.15,1.92,0.19,2.8c0.09,0.73-0.47,1.31-1.68,1.76c-1.21,0.45-2.57,0.73-4.08,0.84
			c-1.51,0.12-2.93,0.09-4.25-0.08c-1.32-0.17-2.02-0.5-2.08-1.01c-0.61-4.27-1.39-9.16-2.34-14.64c-0.95-5.49-1.93-11-2.96-16.56
			c-1.03-5.55-1.99-10.85-2.88-15.9c-0.89-5.05-1.55-9.25-1.97-12.59c-0.08-0.65,0.74-1.42,2.48-2.3c1.73-0.88,3.66-1.68,5.79-2.39
			c2.12-0.71,4.09-1.19,5.9-1.46c1.81-0.26,2.76-0.07,2.84,0.58c0.29,2.32,0.59,5.01,0.9,8.07c0.31,3.06,0.61,6.3,0.89,9.74
			c0.85-2.02,1.79-3.97,2.81-5.83c1.02-1.86,2.14-3.53,3.35-5.01c1.21-1.48,2.52-2.7,3.91-3.64c1.39-0.95,2.92-1.53,4.59-1.74
			c1.6-0.2,3.04,0,4.34,0.62c1.29,0.61,2.46,1.55,3.51,2.82c1.04,1.27,1.95,2.78,2.73,4.53c0.77,1.75,1.48,3.69,2.11,5.82
			c1.61-3,3.53-5.66,5.75-7.97C235.69,129.3,238.29,127.96,241.27,127.59z"/>
		<path d="M278.89,118.77c3.34-0.42,6.18,0.22,8.54,1.92c2.35,1.7,4.32,3.9,5.92,6.61c1.59,2.71,2.83,5.67,3.71,8.88
			c0.88,3.21,1.49,6.12,1.82,8.73s0.31,5.68-0.06,9.19c-0.37,3.51-1.16,6.9-2.38,10.15c-1.21,3.25-2.87,6.08-4.97,8.48
			c-2.1,2.4-4.67,3.79-7.72,4.18s-5.77-0.01-8.17-1.19c-2.4-1.17-4.47-3-6.22-5.47c-1.75-2.47-3.2-5.5-4.35-9.08
			c-1.15-3.58-2-7.58-2.56-12.01c-0.56-4.43-0.45-8.44,0.31-12.04c0.76-3.6,1.96-6.72,3.58-9.36c1.62-2.64,3.54-4.72,5.74-6.25
			C274.3,119.98,276.56,119.07,278.89,118.77z M284.82,158.08c0.94-0.12,1.71-0.88,2.31-2.28s1.03-3.13,1.28-5.2
			c0.26-2.06,0.33-4.25,0.23-6.56c-0.11-2.31-0.41-4.43-0.91-6.36c-0.5-1.93-1.21-3.46-2.13-4.6c-0.92-1.14-2.06-1.58-3.43-1.34
			c-1.3,0.24-2.3,1.06-3.01,2.48c-0.71,1.42-1.17,3.14-1.4,5.15c-0.23,2.02-0.22,4.16,0.03,6.41c0.25,2.26,0.67,4.32,1.28,6.2
			c0.6,1.88,1.4,3.4,2.4,4.57C282.47,157.73,283.58,158.24,284.82,158.08z"/>
		<path d="M329.29,110.46c2.83-0.36,5.18,0.47,7.06,2.49c1.87,2.02,3.43,4.71,4.67,8.1c1.24,3.39,2.19,7.19,2.87,11.42
			c0.68,4.23,1.2,8.37,1.56,12.42c0.36,4.05,0.64,7.76,0.84,11.12c0.2,3.37,0.41,5.89,0.62,7.56c0.08,0.65-0.42,1.21-1.5,1.68
			c-1.08,0.47-2.32,0.81-3.69,1.02c-1.38,0.21-2.66,0.28-3.85,0.21c-1.19-0.07-1.85-0.32-1.97-0.75c-0.38-1.28-0.76-2.98-1.14-5.11
			c-0.38-2.13-0.77-4.4-1.19-6.82c-0.41-2.42-0.85-4.85-1.3-7.3c-0.46-2.45-0.97-4.65-1.55-6.61c-0.58-1.96-1.24-3.53-1.98-4.73
			c-0.74-1.2-1.55-1.78-2.43-1.74c-1.17,0.08-2.18,0.7-3.03,1.87c-0.85,1.18-1.59,2.73-2.24,4.65c-0.64,1.92-1.17,4.06-1.58,6.39
			c-0.41,2.34-0.76,4.71-1.04,7.1c0.17,3.74,0.39,7.24,0.65,10.48c0.26,3.25,0.47,6.08,0.62,8.5c0.1,0.8-0.46,1.4-1.67,1.81
			c-1.21,0.41-2.58,0.67-4.09,0.79c-1.51,0.12-2.93,0.09-4.25-0.07c-1.32-0.17-2.02-0.5-2.08-1.01c-0.36-2.83-0.77-5.97-1.24-9.41
			c-0.47-3.44-0.95-7-1.45-10.66c-0.5-3.66-1-7.38-1.51-11.15c-0.51-3.77-1-7.4-1.48-10.88c-0.47-3.48-0.92-6.73-1.33-9.73
			c-0.42-3.01-0.76-5.64-1.04-7.89c-0.05-0.36,0.35-0.78,1.18-1.25c0.83-0.47,1.9-0.9,3.19-1.29c1.29-0.38,2.72-0.73,4.28-1.03
			c1.56-0.31,3-0.5,4.32-0.6c1.32-0.09,2.43-0.08,3.33,0.02c0.9,0.11,1.34,0.39,1.32,0.83c-0.04,1.48-0.04,3.09,0,4.81
			c0.03,1.73,0.06,3.55,0.08,5.47c1.57-2.78,3.33-5.18,5.29-7.19S326.74,110.77,329.29,110.46z"/>
		<path d="M370.71,94.08c-0.08-0.65,0.23-1.26,0.93-1.83c0.7-0.57,1.62-1.03,2.75-1.4c1.13-0.36,2.39-0.67,3.76-0.91
			c1.37-0.24,2.65-0.33,3.84-0.26c1.19,0.07,2.19,0.26,3,0.56c0.81,0.3,1.22,0.79,1.23,1.45c0.12,2.13,0.32,5.03,0.6,8.72
			c0.28,3.69,0.62,7.74,1.03,12.15c0.41,4.41,0.84,9.04,1.3,13.89c0.46,4.85,0.92,9.49,1.36,13.94c0.45,4.44,0.86,8.5,1.25,12.18
			c0.39,3.68,0.71,6.57,0.98,8.67c0.09,0.73-0.43,1.4-1.57,2.02c-1.14,0.62-2.45,1.08-3.92,1.38c-1.48,0.3-2.83,0.41-4.05,0.34
			c-1.22-0.07-1.88-0.46-1.97-1.19c-0.19-1.52-0.43-3.25-0.7-5.17c-0.28-1.92-0.6-4.04-0.96-6.35c-0.58,1.84-1.29,3.65-2.14,5.41
			c-0.85,1.77-1.87,3.32-3.07,4.65c-1.2,1.33-2.56,2.35-4.1,3.06c-1.54,0.71-3.31,0.97-5.32,0.78c-1.87-0.21-3.71-0.93-5.53-2.18
			c-1.82-1.25-3.37-2.93-4.67-5.06c-1.3-2.12-2.28-4.65-2.95-7.6c-0.67-2.94-0.78-6.21-0.35-9.8c0.43-3.59,1.11-6.85,2.04-9.77
			c0.92-2.92,2.09-5.39,3.5-7.41c1.41-2.02,3.08-3.5,5.03-4.45c1.95-0.94,4.15-1.28,6.62-1c1.28,0.21,2.43,0.6,3.46,1.17
			c1.03,0.57,2.01,1.32,2.94,2.23c-0.83-5.43-1.61-10.6-2.34-15.53C371.96,101.85,371.3,97.62,370.71,94.08z M367.49,155.67
			c1.06,0.24,1.97-0.14,2.74-1.12c0.76-0.98,1.34-2.25,1.73-3.81c0.39-1.56,0.64-3.29,0.73-5.18c0.09-1.89,0.04-3.67-0.17-5.34
			c-0.21-1.67-0.57-3.06-1.08-4.18c-0.51-1.12-1.14-1.74-1.89-1.86c-1.04-0.09-1.95,0.34-2.71,1.28c-0.77,0.95-1.4,2.19-1.91,3.73
			c-0.51,1.54-0.85,3.22-1.03,5.05c-0.18,1.83-0.18,3.56-0.01,5.2c0.17,1.64,0.55,3.05,1.14,4.23
			C365.62,154.84,366.44,155.51,367.49,155.67z"/>
		<path d="M429.25,125.01c0.46,1.34,1,3.38,1.6,6.11c0.6,2.73,1.18,5.62,1.75,8.69c0.57,3.06,1.13,6.04,1.67,8.92
			c0.55,2.88,1,5.15,1.35,6.8c0.18,0.86-0.4,1.64-1.76,2.32c-1.35,0.68-2.9,1.16-4.63,1.41c-1.74,0.25-3.36,0.29-4.86,0.11
			c-1.5-0.18-2.3-0.71-2.41-1.58c-0.14-1.09-0.24-2.51-0.32-4.28c-0.07-1.76-0.18-3.66-0.33-5.71c-0.15-2.05-0.33-4.11-0.55-6.18
			c-0.22-2.07-0.53-3.92-0.92-5.53c-0.39-1.61-0.9-2.89-1.53-3.85c-0.64-0.95-1.39-1.38-2.26-1.27c-1.02,0.13-1.82,1.04-2.42,2.74
			c-0.6,1.7-1.05,3.71-1.34,6.03c-0.3,2.32-0.48,4.73-0.53,7.2c-0.06,2.48-0.05,4.56,0.01,6.25c0.09,1.32,0.19,2.58,0.31,3.78
			c0.11,1.2,0.23,2.31,0.36,3.33c0.09,0.73-0.47,1.28-1.67,1.65c-1.21,0.37-2.56,0.58-4.07,0.62c-1.51,0.04-2.89-0.1-4.15-0.42
			c-1.26-0.32-1.93-0.85-2.02-1.57c-0.26-2.1-0.63-4.99-1.09-8.66c-0.46-3.67-1.01-7.71-1.63-12.13c-0.63-4.42-1.28-9.02-1.95-13.81
			c-0.67-4.78-1.34-9.38-2.01-13.8c-0.67-4.41-1.3-8.45-1.91-12.1c-0.61-3.65-1.11-6.52-1.52-8.6c-0.16-0.64,0.12-1.21,0.84-1.71
			c0.71-0.49,1.64-0.91,2.78-1.23c1.14-0.33,2.4-0.56,3.79-0.7c1.38-0.14,2.67-0.15,3.87-0.04c1.19,0.11,2.2,0.35,3.02,0.73
			c0.82,0.38,1.27,0.89,1.36,1.54c0.2,2.19,0.42,4.69,0.66,7.5c0.24,2.81,0.51,5.8,0.79,8.97c0.29,3.17,0.59,6.45,0.9,9.84
			c0.32,3.39,0.61,6.77,0.88,10.12c0.43-1.31,0.94-2.68,1.53-4.12c0.59-1.44,1.27-2.78,2.04-4.02c0.77-1.24,1.59-2.28,2.48-3.13
			c0.89-0.85,1.88-1.34,2.97-1.48c1.53-0.19,2.86,0.03,4.01,0.66c1.15,0.63,2.14,1.5,2.98,2.61c0.84,1.11,1.59,2.38,2.25,3.81
			C428.23,122.28,428.79,123.67,429.25,125.01z"/>
		<path d="M472.51,109.18c0.16,1.31,0.34,2.98,0.52,5.02c0.18,2.04,0.38,4.32,0.58,6.84c0.21,2.52,0.39,5.17,0.56,7.95
			c0.16,2.78,0.3,5.51,0.42,8.19c0.12,2.68,0.22,5.25,0.3,7.71c0.09,2.46,0.17,4.61,0.26,6.44c0.03,0.81-0.52,1.47-1.63,1.98
			c-1.12,0.51-2.37,0.85-3.74,1.02c-1.38,0.17-2.65,0.17-3.82-0.02c-1.17-0.19-1.79-0.6-1.87-1.26c-0.26-2.1-0.49-4.77-0.67-7.99
			c-0.63,1.41-1.35,2.79-2.14,4.14c-0.79,1.35-1.67,2.53-2.65,3.54c-0.98,1.01-2.08,1.79-3.3,2.35c-1.22,0.56-2.5,0.81-3.83,0.76
			c-2.08-0.11-3.85-0.7-5.31-1.77c-1.46-1.07-2.62-2.53-3.48-4.38c-0.86-1.85-1.46-4.02-1.81-6.52c-0.35-2.5-0.42-5.24-0.2-8.22
			c0.14-2.97,0.7-5.62,1.66-7.95c0.96-2.33,2.16-4.27,3.58-5.82c1.43-1.54,2.96-2.68,4.61-3.4c1.64-0.72,3.24-1.03,4.81-0.93
			c1.92,0.05,3.63,0.72,5.12,2.01c-0.46-1.93-1.12-3.49-1.97-4.68c-0.85-1.18-1.99-1.89-3.42-2.12c-1.43-0.23-3.19,0.01-5.27,0.72
			c-2.09,0.71-4.61,1.94-7.56,3.71c-0.75,0.46-1.49,0.19-2.21-0.83c-0.72-1.02-1.28-2.29-1.7-3.83c-0.41-1.53-0.61-3.06-0.57-4.58
			c0.03-1.51,0.42-2.54,1.16-3.08c0.88-0.63,1.76-1.25,2.64-1.88c0.88-0.63,1.89-1.23,3.04-1.82c1.14-0.59,2.51-1.13,4.11-1.62
			c1.6-0.49,3.58-0.96,5.96-1.41c2.39-0.37,4.6-0.34,6.65,0.11c2.05,0.44,3.86,1.21,5.43,2.31c1.58,1.09,2.87,2.44,3.88,4.05
			C471.65,105.55,472.28,107.3,472.51,109.18z M454.48,143.53c0.6,0.07,1.19-0.33,1.78-1.22c0.59-0.88,1.1-1.98,1.52-3.29
			c0.43-1.31,0.72-2.75,0.9-4.32c0.17-1.57,0.21-3.01,0.12-4.33c-0.09-1.32-0.38-2.4-0.85-3.27c-0.48-0.86-1.16-1.31-2.05-1.35
			c-0.88,0.04-1.64,0.48-2.27,1.34c-0.63,0.85-1.14,1.93-1.53,3.23c-0.39,1.3-0.65,2.72-0.79,4.25c-0.14,1.53-0.11,2.95,0.09,4.25
			c0.2,1.3,0.54,2.4,1.02,3.3C452.9,143.03,453.59,143.5,454.48,143.53z"/>
		<path d="M505.74,88.31c2.83-0.36,5.18,0.47,7.06,2.49c1.88,2.02,3.43,4.71,4.67,8.1c1.24,3.39,2.19,7.19,2.87,11.42
			c0.68,4.23,1.2,8.37,1.56,12.42c0.36,4.05,0.64,7.76,0.84,11.12c0.2,3.37,0.41,5.89,0.62,7.56c0.08,0.65-0.42,1.21-1.5,1.68
			c-1.08,0.47-2.32,0.81-3.69,1.02c-1.38,0.21-2.66,0.28-3.85,0.21c-1.19-0.07-1.85-0.32-1.97-0.75c-0.38-1.28-0.76-2.98-1.14-5.11
			c-0.38-2.13-0.77-4.4-1.19-6.82c-0.41-2.42-0.85-4.85-1.3-7.3c-0.46-2.45-0.97-4.65-1.55-6.61c-0.58-1.96-1.24-3.53-1.98-4.73
			c-0.74-1.2-1.55-1.78-2.43-1.74c-1.17,0.07-2.18,0.7-3.03,1.87c-0.85,1.18-1.59,2.73-2.24,4.65c-0.64,1.92-1.17,4.06-1.58,6.39
			c-0.41,2.34-0.75,4.71-1.04,7.1c0.17,3.74,0.39,7.24,0.65,10.48c0.26,3.25,0.47,6.08,0.62,8.5c0.1,0.8-0.46,1.4-1.67,1.81
			c-1.21,0.41-2.58,0.67-4.09,0.79c-1.51,0.12-2.93,0.09-4.25-0.07c-1.33-0.17-2.02-0.5-2.08-1.01c-0.36-2.83-0.77-5.97-1.24-9.41
			c-0.47-3.44-0.95-7-1.45-10.66c-0.5-3.66-1-7.38-1.51-11.15c-0.51-3.77-1-7.4-1.48-10.88c-0.47-3.48-0.92-6.73-1.33-9.73
			c-0.42-3.01-0.76-5.64-1.04-7.89c-0.05-0.36,0.35-0.78,1.18-1.25c0.83-0.47,1.9-0.9,3.19-1.29c1.29-0.38,2.71-0.73,4.28-1.03
			c1.56-0.31,3-0.5,4.32-0.6c1.32-0.09,2.43-0.08,3.33,0.03c0.9,0.11,1.34,0.38,1.32,0.83c-0.04,1.48-0.04,3.09,0,4.81
			c0.03,1.73,0.06,3.55,0.08,5.47c1.57-2.78,3.33-5.18,5.29-7.19C500.95,89.79,503.2,88.62,505.74,88.31z"/>
		<path d="M547.17,71.93c-0.08-0.65,0.23-1.26,0.93-1.83c0.7-0.57,1.62-1.03,2.76-1.4c1.13-0.36,2.39-0.67,3.76-0.91
			c1.37-0.24,2.65-0.33,3.84-0.26c1.19,0.07,2.19,0.26,3,0.56c0.81,0.3,1.22,0.79,1.23,1.45c0.12,2.13,0.32,5.03,0.6,8.72
			c0.28,3.69,0.62,7.74,1.03,12.15c0.41,4.41,0.84,9.04,1.3,13.89c0.46,4.85,0.92,9.49,1.36,13.94c0.45,4.44,0.86,8.5,1.25,12.18
			c0.39,3.68,0.71,6.57,0.98,8.67c0.09,0.73-0.43,1.4-1.57,2.02c-1.14,0.62-2.45,1.08-3.92,1.38c-1.48,0.3-2.83,0.41-4.05,0.34
			c-1.23-0.07-1.88-0.46-1.97-1.19c-0.19-1.52-0.43-3.25-0.71-5.17c-0.28-1.92-0.6-4.04-0.96-6.35c-0.58,1.84-1.29,3.65-2.14,5.41
			c-0.85,1.77-1.87,3.32-3.07,4.64c-1.2,1.33-2.56,2.35-4.1,3.06c-1.53,0.71-3.31,0.97-5.32,0.78c-1.87-0.21-3.71-0.93-5.53-2.18
			c-1.81-1.25-3.37-2.93-4.67-5.06c-1.3-2.12-2.28-4.65-2.95-7.6c-0.66-2.94-0.78-6.21-0.34-9.8c0.43-3.59,1.11-6.85,2.04-9.77
			c0.92-2.92,2.09-5.39,3.5-7.41c1.41-2.02,3.08-3.5,5.03-4.45c1.95-0.94,4.16-1.28,6.62-1c1.28,0.21,2.44,0.6,3.47,1.17
			c1.03,0.57,2.01,1.32,2.93,2.23c-0.83-5.43-1.61-10.6-2.34-15.53C548.42,79.7,547.75,75.47,547.17,71.93z M543.94,133.52
			c1.06,0.24,1.97-0.14,2.74-1.12c0.76-0.98,1.34-2.25,1.73-3.81c0.39-1.56,0.64-3.29,0.73-5.18s0.04-3.67-0.17-5.34
			c-0.21-1.67-0.57-3.06-1.08-4.18c-0.51-1.11-1.14-1.74-1.89-1.86c-1.05-0.09-1.95,0.34-2.72,1.28c-0.77,0.95-1.4,2.19-1.91,3.73
			c-0.51,1.54-0.85,3.22-1.03,5.05c-0.18,1.83-0.18,3.56-0.01,5.2c0.17,1.64,0.55,3.05,1.14,4.23
			C542.07,132.69,542.89,133.36,543.94,133.52z"/>
	</g>
	<g>
		<path d="M409.4,251.07c0.15-3.49,0.23-7.39,0.25-11.7c0.01-4.32,0-8.83-0.04-13.55c-0.04-4.71-0.08-9.49-0.14-14.31
			c-0.05-4.82-0.06-9.43-0.02-13.83c0.04-4.39,0.15-8.46,0.35-12.21c0.19-3.75,0.5-6.9,0.91-9.46c0.18-0.91,0.91-1.83,2.2-2.77
			c1.28-0.94,2.7-1.72,4.24-2.36c1.54-0.64,3.03-1.01,4.45-1.11c1.43-0.1,2.34,0.26,2.74,1.09c0.97,1.87,2.1,4.38,3.38,7.54
			c1.28,3.16,2.52,6.29,3.72,9.38c1.34,3.59,2.76,7.33,4.28,11.19c0.91-4.47,1.81-8.78,2.69-12.95c0.73-3.56,1.51-7.2,2.34-10.91
			c0.82-3.72,1.53-6.76,2.12-9.12c0.19-0.83,0.95-1.54,2.28-2.11c1.33-0.57,2.77-0.97,4.33-1.21c1.56-0.23,3-0.23,4.32,0.01
			c1.32,0.24,2.11,0.79,2.36,1.64c0.67,2.42,1.5,5.47,2.48,9.15c0.98,3.68,2.04,7.73,3.19,12.16c1.15,4.43,2.35,9.04,3.62,13.82
			c1.26,4.78,2.51,9.44,3.74,13.97c1.23,4.53,2.41,8.79,3.54,12.78c1.13,3.99,2.13,7.4,3,10.24c0.13,0.5-0.13,1.14-0.81,1.93
			c-0.68,0.79-1.57,1.6-2.68,2.44c-1.11,0.84-2.34,1.66-3.68,2.45c-1.34,0.79-2.61,1.41-3.8,1.86c-1.2,0.44-2.26,0.67-3.18,0.68
			c-0.92,0-1.46-0.35-1.63-1.07c-0.39-1.35-0.85-3.08-1.37-5.19c-0.52-2.11-1.07-4.42-1.64-6.93c-0.57-2.51-1.16-5.13-1.76-7.86
			c-0.6-2.73-1.18-5.42-1.73-8.08c-1.37-6.17-2.75-12.78-4.15-19.84c-0.69,4.51-1.33,8.8-1.93,12.85
			c-0.52,3.46-1.05,6.94-1.57,10.43c-0.52,3.49-0.92,6.22-1.19,8.17c-0.07,0.6-0.56,1.12-1.46,1.57c-0.9,0.44-1.93,0.78-3.08,1
			c-1.15,0.22-2.23,0.3-3.23,0.24c-1-0.06-1.69-0.36-2.05-0.9c-0.72-1.02-1.61-2.56-2.68-4.64c-1.07-2.08-2.15-4.16-3.22-6.23
			c-1.19-2.43-2.48-5.07-3.87-7.92c0.19,6.25,0.37,12.09,0.54,17.52c0.07,2.35,0.15,4.7,0.22,7.05c0.07,2.35,0.15,4.61,0.24,6.77
			c0.09,2.16,0.17,4.13,0.24,5.89c0.07,1.76,0.14,3.19,0.21,4.29c0.02,0.73-0.39,1.28-1.23,1.65c-0.84,0.36-1.88,0.6-3.12,0.72
			c-1.24,0.12-2.61,0.11-4.1-0.04c-1.49-0.14-2.89-0.41-4.19-0.8c-1.3-0.39-2.38-0.86-3.22-1.42
			C409.74,252.47,409.34,251.82,409.4,251.07z"/>
		<path d="M512.2,191.26c1.05,1.93,1.69,3.96,1.92,6.07c0.23,2.11,0.3,4.06,0.23,5.83c-0.11,2.08-0.37,4.14-0.77,6.18l-16.63,6.74
			c0.69,1.39,1.51,2.61,2.45,3.67c0.94,1.06,2.04,1.87,3.29,2.41c1.25,0.55,2.64,0.76,4.17,0.64c1.54-0.12,3.24-0.63,5.12-1.53
			c0.42-0.2,0.88-0.04,1.39,0.49c0.51,0.53,0.96,1.21,1.36,2.04c0.4,0.83,0.67,1.65,0.8,2.44c0.14,0.8,0.04,1.36-0.29,1.7
			c-3.57,3.25-7.24,5.32-11.01,6.19c-3.76,0.88-7.27,0.86-10.52-0.06c-3.25-0.92-6.07-2.63-8.45-5.14c-2.38-2.5-3.95-5.59-4.7-9.26
			c-0.93-4.46-1.06-8.75-0.4-12.89c0.66-4.14,1.83-7.86,3.52-11.17s3.77-6.08,6.26-8.31c2.49-2.23,5.06-3.64,7.71-4.23
			c2.65-0.59,5.26-0.27,7.81,0.96C508.03,185.26,510.27,187.67,512.2,191.26z M504.81,203.8c0.19-2.02,0.18-3.82-0.02-5.42
			c-0.16-1.31-0.52-2.5-1.06-3.57c-0.54-1.07-1.42-1.46-2.64-1.16c-1.14,0.29-2.14,0.88-2.99,1.76c-0.85,0.88-1.52,1.96-2.03,3.24
			c-0.5,1.28-0.86,2.73-1.06,4.34c-0.2,1.61-0.24,3.22-0.11,4.83L504.81,203.8z"/>
		<path d="M514.64,162.3c-0.07-0.58,0.59-1.05,1.98-1.41c1.39-0.36,2.91-0.59,4.56-0.68c1.65-0.1,3.19-0.03,4.62,0.2
			c1.43,0.23,2.14,0.6,2.13,1.12c0.05,0.36,0.12,1.7,0.23,4.01c0.1,2.31,0.25,5.1,0.44,8.35c0.19,3.26,0.39,6.77,0.6,10.55
			c0.21,3.77,0.4,7.27,0.54,10.5c0.15,3.23,0.27,5.98,0.37,8.25c0.1,2.27,0.13,3.56,0.1,3.86c-0.02,0.45-0.52,0.84-1.51,1.19
			c-0.99,0.35-2.08,0.59-3.28,0.74c-1.2,0.15-2.3,0.18-3.31,0.08s-1.58-0.35-1.7-0.78c-0.11-0.28-0.3-1.53-0.58-3.74
			c-0.28-2.21-0.62-4.9-1.01-8.06s-0.83-6.59-1.29-10.29c-0.46-3.7-0.9-7.21-1.32-10.51c-0.42-3.3-0.76-6.17-1.03-8.61
			C514.91,164.61,514.73,163.02,514.64,162.3z M531.36,221.44c0.26,2.09-0.09,4-1.05,5.74c-0.96,1.73-2.24,2.7-3.84,2.9
			c-1.53,0.19-2.89-0.52-4.08-2.12c-1.2-1.61-1.93-3.46-2.19-5.55s0.22-3.95,1.46-5.57c1.24-1.62,2.65-2.53,4.25-2.73
			c1.53-0.19,2.75,0.46,3.68,1.96C530.5,217.55,531.1,219.35,531.36,221.44z"/>
	</g>
</g>
</svg>
