<svg xmlns="http://www.w3.org/2000/svg" viewBox="0 0 48 48"><path d="M24 .5C11.04.5.5 11.04.5 24S11.04 47.5 24 47.5 47.5 36.96 47.5 24 36.96.5 24 .5zm0 44C12.7 44.5 3.5 35.3 3.5 24S12.7 3.5 24 3.5 44.5 12.7 44.5 24 35.3 44.5 24 44.5z"/><path d="M34.52 29.29H13.48c-.83 0-1.5.67-1.5 1.5 0 1.49.67 3.03 2 4.58 2.48 2.89 6.13 4.55 10.02 4.55s7.54-1.66 10.01-4.55c1.33-1.55 2-3.1 2-4.58.01-.83-.66-1.5-1.49-1.5zm-2.78 4.13c-1.91 2.23-4.73 3.5-7.74 3.5s-5.83-1.28-7.74-3.5c-.33-.39-.61-.77-.81-1.13h17.1c-.21.36-.48.74-.81 1.13zm3.86-18.03-5-2a1.5 1.5 0 1 0-1.11 2.79l5 2c.18.07.37.11.56.11a1.504 1.504 0 0 0 .55-2.9zm-22.09 2.78 5-2c.77-.31 1.14-1.18.84-1.95s-1.18-1.14-1.95-.84l-5 2c-.77.31-1.14 1.18-.84 1.95.23.59.8.94 1.39.94.19.01.38-.02.56-.1zm19.03 1.71c-1.93 0-3.5 1.57-3.5 3.5a5.975 5.975 0 0 1 7 0c0-1.93-1.56-3.5-3.5-3.5zm-13.58 3.5c0-1.93-1.57-3.5-3.5-3.5s-3.5 1.57-3.5 3.5a5.975 5.975 0 0 1 7 0z"/></svg>