<svg xmlns="http://www.w3.org/2000/svg" viewBox="0 0 48 48"><circle cx="15.46" cy="20.08" r="3.5"/><circle cx="32.54" cy="20.08" r="3.5"/><path d="M24 .5C11.04.5.5 11.04.5 24S11.04 47.5 24 47.5 47.5 36.96 47.5 24 36.96.5 24 .5zm0 44C12.7 44.5 3.5 35.3 3.5 24S12.7 3.5 24 3.5 44.5 12.7 44.5 24 35.3 44.5 24 44.5z"/><path d="M34.52 28.59H13.48c-.83 0-1.5.67-1.5 1.5 0 1.84 3.27 10.84 12.02 10.84s12.02-9 12.02-10.84c0-.83-.67-1.5-1.5-1.5zM24 37.92c-5.04 0-7.59-4.02-8.55-6.34h17.1c-.97 2.34-3.52 6.34-8.55 6.34zM13.51 14.86l5-2c.77-.31 1.14-1.18.84-1.95s-1.18-1.14-1.95-.84l-5 2c-.77.31-1.14 1.18-.84 1.95.23.59.8.94 1.39.94.19.01.38-.03.56-.1zm22.09-2.79-5-2a1.5 1.5 0 1 0-1.11 2.79l5 2c.18.07.37.11.56.11.59 0 1.16-.36 1.39-.94.31-.78-.07-1.65-.84-1.96z"/></svg>