<svg xmlns="http://www.w3.org/2000/svg" viewBox="0 0 48 48"><path d="M24 .5C11.04.5.5 11.04.5 24S11.04 47.5 24 47.5 47.5 36.96 47.5 24 36.96.5 24 .5zm0 44C12.7 44.5 3.5 35.3 3.5 24S12.7 3.5 24 3.5 44.5 12.7 44.5 24 35.3 44.5 24 44.5z"/><path d="M36.04 20.43a5.975 5.975 0 0 1-7 0c0 1.93 1.57 3.5 3.5 3.5s3.5-1.56 3.5-3.5zm-24.08 0c0 1.93 1.57 3.5 3.5 3.5s3.5-1.57 3.5-3.5a5.975 5.975 0 0 1-7 0zm5.44-7.45-5 2c-.77.31-1.14 1.18-.84 1.95.23.59.8.94 1.39.94.19 0 .37-.03.56-.11l5-2c.77-.31 1.14-1.18.84-1.95a1.504 1.504 0 0 0-1.95-.83zm12.09 2.79 5 2a1.494 1.494 0 0 0 1.95-.83 1.5 1.5 0 0 0-.84-1.95l-5-2a1.5 1.5 0 0 0-1.95.84c-.31.75.07 1.63.84 1.94zm-1.4 13.72c-.67-.25-1.43-.24-2.14.01-.52.18-.79.75-.61 1.28.18.52.76.79 1.28.61.27-.1.56-.1.79-.02.1.04.27.12.33.29.06.17-.02.34-.07.43-.13.21-.35.39-.59.47-.19.04-.94.09-1.23.09h-.04a1 1 0 0 0-.93.63c-.15.38-.05.82.25 1.1.05.05.09.1.11.16.24.67.18.86.19.86 0 0-.02.02-.1.05-.45.16-.84.05-1.01-.12a.996.996 0 1 0-1.37 1.45c.51.48 1.22.74 1.96.74.36 0 .74-.06 1.1-.19.83-.29 1.33-.91 1.42-1.75.04-.35-.01-.71-.08-1.04.15-.02.28-.05.38-.09.71-.25 1.31-.73 1.67-1.34.4-.66.49-1.44.24-2.12-.27-.68-.83-1.23-1.55-1.5zm7.97.23c-.68 0-1.3.33-1.72.85-.42-.52-1.03-.85-1.72-.85-1.26 0-2.28 1.11-2.28 2.48 0 3.08 4 5.52 4 5.52s4-2.47 4-5.52c0-1.37-1.02-2.48-2.28-2.48z"/></svg>