<?xml version="1.0" encoding="utf-8"?>
<!-- Generator: Adobe Illustrator 27.0.0, SVG Export Plug-In . SVG Version: 6.00 Build 0)  -->
<svg version="1.1" id="Layer_1" xmlns="http://www.w3.org/2000/svg" xmlns:xlink="http://www.w3.org/1999/xlink" x="0px" y="0px"
	 viewBox="0 0 398 131" style="enable-background:new 0 0 398 131;" xml:space="preserve">
<style type="text/css">
	.st0{enable-background:new    ;}
</style>
<g id="background">
	<g class="st0">
		<path d="M53.42,46.01c0.08,0.09,0.08,0.7,0,1.86c-0.09,1.15-0.22,2.67-0.42,4.54c-0.19,1.88-0.43,4-0.7,6.37
			c-0.28,2.37-0.58,4.79-0.9,7.26c-0.32,2.48-0.64,4.9-0.96,7.26c-0.32,2.37-0.62,4.49-0.9,6.37c-0.28,1.88-0.52,3.4-0.74,4.58
			c-0.21,1.17-0.36,1.8-0.45,1.89c-0.17,0.17-0.53,0.31-1.09,0.42c-0.56,0.11-1.16,0.18-1.82,0.22c-0.66,0.04-1.29,0.06-1.89,0.06
			c-0.6,0-1.02-0.02-1.28-0.06c-0.13-0.04-0.21-0.38-0.26-1.02c-0.04-0.64-0.04-1.51,0-2.62c0.04-1.11,0.1-2.42,0.16-3.94
			c0.06-1.51,0.16-3.15,0.29-4.9l-9.79,0.9c0,1.62-0.02,3.12-0.06,4.48c-0.04,1.37-0.09,2.55-0.13,3.55c-0.04,1-0.09,1.81-0.13,2.43
			c-0.04,0.62-0.09,0.95-0.13,0.99c-0.17,0.21-0.56,0.44-1.15,0.67c-0.6,0.23-1.27,0.45-2.02,0.64c-0.75,0.19-1.45,0.34-2.11,0.45
			c-0.66,0.11-1.14,0.16-1.44,0.16c-0.17,0-0.4-0.82-0.67-2.46c-0.28-1.64-0.58-3.77-0.9-6.37c-0.32-2.6-0.65-5.55-0.99-8.83
			c-0.34-3.29-0.67-6.58-0.99-9.89c-0.32-3.31-0.64-6.47-0.96-9.5c-0.32-3.03-0.59-5.61-0.8-7.74c-0.04-0.47,0.2-0.87,0.74-1.22
			c0.53-0.34,1.23-0.61,2.08-0.8c0.85-0.19,1.79-0.34,2.82-0.45c1.02-0.11,1.98-0.16,2.88-0.16s1.67,0.02,2.34,0.06
			c0.66,0.04,1.06,0.11,1.18,0.19c0.13,0.09,0.22,0.91,0.29,2.46c0.06,1.56,0.12,3.55,0.16,5.98c0.04,2.43,0.07,5.16,0.1,8.19
			c0.02,3.03,0.03,6.06,0.03,9.09l10.18-0.96c0.13-1.92,0.26-3.85,0.38-5.79c0.13-1.94,0.25-3.81,0.35-5.6
			c0.11-1.79,0.19-3.49,0.26-5.09c0.06-1.6,0.12-3.02,0.16-4.26c0-0.43,0.22-0.74,0.67-0.93c0.45-0.19,0.99-0.28,1.63-0.26
			c0.64,0.02,1.34,0.1,2.11,0.22s1.49,0.29,2.18,0.48c0.68,0.19,1.27,0.4,1.76,0.61C52.99,45.77,53.3,45.92,53.42,46.01z"/>
		<path d="M77.55,62.65c0,0.77-0.02,1.75-0.06,2.94c-0.04,1.19-0.1,2.53-0.16,4c-0.06,1.47-0.15,3.02-0.26,4.64
			c-0.11,1.62-0.22,3.21-0.35,4.77c-0.13,1.56-0.26,3.05-0.38,4.48c-0.13,1.43-0.24,2.68-0.32,3.74c-0.04,0.47-0.41,0.81-1.09,1.02
			c-0.68,0.21-1.43,0.32-2.24,0.32c-0.81,0-1.55-0.1-2.21-0.29c-0.66-0.19-0.99-0.48-0.99-0.86c0-1.24,0.06-2.79,0.19-4.67
			c-0.47,0.77-0.98,1.51-1.54,2.24c-0.56,0.73-1.15,1.34-1.79,1.86c-0.64,0.51-1.33,0.89-2.08,1.12c-0.75,0.24-1.5,0.29-2.27,0.16
			c-1.2-0.21-2.18-0.68-2.94-1.41c-0.77-0.72-1.33-1.65-1.7-2.78c-0.36-1.13-0.55-2.43-0.58-3.9c-0.02-1.47,0.14-3.06,0.48-4.77
			c0.3-1.71,0.81-3.2,1.54-4.48c0.73-1.28,1.56-2.31,2.5-3.1c0.94-0.79,1.91-1.33,2.91-1.63c1-0.3,1.95-0.36,2.85-0.19
			c1.11,0.17,2.05,0.68,2.82,1.54c-0.13-1.15-0.39-2.1-0.8-2.85c-0.41-0.75-1.01-1.24-1.82-1.47c-0.81-0.23-1.85-0.22-3.1,0.03
			c-1.26,0.26-2.81,0.79-4.64,1.6c-0.47,0.21-0.88,0-1.22-0.64c-0.34-0.64-0.58-1.42-0.7-2.34c-0.13-0.92-0.13-1.81,0-2.69
			c0.13-0.87,0.43-1.44,0.9-1.7c0.55-0.3,1.11-0.6,1.66-0.9c0.55-0.3,1.18-0.58,1.89-0.83c0.7-0.26,1.54-0.47,2.5-0.64
			c0.96-0.17,2.14-0.3,3.55-0.38c1.41-0.04,2.69,0.14,3.84,0.54c1.15,0.41,2.14,0.98,2.98,1.73c0.83,0.75,1.48,1.62,1.95,2.62
			C77.32,60.48,77.55,61.54,77.55,62.65z M64.62,81.21c0.34,0.09,0.71-0.11,1.12-0.58c0.41-0.47,0.78-1.07,1.12-1.79
			c0.34-0.72,0.62-1.54,0.83-2.43c0.21-0.9,0.34-1.73,0.38-2.5c0.04-0.77-0.04-1.42-0.26-1.95c-0.21-0.53-0.58-0.84-1.09-0.93
			c-0.51-0.04-0.98,0.16-1.41,0.61c-0.43,0.45-0.8,1.03-1.12,1.76c-0.32,0.73-0.58,1.53-0.77,2.4c-0.19,0.88-0.28,1.7-0.26,2.46
			c0.02,0.77,0.14,1.43,0.35,1.98C63.75,80.8,64.11,81.12,64.62,81.21z"/>
		<path d="M81.58,46.97c-0.04-0.43,0.14-0.75,0.54-0.96c0.4-0.21,0.94-0.35,1.6-0.42c0.66-0.06,1.38-0.05,2.14,0.03
			c0.77,0.09,1.5,0.18,2.21,0.29c0.7,0.11,1.31,0.24,1.82,0.38c0.51,0.15,0.83,0.27,0.96,0.35c0.08,0.09,0.14,0.71,0.16,1.89
			c0.02,1.17,0.03,2.7,0.03,4.58c0,1.88-0.03,4.01-0.1,6.4s-0.14,4.83-0.22,7.33c-0.09,2.5-0.17,4.94-0.26,7.33
			c-0.09,2.39-0.18,4.52-0.29,6.4c-0.11,1.88-0.2,3.41-0.29,4.61c-0.09,1.2-0.17,1.83-0.26,1.92c-0.17,0.21-0.61,0.5-1.31,0.86
			c-0.7,0.36-1.48,0.66-2.34,0.9c-0.85,0.23-1.67,0.36-2.46,0.38c-0.79,0.02-1.33-0.18-1.63-0.61c-0.26-0.3-0.42-1.27-0.48-2.91
			c-0.06-1.64-0.09-3.68-0.06-6.11c0.02-2.43,0.07-5.12,0.16-8.06c0.09-2.94,0.15-5.91,0.19-8.9c0.04-2.99,0.06-5.84,0.06-8.58
			C81.77,51.34,81.71,48.97,81.58,46.97z"/>
		<path d="M118,48.18c0.3,0.13,0.39,0.69,0.29,1.7c-0.11,1-0.31,2.05-0.61,3.14c-0.3,1.09-0.64,2.06-1.02,2.91
			c-0.38,0.85-0.7,1.22-0.96,1.09c-1.32-0.6-2.49-0.81-3.49-0.64c-1,0.17-1.88,0.64-2.62,1.41c-0.75,0.77-1.38,1.78-1.89,3.04
			c-0.51,1.26-0.92,2.68-1.22,4.26c0.9-0.08,1.67-0.15,2.34-0.19c0.66-0.04,1.12-0.06,1.38-0.06c0.26,0,0.49,0.32,0.7,0.96
			c0.21,0.64,0.35,1.36,0.42,2.14c0.06,0.79,0.05,1.51-0.03,2.18c-0.09,0.66-0.28,1.01-0.58,1.06c-0.3,0.04-0.91,0.09-1.82,0.13
			c-0.92,0.04-1.99,0.09-3.23,0.13c-0.13,1.75-0.18,3.51-0.16,5.28c0.02,1.77,0.06,3.49,0.13,5.15c0.06,1.66,0.17,3.21,0.32,4.64
			c0.15,1.43,0.29,2.66,0.42,3.68c0.04,0.38-0.23,0.63-0.83,0.74c-0.6,0.11-1.28,0.11-2.05,0c-0.77-0.11-1.5-0.3-2.21-0.58
			c-0.7-0.28-1.12-0.61-1.25-0.99c-0.3-0.77-0.58-1.78-0.83-3.04c-0.26-1.26-0.48-2.67-0.67-4.22c-0.19-1.56-0.33-3.23-0.42-5.02
			c-0.09-1.79-0.11-3.63-0.06-5.5c-0.77,0.04-1.41,0.05-1.92,0.03c-0.51-0.02-0.83-0.03-0.96-0.03c-0.17-0.04-0.3-0.32-0.38-0.83
			c-0.09-0.51-0.13-1.08-0.13-1.7c0-0.62,0.04-1.18,0.13-1.7c0.08-0.51,0.23-0.79,0.45-0.83c0.26-0.08,0.66-0.16,1.22-0.22
			c0.55-0.06,1.19-0.14,1.92-0.22c0.3-3.24,0.87-6.31,1.73-9.22c0.85-2.9,2.06-5.28,3.62-7.14c1.56-1.86,3.5-3,5.82-3.42
			C111.84,45.84,114.67,46.48,118,48.18z"/>
	</g>
	<g class="st0">
		<path d="M137.19,68.86v4.16h-15.81v-4.16H137.19z"/>
	</g>
	<g class="st0">
		<path d="M141.42,46.97c-0.04-0.43,0.14-0.75,0.54-0.96c0.4-0.21,0.94-0.35,1.6-0.42c0.66-0.06,1.38-0.05,2.14,0.03
			c0.77,0.09,1.5,0.18,2.21,0.29c0.7,0.11,1.31,0.24,1.82,0.38s0.83,0.27,0.96,0.35c0.08,0.09,0.14,0.71,0.16,1.89
			c0.02,1.17,0.03,2.7,0.03,4.58c0,1.88-0.03,4.01-0.1,6.4c-0.06,2.39-0.14,4.83-0.22,7.33c-0.09,2.5-0.17,4.94-0.26,7.33
			c-0.09,2.39-0.18,4.52-0.29,6.4c-0.11,1.88-0.2,3.41-0.29,4.61c-0.09,1.2-0.17,1.83-0.26,1.92c-0.17,0.21-0.61,0.5-1.31,0.86
			c-0.7,0.36-1.48,0.66-2.34,0.9c-0.85,0.23-1.67,0.36-2.46,0.38c-0.79,0.02-1.33-0.18-1.63-0.61c-0.26-0.3-0.42-1.27-0.48-2.91
			c-0.06-1.64-0.09-3.68-0.06-6.11c0.02-2.43,0.07-5.12,0.16-8.06c0.08-2.94,0.15-5.91,0.19-8.9c0.04-2.99,0.06-5.84,0.06-8.58
			C141.61,51.34,141.55,48.97,141.42,46.97z"/>
		<path d="M172.4,52.98c1.66,0,2.96,0.65,3.9,1.95c0.94,1.3,1.64,2.98,2.11,5.02c0.47,2.05,0.75,4.32,0.83,6.82s0.09,4.93,0,7.3
			s-0.19,4.53-0.32,6.5c-0.13,1.96-0.19,3.43-0.19,4.42c0,0.38-0.33,0.67-0.99,0.86c-0.66,0.19-1.4,0.3-2.21,0.32
			c-0.81,0.02-1.56-0.03-2.24-0.16c-0.68-0.13-1.05-0.32-1.09-0.58c-0.13-0.77-0.22-1.78-0.29-3.04c-0.06-1.26-0.13-2.6-0.19-4.03
			c-0.06-1.43-0.14-2.87-0.22-4.32c-0.09-1.45-0.22-2.76-0.42-3.94c-0.19-1.17-0.46-2.13-0.8-2.88c-0.34-0.75-0.77-1.14-1.28-1.18
			c-0.68-0.04-1.31,0.25-1.89,0.86c-0.58,0.62-1.12,1.46-1.63,2.53c-0.51,1.07-0.97,2.26-1.38,3.58s-0.78,2.67-1.12,4.03
			c-0.17,2.18-0.3,4.21-0.38,6.11c-0.09,1.9-0.17,3.55-0.26,4.96c0,0.47-0.37,0.78-1.1,0.93c-0.73,0.15-1.54,0.2-2.42,0.16
			c-0.88-0.04-1.7-0.16-2.45-0.35c-0.75-0.19-1.13-0.44-1.13-0.74c0-1.66-0.01-3.51-0.03-5.54c-0.02-2.03-0.04-4.12-0.06-6.27
			s-0.04-4.34-0.06-6.56c-0.02-2.22-0.04-4.35-0.06-6.4s-0.04-3.96-0.06-5.73c-0.02-1.77-0.03-3.32-0.03-4.64
			c0-0.21,0.26-0.43,0.77-0.64c0.52-0.21,1.16-0.38,1.94-0.51c0.77-0.13,1.62-0.22,2.55-0.29c0.92-0.06,1.77-0.07,2.54-0.03
			c0.77,0.04,1.41,0.13,1.92,0.26c0.51,0.13,0.75,0.32,0.7,0.58c-0.13,0.85-0.25,1.78-0.35,2.78c-0.11,1-0.22,2.06-0.35,3.17
			c1.11-1.49,2.3-2.75,3.58-3.78C169.52,53.5,170.9,52.98,172.4,52.98z"/>
		<path d="M201.58,56.82c0.43,0,0.8,0.26,1.12,0.77c0.32,0.51,0.59,1.15,0.8,1.92c0.21,0.77,0.37,1.61,0.48,2.53
			c0.11,0.92,0.16,1.77,0.16,2.56c0,0.79-0.04,1.44-0.13,1.95c-0.09,0.51-0.21,0.77-0.38,0.77c-2.39-0.13-4.35,0.2-5.89,0.99
			c-1.54,0.79-2.67,1.78-3.39,2.98c-0.73,1.2-1.08,2.49-1.06,3.87c0.02,1.39,0.39,2.61,1.12,3.68c0.73,1.07,1.8,1.86,3.23,2.37
			c1.43,0.51,3.17,0.47,5.22-0.13c0.3-0.08,0.54,0.09,0.74,0.51c0.19,0.43,0.32,0.94,0.38,1.54c0.06,0.6,0.06,1.18,0,1.76
			c-0.06,0.58-0.22,0.97-0.48,1.18c-1.37,1.15-2.85,1.9-4.45,2.24c-1.6,0.34-3.2,0.36-4.8,0.06c-1.6-0.3-3.13-0.87-4.58-1.73
			c-1.45-0.85-2.72-1.92-3.81-3.2c-1.09-1.28-1.93-2.75-2.53-4.42c-0.6-1.66-0.83-3.43-0.7-5.31c0.17-2.35,0.7-4.52,1.6-6.53
			c0.9-2,2.14-3.76,3.74-5.28c1.6-1.51,3.54-2.71,5.82-3.58C196.09,57.45,198.68,56.95,201.58,56.82z"/>
		<path d="M227.05,68.66c0.17,0.81,0.33,2.03,0.48,3.65c0.15,1.62,0.28,3.34,0.38,5.15c0.11,1.81,0.21,3.57,0.32,5.28
			c0.11,1.71,0.2,3.05,0.29,4.03c0.04,0.51-0.35,0.92-1.18,1.22s-1.76,0.46-2.78,0.48c-1.02,0.02-1.96-0.07-2.82-0.29
			c-0.85-0.21-1.28-0.58-1.28-1.09c0-0.64,0.04-1.47,0.13-2.5c0.08-1.02,0.16-2.13,0.22-3.33s0.11-2.4,0.13-3.62
			s-0.02-2.3-0.13-3.26c-0.11-0.96-0.31-1.74-0.61-2.34s-0.7-0.9-1.22-0.9c-0.6,0-1.13,0.47-1.6,1.41
			c-0.47,0.94-0.88,2.07-1.22,3.39c-0.34,1.32-0.62,2.7-0.83,4.13c-0.21,1.43-0.36,2.63-0.45,3.62c-0.04,0.77-0.08,1.5-0.1,2.21
			c-0.02,0.7-0.03,1.35-0.03,1.95c0,0.43-0.36,0.7-1.09,0.83c-0.73,0.13-1.53,0.15-2.4,0.06c-0.88-0.09-1.66-0.27-2.37-0.54
			c-0.7-0.28-1.06-0.63-1.06-1.06c0-1.24,0-2.93,0-5.09c0-2.15-0.02-4.53-0.06-7.14c-0.04-2.6-0.09-5.31-0.13-8.13
			c-0.04-2.82-0.1-5.53-0.16-8.13c-0.06-2.6-0.14-4.98-0.22-7.14c-0.09-2.15-0.17-3.85-0.26-5.09c-0.04-0.38,0.16-0.69,0.61-0.93
			c0.45-0.23,1.01-0.4,1.7-0.51c0.68-0.11,1.43-0.15,2.24-0.13s1.56,0.11,2.24,0.26c0.68,0.15,1.25,0.36,1.7,0.64
			c0.45,0.28,0.67,0.61,0.67,0.99c-0.04,1.28-0.1,2.74-0.16,4.38c-0.06,1.64-0.13,3.39-0.19,5.25c-0.06,1.86-0.13,3.78-0.19,5.76
			c-0.06,1.98-0.14,3.96-0.22,5.92c0.34-0.72,0.74-1.48,1.18-2.27c0.45-0.79,0.94-1.51,1.47-2.18c0.53-0.66,1.09-1.21,1.66-1.63
			s1.18-0.64,1.82-0.64c0.9,0,1.65,0.22,2.27,0.67c0.62,0.45,1.13,1.02,1.54,1.73c0.41,0.7,0.75,1.49,1.02,2.37
			C226.66,67.01,226.88,67.85,227.05,68.66z"/>
		<path d="M281.45,48.38c0.77,1.66,1.24,3.62,1.41,5.86c0.17,2.24-0.17,4.5-1.02,6.78c-0.85,2.28-2.34,4.44-4.45,6.46
			s-5.07,3.62-8.86,4.77c0.04,3.29,0.12,6.57,0.22,9.86c0.11,3.29,0.31,6.21,0.61,8.77c0.04,0.3-0.19,0.53-0.71,0.7
			c-0.51,0.17-1.17,0.26-1.98,0.26s-1.7-0.05-2.66-0.16c-0.96-0.11-1.87-0.27-2.72-0.48c-0.85-0.21-1.58-0.47-2.18-0.77
			c-0.6-0.3-0.92-0.62-0.96-0.96c0-0.13,0.03-0.75,0.1-1.86c0.06-1.11,0.16-2.53,0.29-4.26c0.13-1.73,0.28-3.69,0.45-5.89
			c0.17-2.2,0.34-4.44,0.51-6.72c0.17-2.28,0.34-4.52,0.51-6.72c0.17-2.2,0.33-4.18,0.48-5.95c0.15-1.77,0.28-3.21,0.38-4.32
			c0.11-1.11,0.18-1.73,0.22-1.86c0.17-0.81,0.69-1.29,1.57-1.44c0.88-0.15,1.8-0.08,2.79,0.19c0.98,0.28,1.86,0.7,2.62,1.28
			s1.09,1.16,0.96,1.76c-0.09,0.34-0.17,1.6-0.26,3.78c-0.09,2.18-0.15,4.86-0.19,8.06c1.15-0.51,2.26-1.17,3.33-1.98
			c1.07-0.81,1.97-1.76,2.72-2.85c0.75-1.09,1.28-2.31,1.6-3.68c0.32-1.37,0.31-2.84-0.03-4.42c-0.3-1.32-0.98-2.49-2.05-3.49
			c-1.07-1-2.37-1.76-3.9-2.27c-1.54-0.51-3.2-0.74-4.99-0.67c-1.79,0.06-3.55,0.49-5.28,1.28c-1.73,0.79-3.35,2-4.86,3.62
			c-1.52,1.62-2.72,3.71-3.62,6.27c-0.17,0.43-0.51,0.6-1.02,0.51c-0.51-0.08-1.11-0.33-1.79-0.74c-0.68-0.41-1.38-0.94-2.08-1.6
			c-0.7-0.66-1.33-1.33-1.89-2.02c-0.55-0.68-0.97-1.33-1.25-1.95c-0.28-0.62-0.29-1.12-0.03-1.5c0.51-0.85,1.4-2.01,2.66-3.46
			c1.26-1.45,2.82-2.86,4.67-4.22c1.86-1.36,3.99-2.52,6.4-3.46c2.41-0.94,5.03-1.34,7.84-1.22c2.22,0.09,4.21,0.44,5.98,1.06
			c1.77,0.62,3.33,1.42,4.67,2.4c1.34,0.98,2.5,2.1,3.46,3.36C280.07,45.76,280.85,47.05,281.45,48.38z"/>
		<path d="M306.15,64.25c0.47,1.2,0.69,2.41,0.67,3.65c-0.02,1.24-0.12,2.37-0.29,3.39c-0.21,1.2-0.51,2.37-0.9,3.52l-10.11,2.69
			c0.3,0.85,0.68,1.62,1.15,2.3c0.47,0.68,1.04,1.23,1.73,1.63s1.47,0.63,2.37,0.67c0.9,0.04,1.92-0.13,3.07-0.51
			c0.26-0.08,0.51,0.04,0.77,0.38s0.47,0.77,0.64,1.28c0.17,0.51,0.27,1,0.29,1.47s-0.07,0.79-0.29,0.96
			c-2.3,1.62-4.58,2.55-6.82,2.78c-2.24,0.23-4.27-0.03-6.08-0.8c-1.81-0.77-3.32-1.96-4.51-3.58c-1.2-1.62-1.88-3.52-2.05-5.7
			c-0.21-2.65,0.02-5.14,0.7-7.49c0.68-2.35,1.63-4.42,2.85-6.21s2.62-3.24,4.22-4.35c1.6-1.11,3.19-1.74,4.77-1.89
			c1.58-0.15,3.06,0.22,4.45,1.12C304.18,60.47,305.3,62.03,306.15,64.25z M300.97,70.97c0.26-1.15,0.38-2.2,0.38-3.14
			c0-0.77-0.12-1.48-0.35-2.14c-0.23-0.66-0.71-0.95-1.44-0.86c-0.68,0.09-1.3,0.35-1.86,0.8c-0.55,0.45-1.02,1.02-1.41,1.73
			c-0.38,0.7-0.69,1.51-0.93,2.43c-0.23,0.92-0.37,1.85-0.42,2.78L300.97,70.97z"/>
		<path d="M331.82,45.69c0.26,0.04,0.35,0.49,0.29,1.34c-0.06,0.85-0.22,1.77-0.48,2.75c-0.26,0.98-0.55,1.89-0.9,2.72
			s-0.66,1.25-0.96,1.25c-0.34-0.04-1.31-0.07-2.91-0.1c-1.6-0.02-3.47-0.05-5.6-0.1c-0.55,2.65-1.04,5.42-1.44,8.32
			c-0.41,2.9-0.58,5.74-0.51,8.51c0.06,2.77,0.42,5.37,1.06,7.78c0.64,2.41,1.73,4.43,3.26,6.05c0.3,0.34,0.26,0.78-0.13,1.31
			c-0.38,0.53-0.89,1.05-1.5,1.54c-0.62,0.49-1.25,0.89-1.89,1.18c-0.64,0.3-1.07,0.38-1.28,0.26c-2.01-1.24-3.57-3.16-4.7-5.76
			c-1.13-2.6-1.96-5.55-2.5-8.83c-0.53-3.29-0.82-6.73-0.86-10.34c-0.04-3.6,0.04-7.01,0.26-10.21c-1.45-0.08-2.66-0.14-3.62-0.16
			c-0.96-0.02-1.5-0.07-1.63-0.16c-0.13-0.04-0.19-0.43-0.19-1.15c0-0.72,0.05-1.5,0.16-2.34s0.26-1.59,0.45-2.27
			c0.19-0.68,0.39-1.02,0.61-1.02c0.26-0.04,0.82-0.07,1.7-0.1s1.93-0.05,3.17-0.1c0.21-1.92,0.42-3.49,0.61-4.7
			c0.19-1.22,0.33-1.97,0.42-2.27c0.04-0.21,0.38-0.37,1.02-0.48c0.64-0.11,1.42-0.17,2.34-0.19c0.92-0.02,1.91-0.01,2.98,0.03
			c1.07,0.04,2.04,0.13,2.91,0.26c0.87,0.13,1.6,0.29,2.18,0.48c0.58,0.19,0.84,0.42,0.8,0.67c0,0.21-0.16,0.83-0.48,1.86
			c-0.32,1.02-0.71,2.35-1.18,3.97c2.18-0.04,4.06-0.07,5.66-0.1C330.5,45.57,331.47,45.6,331.82,45.69z"/>
		<path d="M347.24,64.25c0.47,1.2,0.69,2.41,0.67,3.65c-0.02,1.24-0.12,2.37-0.29,3.39c-0.21,1.2-0.51,2.37-0.9,3.52l-10.11,2.69
			c0.3,0.85,0.68,1.62,1.15,2.3c0.47,0.68,1.04,1.23,1.73,1.63s1.47,0.63,2.37,0.67c0.9,0.04,1.92-0.13,3.07-0.51
			c0.26-0.08,0.51,0.04,0.77,0.38s0.47,0.77,0.64,1.28c0.17,0.51,0.27,1,0.29,1.47s-0.07,0.79-0.29,0.96
			c-2.3,1.62-4.58,2.55-6.82,2.78c-2.24,0.23-4.27-0.03-6.08-0.8c-1.81-0.77-3.32-1.96-4.51-3.58c-1.2-1.62-1.88-3.52-2.05-5.7
			c-0.21-2.65,0.02-5.14,0.7-7.49c0.68-2.35,1.63-4.42,2.85-6.21s2.62-3.24,4.22-4.35c1.6-1.11,3.19-1.74,4.77-1.89
			c1.58-0.15,3.06,0.22,4.45,1.12C345.27,60.47,346.39,62.03,347.24,64.25z M342.06,70.97c0.26-1.15,0.38-2.2,0.38-3.14
			c0-0.77-0.12-1.48-0.35-2.14c-0.23-0.66-0.71-0.95-1.44-0.86c-0.68,0.09-1.3,0.35-1.86,0.8c-0.55,0.45-1.02,1.02-1.41,1.73
			c-0.38,0.7-0.69,1.51-0.93,2.43c-0.23,0.92-0.37,1.85-0.42,2.78L342.06,70.97z"/>
		<path d="M373.16,47.8c0.3,0,0.55,0.21,0.77,0.64c0.21,0.43,0.41,0.97,0.58,1.63c0.17,0.66,0.29,1.38,0.35,2.14
			c0.06,0.77,0.1,1.47,0.1,2.11c0,0.64-0.05,1.18-0.16,1.63c-0.11,0.45-0.27,0.67-0.48,0.67c-1.49,0-3.01,0.49-4.54,1.47
			s-2.96,2.28-4.26,3.9c-1.3,1.62-2.43,3.5-3.39,5.63c-0.96,2.13-1.63,4.37-2.02,6.72c-0.09,2.47-0.17,4.83-0.26,7.07
			c-0.09,2.24-0.15,4.28-0.19,6.11c0,0.43-0.37,0.71-1.11,0.86c-0.74,0.15-1.55,0.18-2.44,0.1c-0.89-0.09-1.7-0.27-2.44-0.54
			c-0.74-0.28-1.11-0.65-1.11-1.12c0-1.28-0.02-2.87-0.06-4.77c-0.04-1.9-0.09-3.95-0.13-6.14c-0.04-2.2-0.11-4.47-0.19-6.82
			c-0.09-2.35-0.17-4.62-0.26-6.82c-0.09-2.2-0.18-4.24-0.29-6.14c-0.11-1.9-0.2-3.49-0.29-4.77c-0.04-0.38,0.17-0.7,0.63-0.96
			c0.47-0.26,1.06-0.44,1.78-0.54c0.72-0.11,1.49-0.15,2.32-0.13s1.6,0.11,2.32,0.26c0.72,0.15,1.31,0.36,1.78,0.64
			c0.47,0.28,0.7,0.61,0.7,0.99c-0.09,1.88-0.15,3.86-0.19,5.95c0.55-1.02,1.23-2.1,2.02-3.23c0.79-1.13,1.71-2.19,2.75-3.17
			c1.04-0.98,2.21-1.79,3.49-2.43C370.21,48.12,371.62,47.8,373.16,47.8z"/>
	</g>
</g>
<g id="text">
</g>
</svg>
