<?xml version="1.0" encoding="utf-8"?>
<!-- Generator: Adobe Illustrator 27.0.0, SVG Export Plug-In . SVG Version: 6.00 Build 0)  -->
<svg version="1.1" id="Layer_1" xmlns="http://www.w3.org/2000/svg" xmlns:xlink="http://www.w3.org/1999/xlink" x="0px" y="0px"
	 viewBox="0 0 612 612" style="enable-background:new 0 0 612 612;" xml:space="preserve">
<style type="text/css">
	.st0{fill:#EAA9B1;}
	.st1{fill:none;}
	.st2{fill:#080402;}
	.st3{fill:#FEFEFE;}
	.st4{fill:#D69DA6;}
	.st5{fill:#C497A2;}
	.st6{fill:#FFFFFF;}
	.st7{fill:#E6E2CF;}
	.st8{fill:#331409;}
</style>
<g>
	<g>
		<g>
			<path class="st0" d="M267.59,146.14c-0.04,0.04-0.09,0.11-0.12,0.11c-0.16-0.01-0.32-0.05-0.48-0.07
				c0.04-0.04,0.08-0.11,0.12-0.11C267.27,146.08,267.43,146.11,267.59,146.14z"/>
		</g>
		<g>
			<path class="st0" d="M230.75,159.9c-0.18,0.13-0.35,0.26-0.53,0.39c-0.09-0.55,0.41-0.18,0.56-0.36L230.75,159.9z"/>
		</g>
		<g>
			<path class="st0" d="M230.78,159.93c0.18-0.19,0.36-0.37,0.55-0.56c0,0-0.03-0.03-0.03-0.03c-0.18,0.19-0.36,0.37-0.55,0.56
				C230.75,159.9,230.78,159.93,230.78,159.93z"/>
		</g>
		<g>
			<g>
				<path class="st1" d="M372.87,426.5c-0.09,0.03-0.18,0.06-0.26,0.1c0.08-0.03,0.16-0.06,0.23-0.09
					C372.85,426.51,372.86,426.51,372.87,426.5z"/>
			</g>
			<g>
				<polygon class="st1" points="223.77,428.41 223.76,428.42 223.76,428.42 				"/>
			</g>
			<g>
				<polygon class="st0" points="244.47,507.35 244.49,507.37 244.54,507.28 				"/>
			</g>
			<g>
				<path class="st0" d="M398.97,498.27c0.06,0.07,0.12,0.13,0.18,0.2l0,0h0C399.09,498.41,399.03,498.34,398.97,498.27z"/>
			</g>
			<g>
				<path class="st1" d="M316.16,435.88c3.66-0.19,7.43-0.44,11.34-0.75C323.52,435.43,319.75,435.67,316.16,435.88z"/>
			</g>
			<g>
				<polygon class="st1" points="402.35,417 402.35,417 402.35,417 				"/>
			</g>
			<g>
				<path class="st1" d="M372.87,426.5c0.4-0.16,0.99,7.76,1.72,7.45C374.02,434.19,373.44,426.27,372.87,426.5
					c-0.01,0-0.02,0.01-0.03,0.01C372.85,426.51,372.86,426.51,372.87,426.5z"/>
			</g>
			<g>
				<path class="st2" d="M305.48,447.57c5.48-2.59,10.83-1.77,16.82,1.07C316.38,443.51,309.53,443.19,305.48,447.57z"/>
			</g>
			<g>
				<path class="st1" d="M398.5,458.72c0.02-0.04,0.03-0.07,0.05-0.11c-0.1,0.19-0.21,0.38-0.31,0.58
					C398.32,459.03,398.42,458.87,398.5,458.72z"/>
			</g>
			<g>
				<path class="st1" d="M182.42,233.97c0.23,1.08,0.45,2.16,0.67,3.25C182.87,236.14,182.65,235.05,182.42,233.97z"/>
			</g>
			<g>
				<path class="st1" d="M180.74,227.6c0.71,2.07,1.22,4.21,1.68,6.37C181.96,231.81,181.45,229.67,180.74,227.6z"/>
			</g>
			<g>
				<path class="st1" d="M102.58,292.76c-0.46-1.16-0.87-2.32-1.25-3.51C101.71,290.43,102.13,291.6,102.58,292.76z"/>
			</g>
			<g>
				<path class="st1" d="M100.34,285.67c-0.44-1.81-0.78-3.65-1.02-5.52C99.57,282.02,99.91,283.86,100.34,285.67z"/>
			</g>
			<g>
				<path class="st1" d="M106.79,301.18c-1-1.63-1.9-3.3-2.71-4.99C104.89,297.88,105.79,299.55,106.79,301.18z"/>
			</g>
			<g>
				<path class="st1" d="M140.56,325.3c-1.44-0.04-2.89-0.17-4.34-0.39C137.67,325.13,139.12,325.26,140.56,325.3z"/>
			</g>
			<g>
				<path class="st1" d="M101.34,289.25c-0.37-1.18-0.71-2.38-1-3.58C100.63,286.87,100.96,288.07,101.34,289.25z"/>
			</g>
			<g>
				<path class="st1" d="M104.08,296.19c-0.54-1.13-1.04-2.27-1.5-3.43C103.04,293.91,103.54,295.06,104.08,296.19z"/>
			</g>
			<g>
				<path class="st1" d="M140.56,325.3c1.44,0.04,2.88-0.01,4.32-0.14C143.45,325.29,142.01,325.34,140.56,325.3z"/>
			</g>
			<g>
				<path class="st1" d="M143.9,305.25c0.51-0.15,1.04-0.19,1.62,0.11c0,0,0,0,0,0C144.94,305.06,144.41,305.1,143.9,305.25z"/>
			</g>
			<g>
				<path class="st1" d="M177.64,301.47c-0.68,1.42-1.43,2.8-2.24,4.12C176.21,304.27,176.96,302.89,177.64,301.47z"/>
			</g>
			<g>
				<path class="st1" d="M184.04,243.27c0.21-0.49,0.3-0.97,0.26-1.44C184.34,242.3,184.25,242.78,184.04,243.27L184.04,243.27z"/>
			</g>
			<g>
				<path class="st1" d="M185.36,252.64c0.18,3.15,0.28,6.31,0.27,9.45C185.64,258.95,185.54,255.8,185.36,252.64
					c-0.01-0.22-0.02-0.44-0.02-0.67C185.34,252.2,185.34,252.42,185.36,252.64z"/>
			</g>
			<g>
				<path class="st1" d="M172.78,309.37c-0.93,1.21-1.92,2.35-2.96,3.44C170.86,311.72,171.85,310.58,172.78,309.37z"/>
			</g>
			<g>
				<path class="st1" d="M175.4,305.58c-0.81,1.32-1.69,2.58-2.62,3.79C173.71,308.17,174.58,306.9,175.4,305.58z"/>
			</g>
			<g>
				<path class="st1" d="M166.56,315.87c-1.7,1.44-3.5,2.73-5.38,3.86C163.06,318.6,164.86,317.31,166.56,315.87z"/>
			</g>
			<g>
				<path class="st1" d="M159.27,320.81c-1.29,0.68-2.6,1.29-3.95,1.83C156.67,322.1,157.99,321.49,159.27,320.81z"/>
			</g>
			<g>
				<path class="st1" d="M155.62,299.33c2.54-1.57,4.75-3.76,7.13-5.62c0.32-0.34,0.64-0.68,0.96-1.01
					c-0.32,0.34-0.64,0.67-0.95,1.01C160.37,295.57,158.15,297.76,155.62,299.33z"/>
			</g>
			<g>
				<path class="st3" d="M175.49,289.3c0.15-0.77,0.54-1.42,1.41-1.48c0.75-0.05,1.23,0.35,1.11,1.14c-0.14,0.91-0.71,1.5-1.54,1.72
					C175.56,290.55,175.35,290.01,175.49,289.3z"/>
			</g>
			<g>
				<path class="st3" d="M170.48,301.96c1.02,0.22,1.43,1.1,1.69,1.94c-0.26,0.79-0.36,1.88-1.22,1.63
					c-0.98-0.28-1.56-1.34-1.62-2.42C169.29,302.48,169.71,301.79,170.48,301.96z"/>
			</g>
			<g>
				<path class="st3" d="M166.27,310.03c0.98-0.08,1.33,0.8,1.52,1.63c-0.15,1.28-0.75,2.26-1.99,2.5c-0.96,0.19-1.67-0.53-1.6-1.44
					C164.3,311.46,164.75,310.16,166.27,310.03z"/>
			</g>
			<g>
				<path class="st4" d="M143.9,305.25c-0.16,0.05-0.32,0.1-0.48,0.17C143.57,305.35,143.73,305.3,143.9,305.25z"/>
			</g>
			<g>
				<polygon class="st0" points="145.51,305.36 145.51,305.36 145.51,305.36 145.51,305.36 				"/>
			</g>
			<g>
				<polygon class="st0" points="145.52,305.36 145.52,305.36 145.52,305.36 145.51,305.36 145.51,305.36 				"/>
			</g>
			<g>
				<path class="st0" d="M145.7,304.79c-0.09,0.13-0.15,0.32-0.18,0.57l0,0C145.55,305.11,145.61,304.93,145.7,304.79z"/>
			</g>
			<g>
				<path class="st0" d="M145.51,305.36C145.51,305.36,145.51,305.36,145.51,305.36c0,0.01,0,0.01,0,0.01c0,0,0,0,0,0
					C145.51,305.37,145.51,305.37,145.51,305.36z"/>
			</g>
			<g>
				<path class="st0" d="M145.51,305.36c0,0.01,0,0.01,0,0.01C145.51,305.37,145.52,305.36,145.51,305.36
					C145.52,305.36,145.51,305.36,145.51,305.36z"/>
			</g>
			<g>
				<path class="st0" d="M145.51,305.38C145.51,305.38,145.51,305.38,145.51,305.38C145.51,305.38,145.51,305.38,145.51,305.38
					C145.51,305.38,145.51,305.38,145.51,305.38c0,0,0-0.01,0-0.01L145.51,305.38z"/>
			</g>
			<g>
				<path class="st1" d="M281.43,553.89c-0.15-1.88-0.39-3.74-0.68-5.59C281.04,550.15,281.28,552.01,281.43,553.89
					c0.03,0.34,0.04,0.67,0.04,1C281.47,554.56,281.46,554.23,281.43,553.89z"/>
			</g>
			<g>
				<path class="st1" d="M279.79,542.75c-0.69-3.69-1.41-7.37-1.87-11.1c-0.45-3.65-0.91-7.29-1.36-10.94
					c0.46,3.65,0.92,7.29,1.36,10.94C278.38,535.38,279.11,539.06,279.79,542.75z"/>
			</g>
			<g>
				<path class="st1" d="M273.32,562.1c1.06-0.48,1.97-1.02,2.74-1.61C275.29,561.08,274.38,561.62,273.32,562.1
					c-0.41,0.19-0.74,0.38-0.7,0.9c0,0,0,0,0,0C272.59,562.48,272.91,562.28,273.32,562.1z"/>
			</g>
			<g>
				<path class="st1" d="M278.82,556.99c0.23-0.53,0.4-1.09,0.52-1.67C279.23,555.91,279.05,556.46,278.82,556.99z"/>
			</g>
			<g>
				<path class="st1" d="M279.35,555.32c0.18-0.88,0.25-1.81,0.22-2.8C279.6,553.51,279.53,554.45,279.35,555.32z"/>
			</g>
			<g>
				<path class="st0" d="M280.76,548.3c-0.29-1.85-0.62-3.7-0.96-5.54c-0.69-3.69-1.41-7.37-1.87-11.1
					c-0.45-3.65-0.91-7.29-1.36-10.94c-0.64,1.74-0.75,3.42-0.62,5.09c0.15,1.98,0.33,3.96,0.54,5.93c0.21,1.97,0.44,3.94,0.7,5.91
					s0.56,3.93,0.89,5.88c0.33,1.95,0.7,3.9,1.1,5.84c0.23,1.11,0.37,2.16,0.4,3.16c0.03,0.99-0.04,1.93-0.22,2.8
					c-0.12,0.58-0.3,1.14-0.52,1.67c-0.11,0.27-0.24,0.52-0.38,0.78c-0.42,0.76-0.97,1.45-1.65,2.09c-0.23,0.21-0.47,0.42-0.73,0.62
					c-0.77,0.6-1.68,1.14-2.74,1.61c-0.41,0.19-0.74,0.38-0.7,0.9c2.2-0.04,4.05-0.56,5.48-1.49c1.19-0.77,2.09-1.82,2.66-3.11
					c0.45-1.03,0.69-2.2,0.7-3.51c0-0.33-0.01-0.66-0.04-1C281.28,552.01,281.04,550.15,280.76,548.3z"/>
			</g>
			<g>
				<path class="st1" d="M404.09,391.32c-1.88,1.49-3.81,2.89-5.79,4.23C400.28,394.21,402.21,392.8,404.09,391.32z"/>
			</g>
			<g>
				<path class="st1" d="M421.61,321.75c-1.07,2.66-1.96,4.8-2.77,6.97c-0.21,0.57-0.13,1.25-0.18,1.88
					c-1.26,1.8-1.44,3.97-1.98,6.01c0.54-2.04,0.72-4.21,1.98-6.01c1.1,0.33,1.27,1.35,1.57,2.21c4.47,12.88,4.43,25.65-0.94,38.31
					c-0.46,1.08-0.92,2.23-0.48,3.46c0.54-1.83,1.97-3.17,2.77-4.84C429.09,353.94,428.45,338.11,421.61,321.75z"/>
			</g>
			<g>
				<path class="st1" d="M373.5,409.21c-2.77,1.2-5.58,2.28-8.42,3.26C367.92,411.49,370.73,410.41,373.5,409.21z"/>
			</g>
			<g>
				<path class="st1" d="M409.53,386.59c-1.16,1.11-2.36,2.18-3.58,3.21C407.17,388.78,408.37,387.71,409.53,386.59z"/>
			</g>
			<g>
				<path class="st1" d="M417.09,378.13c-0.48,0.72-1.01,1.4-1.56,2.07C416.08,379.53,416.61,378.85,417.09,378.13z"/>
			</g>
			<g>
				<path class="st1" d="M375.58,359.69c2.17-1.22,4.33-2.46,6.47-3.73C379.91,357.23,377.75,358.47,375.58,359.69z"/>
			</g>
			<g>
				<path class="st1" d="M269.99,421.67c-3.7,0.13-7.41,0.29-11.11,0.45C262.58,421.96,266.29,421.8,269.99,421.67z"/>
			</g>
			<g>
				<path class="st1" d="M400.78,343.15c-1.75,1.41-3.51,2.75-5.3,4.05C397.26,345.9,399.03,344.56,400.78,343.15L400.78,343.15z"/>
			</g>
			<g>
				<path class="st1" d="M388.2,363.62c-1.01,0.82-2.05,1.61-3.12,2.37C386.15,365.23,387.19,364.44,388.2,363.62z"/>
			</g>
			<g>
				<path class="st1" d="M365.09,412.46c-1.89,0.65-3.8,1.25-5.72,1.8C361.29,413.71,363.19,413.11,365.09,412.46z"/>
			</g>
			<g>
				<path class="st1" d="M301.6,420.82c-4.55,0.15-9.1,0.28-13.66,0.38C292.49,421.09,297.05,420.97,301.6,420.82z"/>
			</g>
			<g>
				<path class="st1" d="M315.24,420.23c-4.55,0.24-9.1,0.43-13.65,0.59C306.15,420.66,310.7,420.47,315.24,420.23z"/>
			</g>
			<g>
				<path class="st1" d="M383.47,367.11c-0.75,0.51-1.52,1.01-2.29,1.5C381.95,368.12,382.71,367.62,383.47,367.11z"/>
			</g>
			<g>
				<path class="st1" d="M322.06,419.83c4.54-0.3,9.08-0.66,13.62-1.11c8.1-0.79,16-2.24,23.68-4.45
					c-7.68,2.21-15.58,3.66-23.68,4.45C331.15,419.16,326.6,419.52,322.06,419.83z"/>
			</g>
			<g>
				<path class="st1" d="M394.28,398.14c-1.36,0.84-2.73,1.66-4.12,2.46C391.55,399.8,392.92,398.98,394.28,398.14z"/>
			</g>
			<g>
				<path class="st1" d="M224.77,420.07c-12.74-4.45-22.85-18.28-22.42-30.51c-5.61-0.22-5.61-0.22-4.4,5.13
					c3.89,17.17,16.43,27.48,34.62,28.44l1.67-0.01c0.18-0.07,0.36-0.12,0.55-0.15c0.47,0.04,0.94,0.12,1.41,0.14
					c-0.47-0.03-0.94-0.1-1.41-0.14C231.44,422.01,228.04,421.22,224.77,420.07z"/>
			</g>
			<g>
				<path class="st1" d="M269.99,421.67c3.7-0.13,7.41-0.24,11.12-0.32c2.28-0.05,4.56-0.1,6.83-0.15c-2.28,0.05-4.55,0.1-6.83,0.15
					C277.4,421.43,273.7,421.54,269.99,421.67z"/>
			</g>
			<g>
				<path class="st0" d="M419.29,371.13c5.37-12.65,5.41-25.42,0.94-38.31c-0.3-0.87-0.47-1.88-1.57-2.21
					c-1.26,1.8-1.45,3.96-1.98,6.01c-0.08,0.29-0.16,0.58-0.26,0.87c-2.4,7.16-5.88,13.31-10.3,18.6c-1.9,2.27-3.97,4.38-6.2,6.34
					c-1.49,1.31-3.05,2.56-4.68,3.74c-3.26,2.37-6.8,4.49-10.59,6.4c-7.9,3.98-16.28,6.02-24.95,7.36
					c5.28-2.24,10.42-4.74,15.34-7.61c1.14-0.67,2.29-1.34,3.42-2.02c0.91-0.55,1.82-1.11,2.72-1.68c0.77-0.49,1.54-0.99,2.29-1.5
					c0.54-0.37,1.08-0.74,1.62-1.12c1.07-0.76,2.11-1.55,3.12-2.37c1.01-0.82,1.99-1.68,2.93-2.59c0.94-0.9,1.84-1.85,2.7-2.85
					c0.43-0.5,0.84-1.01,1.25-1.54c1.21-1.58,2.31-3.29,3.26-5.14c0.49-0.94,0.95-1.89,1.34-2.88c0.13-0.33,0.25-0.66,0.36-1
					c0.45-1.36,0.73-2.82,0.74-4.46c-1.75,1.41-3.51,2.75-5.3,4.05c-1.3,0.94-2.6,1.87-3.92,2.76c-3.13,2.12-6.3,4.1-9.51,6
					c-2.14,1.27-4.3,2.51-6.47,3.73c-19.23,10.81-40.01,16.73-61.73,19.5c-16.93,2.16-34,2.82-51.04,3.04
					c-2.56,0.03-5.11,0.13-7.65,0.28c-2.54,0.15-5.08,0.35-7.6,0.6c-1.26,0.12-2.53,0.25-3.79,0.4c-2.52,0.28-5.04,0.6-7.55,0.95
					c-3.77,0.52-7.53,1.09-11.3,1.68c-7.52,1.18-15.03,2.43-22.58,3.44c-0.43,12.23,9.68,26.06,22.42,30.51
					c3.28,1.14,6.67,1.94,10.01,2.9c0.47,0.04,0.94,0.12,1.41,0.14c0.16,0.01,0.31,0.01,0.47,0.01c7.41-0.3,14.82-0.67,22.23-1
					c3.7-0.16,7.41-0.32,11.11-0.45c3.7-0.13,7.41-0.24,11.12-0.32c2.28-0.05,4.56-0.1,6.83-0.15c4.55-0.11,9.11-0.23,13.66-0.38
					c4.55-0.15,9.1-0.34,13.65-0.59c2.27-0.12,4.55-0.26,6.82-0.41c4.54-0.3,9.08-0.66,13.62-1.11c8.1-0.79,16-2.24,23.68-4.45
					c1.92-0.55,3.83-1.15,5.72-1.8c2.84-0.97,5.64-2.06,8.42-3.26c2.77-1.2,5.51-2.52,8.22-3.96c2.84-1.51,5.66-3.04,8.44-4.65
					c1.39-0.8,2.76-1.62,4.12-2.46c1.36-0.84,2.7-1.71,4.02-2.6c1.98-1.34,3.92-2.74,5.79-4.23c0.63-0.5,1.24-1,1.86-1.51
					c1.22-1.03,2.42-2.1,3.58-3.21c1.16-1.11,2.29-2.27,3.39-3.48c0.87-0.97,1.77-1.92,2.61-2.92c0.56-0.66,1.09-1.35,1.56-2.07
					c0.72-1.08,1.32-2.24,1.72-3.54C418.38,373.35,418.84,372.2,419.29,371.13z"/>
			</g>
			<g>
				<path class="st1" d="M262.23,347.87c-1.24-0.07-2.49-0.14-3.73-0.2c-4.27-0.21-8.53-0.32-12.78-0.34
					c4.25,0.01,8.52,0.12,12.78,0.34C259.75,347.73,260.99,347.8,262.23,347.87z"/>
			</g>
			<g>
				<path class="st1" d="M341.47,243.53c0.21,0.92,0.4,1.84,0.57,2.77C341.87,245.37,341.68,244.44,341.47,243.53z"/>
			</g>
			<g>
				<path class="st1" d="M284.63,348.77c-1.25,0.01-2.49,0-3.74-0.02C282.14,348.77,283.39,348.77,284.63,348.77z"/>
			</g>
			<g>
				<path class="st1" d="M235.93,300.44c-0.46-0.6-0.91-1.2-1.33-1.82C235.02,299.23,235.47,299.84,235.93,300.44z"/>
			</g>
			<g>
				<path class="st1" d="M340.23,239.22c0.22,0.63,0.42,1.26,0.61,1.9C340.65,240.48,340.45,239.85,340.23,239.22z"/>
			</g>
			<g>
				<path class="st1" d="M169.66,372.9c-4.06-2.3-6.3-6.37-9.15-9.75c-3.64-4.29-5.4-9.77-7.37-15.02c-0.3,0.2-0.55,0.17-0.71-0.19
					c0.14-0.16,0.25-0.24,0.35-0.24c-0.1,0.01-0.22,0.08-0.35,0.24c-1.72-0.97-1.97-0.77-1.27,1.2
					c3.62,10.33,9.01,19.34,18.34,25.56c1.35,1.18,2.81,2.14,4.34,2.95c-1.53-0.81-2.99-1.77-4.34-2.95
					C172.36,374.36,170.55,373.41,169.66,372.9z"/>
			</g>
			<g>
				<path class="st1" d="M187.64,323.14c-2.69,0.59-5.36,1.3-8.02,2.12C182.28,324.44,184.96,323.73,187.64,323.14z"/>
			</g>
			<g>
				<path class="st1" d="M234.56,298.56c-0.74-1.09-1.43-2.22-2.04-3.4C233.14,296.34,233.82,297.47,234.56,298.56z"/>
			</g>
			<g>
				<path class="st1" d="M158.79,333.24c3.8-1.71,7.73-3.12,11.59-4.7c1.54-0.63,3.09-1.21,4.63-1.76
					c-1.55,0.55-3.09,1.13-4.63,1.76C166.52,330.12,162.59,331.53,158.79,333.24z"/>
			</g>
			<g>
				<path class="st1" d="M167.39,192.43c7.29-7.66,16.05-13.51,25.49-18.2c20.23-10.06,41.9-14.7,64.24-16.62
					c1.22-0.11,19.69,3.83,25.3,8.82c-0.81-3.26-2.78-5.04-5.38-6.08c-2.53-1.01-5.17-1.74-7.77-2.59c1.21-0.69,2.51-0.34,3.73-0.19
					c8.57,1.09,17.19,1.75,25.58,4.2c10.61,3.09,20.97,6.88,30.84,11.77c12.29,6.1,23.2,14.31,33.04,23.88
					c6.22,6.05,11.63,12.82,17.24,19.43c6.05,7.14,11.47,14.53,15.15,23.15c0.32,0.67,0.63,1.33,0.95,2c0,0,0,0,0,0
					c4.02,8.12,6.15,16.62,5.23,25.74c0.85-1.23,1.3-2.64,1.75-4.05c3.44-10.69,0.36-20.24-5.06-29.41
					C383.58,210.33,365.58,190,341.95,175c-9.74-6.18-19.78-11.74-30.8-15.45c-31.74-10.66-63.41-9.19-95.14-0.01
					c-21.39,6.19-40.35,16.49-56,32.51c-2.86,2.93-5.59,5.99-7.56,9.93c1.84,0.14,3.39,0.26,4.94,0.38c0.5-0.23,0.92-0.16,1.21,0.35
					c-0.24,0.09-0.47,0.11-0.67,0.06c0.2,0.06,0.43,0.04,0.67-0.05l0.23-0.04l0.24,0.02c0.53,0.21,1.06,0.45,1.6,0.63
					c-0.54-0.17-1.07-0.42-1.6-0.63C161.02,198.62,164.39,195.59,167.39,192.43z"/>
			</g>
			<g>
				<path class="st1" d="M340.43,322.23c-0.1,0.09-0.19,0.19-0.26,0.28c-1.38,1.65-2.83,3.22-4.34,4.71
					c1.51-1.49,2.96-3.05,4.34-4.71C340.25,322.42,340.34,322.33,340.43,322.23z"/>
			</g>
			<g>
				<path class="st1" d="M410.95,273.97c4.61,12.77,6.39,25.67,1.64,38.85c-0.35,0.96-1.36,1.97-0.33,3.13
					c9.76-16.18,7.28-38.71-0.46-51.39c-0.06,3.05-1.96,5.33-2.16,8.12c-2.26,2.56-3.77,5.62-5.83,8.35
					c2.05-2.73,3.57-5.79,5.83-8.35C410.35,272.85,410.74,273.39,410.95,273.97z"/>
			</g>
			<g>
				<path class="st1" d="M201.65,382.88c-0.82,0.01-1.65,0-2.47-0.01C200.01,382.89,200.83,382.89,201.65,382.88z"/>
			</g>
			<g>
				<path class="st1" d="M412.28,317.03c0.07-0.33,0.08-0.69-0.01-1.08C412.36,316.34,412.35,316.7,412.28,317.03z"/>
			</g>
			<g>
				<path class="st1" d="M191.87,256c0.16,2.61,0.24,5.23,0.23,7.85C192.1,261.23,192.03,258.62,191.87,256z"/>
			</g>
			<g>
				<path class="st1" d="M333.02,326.8c2.03-1.73,3.96-3.6,5.82-5.57c0.08-0.09,0.17-0.19,0.25-0.3c-0.09,0.11-0.17,0.21-0.25,0.3
					C336.98,323.2,335.05,325.07,333.02,326.8z"/>
			</g>
			<g>
				<path class="st1" d="M192.1,263.92c-0.02,9.15-1.03,18.34-2.95,27.59c-0.45,2.15-1,4.25-1.67,6.28
					c0.67-2.03,1.23-4.13,1.67-6.28C191.06,282.26,192.08,273.07,192.1,263.92z"/>
			</g>
			<g>
				<path class="st1" d="M150.24,337.89c0.67-0.32,1.29-0.73,1.92-1.13c1.42-0.9,2.88-1.71,4.38-2.45
					c-1.49,0.74-2.96,1.55-4.38,2.45C151.53,337.16,150.91,337.57,150.24,337.89z"/>
			</g>
			<g>
				<path class="st1" d="M148.97,338.95c0.33-0.34,0.66-0.67,1.01-0.9C149.63,338.27,149.29,338.6,148.97,338.95z"/>
			</g>
			<g>
				<path class="st1" d="M148.24,339.69c0.16-0.15,0.32-0.32,0.48-0.49C148.56,339.37,148.4,339.54,148.24,339.69z"/>
			</g>
			<g>
				<path class="st1" d="M191.56,252.09c-0.49-5.22-1.32-10.43-2.5-15.62C190.25,241.66,191.07,246.87,191.56,252.09z"/>
			</g>
			<g>
				<path class="st1" d="M337.2,253.61c-1.14,4.82-2.21,9.66-4.17,14.21C334.99,263.27,336.06,258.43,337.2,253.61
					c-0.13-1.2-0.15-2.39,0.33-3.53C337.05,251.22,337.07,252.41,337.2,253.61z"/>
			</g>
			<g>
				<path class="st1" d="M203.41,350.51c2.81-0.43,5.61-0.82,8.42-1.17C209.02,349.69,206.22,350.08,203.41,350.51z"/>
			</g>
			<g>
				<path class="st1" d="M290.71,348.57c1.38-0.09,2.76-0.21,4.12-0.38C293.47,348.36,292.09,348.48,290.71,348.57z"/>
			</g>
			<g>
				<path class="st1" d="M336.36,231.5c1.68,2.43,2.93,5.01,3.87,7.7C339.28,236.52,338.03,233.93,336.36,231.5
					c-4.04-12.99-11.93-22.53-22.61-29.57C324.43,208.97,332.32,218.52,336.36,231.5z"/>
			</g>
			<g>
				<path class="st1" d="M356.09,345.73c-0.04,0.69-0.27,1.28-0.75,1.71C355.83,347.01,356.06,346.42,356.09,345.73z"/>
			</g>
			<g>
				<path class="st1" d="M324.21,282.15c-3.69,3.78-7.5,7.45-11.84,10.38C316.7,289.59,320.52,285.93,324.21,282.15
					c0.96-1.26,1.91-2.53,2.87-3.79C326.12,279.62,325.16,280.88,324.21,282.15z"/>
			</g>
			<g>
				<path class="st1" d="M398.81,334.43c-1.7,1.65-3.46,3.22-5.29,4.73C395.35,337.66,397.11,336.08,398.81,334.43z"/>
			</g>
			<g>
				<path class="st1" d="M393.52,339.17c-1.22,1.01-2.47,1.99-3.74,2.94C391.05,341.15,392.3,340.18,393.52,339.17z"/>
			</g>
			<g>
				<path class="st1" d="M216.05,348.86c2.81-0.3,5.63-0.56,8.45-0.77C221.69,348.3,218.87,348.56,216.05,348.86z"/>
			</g>
			<g>
				<path class="st1" d="M405.2,327.45c-1.5,1.85-3.07,3.62-4.72,5.31C402.12,331.07,403.7,329.3,405.2,327.45z"/>
			</g>
			<g>
				<path class="st1" d="M411.9,317.96c-0.17,0.29-0.37,0.57-0.58,0.84C411.53,318.52,411.73,318.25,411.9,317.96z"/>
			</g>
			<g>
				<path class="st1" d="M312.61,337.65c-2.09,0.6-4.21,1.09-6.35,1.49C308.39,338.75,310.51,338.26,312.61,337.65z"/>
			</g>
			<g>
				<path class="st1" d="M339.35,320.6c-0.09,0.11-0.18,0.23-0.26,0.33C339.17,320.83,339.26,320.71,339.35,320.6z"/>
			</g>
			<g>
				<path class="st1" d="M184.25,305.57c1.25-2.47,2.33-5.07,3.22-7.78C186.59,300.5,185.51,303.1,184.25,305.57z"/>
			</g>
			<g>
				<path class="st1" d="M305.2,346.09c2.7-0.79,5.35-1.76,7.94-2.94C310.55,344.33,307.9,345.31,305.2,346.09z"/>
			</g>
			<g>
				<path class="st1" d="M179.98,312.58c1.19-1.65,2.29-3.38,3.3-5.18C182.27,309.2,181.17,310.93,179.98,312.58z"/>
			</g>
			<g>
				<path class="st1" d="M224.51,348.09c5.64-0.42,11.29-0.67,16.96-0.74C235.8,347.42,230.15,347.67,224.51,348.09z"/>
			</g>
			<g>
				<polygon class="st1" points="153.17,348.12 153.17,348.12 153.17,348.12 				"/>
			</g>
			<g>
				<path class="st1" d="M328.56,278.92c-0.21-0.46-0.53-0.85-1.1-1.07l0,0C328.03,278.07,328.35,278.47,328.56,278.92z"/>
			</g>
			<g>
				<path class="st1" d="M254.71,303.01C254.71,303.01,254.72,303.01,254.71,303.01c-9.24-2.94-17.97-6.76-24.57-14.26
					c-0.57-0.39-0.94-0.89-1.21-1.44c0.27,0.55,0.63,1.05,1.21,1.44c0,0,0,0,0,0C236.75,296.24,245.48,300.06,254.71,303.01z"/>
			</g>
			<g>
				<path class="st1" d="M294.83,348.2c2.12-0.26,4.22-0.61,6.28-1.06C299.05,347.59,296.95,347.94,294.83,348.2z"/>
			</g>
			<g>
				<path class="st0" d="M201.65,382.88c0.82-0.01,1.65-0.02,2.47-0.05c1.65-0.05,3.29-0.14,4.94-0.26
					c2.47-0.18,4.94-0.41,7.41-0.69c1.64-0.19,3.29-0.39,4.93-0.6c4.21-0.54,8.42-1.11,12.62-1.63c7.02-0.87,14.04-1.6,21.13-1.86
					c6.93-0.25,13.86-0.4,20.79-0.63c6.93-0.23,13.86-0.54,20.77-1.13c2-0.17,3.99-0.36,5.98-0.56c2.98-0.31,5.96-0.66,8.92-1.07
					c1.98-0.27,3.95-0.57,5.91-0.9c8.84-1.47,17.58-3.49,26.16-6.37c3.62-1.21,7.15-2.62,10.6-4.16c2.59-1.16,5.13-2.41,7.64-3.71
					c2.51-1.31,4.99-2.68,7.44-4.1c4.9-2.84,9.71-5.87,14.49-8.96c2.03-1.31,4-2.67,5.91-4.1c1.28-0.95,2.52-1.93,3.74-2.94
					c1.83-1.51,3.6-3.09,5.29-4.73c0.57-0.55,1.12-1.11,1.67-1.67c1.65-1.7,3.22-3.47,4.72-5.31c1.99-2.46,3.85-5.07,5.55-7.83
					c0.17-0.28,0.38-0.55,0.58-0.82c0.2-0.27,0.41-0.55,0.58-0.84c0.17-0.29,0.31-0.59,0.38-0.93c0.07-0.33,0.08-0.69-0.01-1.08
					c-1.04-1.15-0.02-2.16,0.33-3.13c4.74-13.18,2.96-26.08-1.64-38.85c-0.21-0.58-0.6-1.12-1.3-1.28
					c-2.26,2.55-3.77,5.62-5.83,8.35c-0.35,0.46-0.71,0.92-1.09,1.36c-0.48,0.55-0.98,1.08-1.48,1.59
					c-2.53,2.55-5.34,4.63-8.32,6.45c-1.19,0.73-2.4,1.42-3.64,2.08c-1.23,0.66-2.48,1.29-3.74,1.92c-3.77,1.86-7.63,3.6-11.35,5.59
					c0.84-1.5,1.83-2.88,2.94-4.14c0.55-0.63,1.14-1.23,1.75-1.8c0.61-0.57,1.26-1.11,1.92-1.63c5.67-4.35,10.4-9.59,14.67-15.24
					c0.55-0.73,1.12-1.45,1.68-2.17c1.69-2.18,3.28-4.45,3.84-7.29c0,0,0,0,0,0c0.92-9.12-1.21-17.62-5.23-25.74c0,0,0,0,0,0
					c0,0,0,0,0,0c0,0-0.95-2-0.95-2c-3.68-8.62-9.1-16.01-15.15-23.15c-5.6-6.62-11.01-13.38-17.24-19.43
					c-9.84-9.57-20.74-17.78-33.04-23.88c-9.87-4.89-20.22-8.68-30.84-11.77c-8.38-2.44-17-3.11-25.58-4.2
					c-1.22-0.16-2.52-0.51-3.73,0.19c2.59,0.85,5.24,1.58,7.77,2.59c2.6,1.04,4.58,2.82,5.38,6.08c-5.61-4.99-24.08-8.93-25.3-8.82
					c-22.35,1.92-44.91,4.94-64.24,16.62c-12.15,7.34-82.43,56.56-51.38,159.71c0.7,2.32,1.28,4.28,2.47,6.23
					c3.76,6.22,11.66,21.4,15.3,25.69c2.86,3.37,3.04,5.88,10.23,8.83c1.35,1.18,2.81,2.14,4.34,2.95c2.55,1.34,5.31,2.25,8.13,2.99
					c1.63,0.43,3.27,0.79,4.91,1.09c1.64,0.3,3.28,0.53,4.92,0.71c1.64,0.18,3.28,0.3,4.93,0.37c0.82,0.04,1.64,0.06,2.47,0.08
					C200.01,382.89,200.83,382.89,201.65,382.88z M367.53,228.48c0.7,7.14-1.28,13.8-5.36,16.58c3.86-11.81,0.39-22.35-3.18-32.98
					C362.77,213.71,366.88,221.74,367.53,228.48z M353.51,210.87c-2.57-6.44-7.33-10.17-14.68-11.52
					C344.59,195.99,353.72,203.5,353.51,210.87z M333.82,183.95c-3.72-0.18-7.21-1.69-10.93-1.87
					C326.87,180.72,330.35,182.32,333.82,183.95z M194.53,181.65c5.02-4.87,10.83-7.47,17.78-7.75c3.95-0.16,7.73,0.47,10.95,3.09
					c1,0.81,0,2.38-1.18,1.87c-8.79-3.87-15.09-2.82-26.47,4.16C194.73,183.55,193.79,182.37,194.53,181.65z M206.07,202.31
					c-6.31,0.26-12.26-1.1-16.86-7.21c-0.38-0.51,0.19-1.18,0.75-0.88c13.49,7.11,21.49,6.4,38.11-3.99
					c0.93-0.58,1.93,0.65,1.17,1.43C222.74,198.37,215.2,201.94,206.07,202.31z"/>
			</g>
			<g>
				<path class="st0" d="M153.15,348.13c0.01-0.01,0.02-0.01,0.02-0.01c-0.01-0.01-0.03-0.02-0.04-0.02
					C153.14,348.11,153.14,348.12,153.15,348.13z"/>
			</g>
			<g>
				<path class="st2" d="M362.18,245.06c4.08-2.78,6.05-9.44,5.36-16.58c-0.66-6.74-4.77-14.77-8.54-16.4
					C362.57,222.71,366.04,233.25,362.18,245.06z"/>
			</g>
			<g>
				<path class="st2" d="M353.51,210.87c0.22-7.37-8.92-14.87-14.68-11.52C346.18,200.69,350.93,204.42,353.51,210.87z"/>
			</g>
			<g>
				<path class="st2" d="M322.89,182.08c3.72,0.18,7.21,1.7,10.93,1.87C330.35,182.32,326.87,180.72,322.89,182.08z"/>
			</g>
			<g>
				<path class="st3" d="M228.94,287.31c-0.36-0.74-0.54-1.56-0.8-2.33C228.4,285.75,228.58,286.57,228.94,287.31z"/>
			</g>
			<g>
				<path class="st4" d="M237.03,301.81c-0.38-0.45-0.74-0.91-1.1-1.37C236.29,300.9,236.65,301.36,237.03,301.81z"/>
			</g>
			<g>
				<path class="st4" d="M340.23,239.2c0,0.01,0,0.01,0.01,0.02C340.23,239.22,340.23,239.21,340.23,239.2z"/>
			</g>
			<g>
				<path class="st4" d="M340.84,241.12c0.23,0.8,0.44,1.6,0.63,2.41C341.28,242.72,341.07,241.92,340.84,241.12z"/>
			</g>
			<g>
				<path class="st4" d="M234.6,298.61c-0.01-0.02-0.02-0.03-0.03-0.05C234.58,298.58,234.59,298.6,234.6,298.61z"/>
			</g>
			<g>
				<path class="st1" d="M394.19,565.26c0.03,0.07,0.04,0.15,0.04,0.23C394.23,565.41,394.22,565.33,394.19,565.26z"/>
			</g>
			<g>
				<path class="st1" d="M385.22,562.66c0.46,0.02,0.92,0.06,1.38,0.11C386.14,562.72,385.68,562.68,385.22,562.66z"/>
			</g>
			<g>
				<path class="st1" d="M383.84,562.63c0.23,0,0.46,0,0.69,0C384.3,562.63,384.07,562.63,383.84,562.63z"/>
			</g>
			<g>
				<path class="st1" d="M393.51,566.54c-0.05,0.02-0.11,0.04-0.16,0.06C393.4,566.58,393.45,566.56,393.51,566.54z"/>
			</g>
			<g>
				<path class="st1" d="M389.29,563.18c-0.43-0.11-0.86-0.2-1.3-0.26c-0.46-0.06-0.92-0.11-1.39-0.16c0.46,0.05,0.92,0.1,1.39,0.16
					C388.43,562.98,388.86,563.07,389.29,563.18z"/>
			</g>
			<g>
				<path class="st1" d="M388.2,565.89c-2.35-0.48-4.73-0.79-7.13-1C383.47,565.1,385.85,565.41,388.2,565.89z"/>
			</g>
			<g>
				<path class="st1" d="M391.78,566.79c-1.19-0.35-2.38-0.64-3.58-0.89C389.4,566.14,390.59,566.44,391.78,566.79z"/>
			</g>
			<g>
				<path class="st1" d="M393.82,566.36c0.18-0.14,0.32-0.32,0.38-0.59C394.14,566.04,394,566.23,393.82,566.36z"/>
			</g>
			<g>
				<path class="st0" d="M379.06,564.75c0.67,0.04,1.34,0.09,2.01,0.15c2.4,0.21,4.78,0.51,7.13,1c1.2,0.25,2.4,0.54,3.58,0.89
					c0.21,0.06,0.46,0.05,0.7,0.01c0.08-0.01,0.16-0.03,0.23-0.04c0.08-0.02,0.16-0.03,0.24-0.05c0.13-0.03,0.27-0.06,0.39-0.11
					c0.06-0.02,0.11-0.04,0.16-0.06c0.11-0.05,0.22-0.1,0.32-0.17c0.18-0.14,0.32-0.32,0.38-0.59c0.02-0.1,0.03-0.19,0.03-0.28
					c0-0.09-0.02-0.16-0.04-0.23c-0.13-0.36-0.5-0.55-0.87-0.69c-0.07-0.03-0.14-0.05-0.21-0.08c-0.42-0.15-0.84-0.31-1.27-0.46
					c-0.85-0.32-1.69-0.63-2.56-0.86c-0.43-0.11-0.86-0.2-1.3-0.26c-0.46-0.06-0.92-0.11-1.39-0.16c-0.46-0.05-0.92-0.08-1.38-0.11
					c-0.23-0.01-0.46-0.02-0.69-0.02c-0.23,0-0.46,0-0.69,0c-0.46,0.01-0.91,0.03-1.37,0.08c-1.13,0.12-2.25,0.38-3.34,0.85
					c-0.65,0.28-1.3,0.64-1.93,1.08C377.82,564.67,378.44,564.71,379.06,564.75z"/>
			</g>
			<g>
				<path class="st1" d="M333.71,423.51c1.68-0.12,3.35-0.26,5.03-0.42C337.07,423.25,335.39,423.39,333.71,423.51z"/>
			</g>
			<g>
				<path class="st1" d="M295.78,425.17c2.85-0.08,5.69-0.15,8.54-0.24C301.47,425.02,298.63,425.09,295.78,425.17z"/>
			</g>
			<g>
				<path class="st1" d="M408.64,408.35c-2.79,4-6.11,7.64-10.14,10.82c-2.09,1.64-4.51,3.29-7.06,4.83
					c2.55-1.55,4.98-3.19,7.06-4.83C402.53,415.99,405.84,412.35,408.64,408.35z"/>
			</g>
			<g>
				<path class="st1" d="M383.58,428.25c0.75-0.36,1.5-0.73,2.25-1.12C385.08,427.52,384.33,427.89,383.58,428.25z"/>
			</g>
			<g>
				<path class="st1" d="M388.1,425.93c1.13-0.62,2.25-1.26,3.34-1.93C390.34,424.67,389.22,425.31,388.1,425.93z"/>
			</g>
			<g>
				<path class="st1" d="M409.86,426.83c-1.61,2.46-3.41,4.81-5.36,7.06C406.44,431.64,408.24,429.29,409.86,426.83z"/>
			</g>
			<g>
				<path class="st1" d="M282.98,425.53c4.27-0.14,8.54-0.25,12.8-0.36C291.51,425.28,287.24,425.39,282.98,425.53z"/>
			</g>
			<g>
				<path class="st1" d="M414.13,419.09c-1.23,2.7-2.66,5.28-4.27,7.74C411.47,424.37,412.9,421.79,414.13,419.09z"/>
			</g>
			<g>
				<path class="st0" d="M303.03,429.23c-0.83-0.09-1.3-0.72-1.28-1.55c0.02-0.77,0.61-1.06,1.28-1.11
					c0.87-0.06,1.37,0.38,1.45,1.13C304.28,428.62,303.94,429.32,303.03,429.23z"/>
			</g>
			<g>
				<path class="st1" d="M267.3,504.25c-5.2-1.41-10.35-3.1-14.73-6.45c-3.93-2.69-6.76-5.07-8.88-7.32c2.56,2.9,5.63,5.2,8.88,7.32
					C256.95,501.15,262.1,502.84,267.3,504.25c0.01,0,0.01,0,0.02,0.01C267.31,504.25,267.31,504.25,267.3,504.25z"/>
			</g>
			<g>
				<path class="st1" d="M246.71,566.9c-1.02,0.24-2.03,0.52-3.05,0.79C244.68,567.42,245.69,567.14,246.71,566.9z"/>
			</g>
			<g>
				<path class="st1" d="M264.46,564.13c-0.01,0.17-0.02,0.34-0.04,0.52C264.44,564.48,264.45,564.3,264.46,564.13
					c-0.87-0.18-1.74-0.41-2.61-0.61C262.72,563.73,263.59,563.95,264.46,564.13z"/>
			</g>
			<g>
				<path class="st1" d="M247.4,566.74c0.54-0.12,1.08-0.23,1.63-0.31c1.28-0.18,2.56-0.35,3.84-0.51
					c-1.28,0.16-2.56,0.32-3.84,0.51C248.49,566.51,247.94,566.63,247.4,566.74z"/>
			</g>
			<g>
				<path class="st1" d="M238.69,567.29c-0.01-0.25,0.06-0.46,0.19-0.64C238.75,566.83,238.67,567.05,238.69,567.29z"/>
			</g>
			<g>
				<path class="st0" d="M261.85,563.53c-0.87-0.2-1.74-0.38-2.62-0.47c-0.41-0.04-0.81-0.08-1.22-0.12
					c-0.81-0.07-1.62-0.13-2.43-0.17c-1.21-0.06-2.42-0.08-3.62-0.04c-0.4,0.01-0.8,0.03-1.2,0.06c-1.19,0.08-2.38,0.22-3.55,0.45
					c-2.35,0.45-4.65,1.21-6.88,2.41c-0.19,0.1-0.41,0.21-0.63,0.33c-0.11,0.06-0.22,0.12-0.32,0.19c-0.2,0.14-0.39,0.29-0.52,0.48
					s-0.2,0.4-0.19,0.64c0.01,0.12,0.04,0.26,0.09,0.4c0.05,0.14,0.12,0.25,0.19,0.35c0.38,0.48,1.02,0.48,1.64,0.38
					c0.25-0.04,0.49-0.1,0.72-0.15c0.78-0.17,1.56-0.38,2.33-0.59c1.02-0.27,2.03-0.55,3.05-0.79c0.23-0.05,0.46-0.1,0.69-0.15
					c0.54-0.12,1.08-0.23,1.63-0.31c1.28-0.18,2.56-0.35,3.84-0.51c3.84-0.47,7.7-0.84,11.55-1.28c0.01-0.17,0.02-0.34,0.04-0.52
					C263.59,563.95,262.72,563.73,261.85,563.53z"/>
			</g>
			<g>
				<path class="st1" d="M363.42,550.2c1.01,2.52,2.23,4.97,3.73,7.34C365.65,555.18,364.43,552.72,363.42,550.2z"/>
			</g>
			<g>
				<path class="st1" d="M366.84,561.22c0.24,0.24,0.48,0.46,0.73,0.66C367.32,561.69,367.08,561.47,366.84,561.22z"/>
			</g>
			<g>
				<path class="st1" d="M370.39,563.07c0.3,0.03,0.62,0.03,0.94-0.01c-1.59-1.78-2.97-3.62-4.17-5.51c1.2,1.9,2.58,3.74,4.17,5.51
					C371,563.09,370.69,563.09,370.39,563.07z"/>
			</g>
			<g>
				<path class="st1" d="M358.26,537.56c0.25,1.35,0.52,2.69,0.8,4.04c0.16,0.77,0.33,1.53,0.5,2.3c-0.18-0.76-0.34-1.53-0.5-2.3
					C358.78,540.25,358.52,538.9,358.26,537.56z"/>
			</g>
			<g>
				<path class="st1" d="M364.79,558.28c-2.15-3.82-3.58-7.9-4.67-12.1C361.2,550.37,362.64,554.45,364.79,558.28z"/>
			</g>
			<g>
				<path class="st1" d="M356.16,516.95c0-0.01,0-0.03,0-0.04C356.16,516.92,356.16,516.93,356.16,516.95z"/>
			</g>
			<g>
				<path class="st0" d="M360.25,539.3c-0.33-1.6-0.62-3.21-0.88-4.82c-0.17-1.08-0.34-2.16-0.49-3.25
					c-0.23-1.63-0.45-3.26-0.66-4.89c-0.28-2.18-0.56-4.36-0.87-6.53c-0.31-2.17-0.65-4.33-1.06-6.48
					c-0.07,1.19-0.11,2.38-0.13,3.57c0,0.01,0,0.03,0,0.04c-0.08,6.93,0.81,13.79,2.1,20.61c0.25,1.35,0.52,2.69,0.8,4.04
					c0.16,0.77,0.33,1.53,0.5,2.3c0.18,0.76,0.36,1.52,0.55,2.28c1.08,4.2,2.52,8.28,4.67,12.1c0.17,0.3,0.33,0.61,0.51,0.91
					c0.46,0.77,0.98,1.45,1.55,2.03c0.24,0.24,0.48,0.46,0.73,0.66c0.59,0.47,1.23,0.83,1.92,1.02c0.29,0.08,0.58,0.13,0.88,0.16
					c0.3,0.03,0.62,0.03,0.94-0.01c-1.59-1.78-2.97-3.62-4.17-5.51c-1.5-2.37-2.72-4.82-3.73-7.34c-1.01-2.52-1.8-5.1-2.45-7.73
					C360.71,541.42,360.47,540.36,360.25,539.3z"/>
			</g>
			<g>
				<path class="st2" d="M428.48,373.55c5.89-10.72,7.1-22.12,5.51-34.1c-1.07-8.1-3.38-15.65-7.74-22.55
					c-1.18-1.87-1.62-3.9-1.22-5.97c1.66-8.42,1.77-16.86,0.59-25.33c-1.1-7.87-3.13-15.5-6.6-22.67c-1.22-2.52-3.35-4.76-4.04-7.36
					c-0.96-3.66-2.03-7.3-3.66-10.72c-7.64-15.97-17.71-30.26-29.5-43.2c-11.22-12.31-23.34-23.75-37.57-32.71
					c-9.68-6.1-19.84-11.16-30.59-15.05c-12.23-4.42-24.96-6.6-37.84-7.5c-7.58-0.53-15.19-0.41-22.77,0.16
					c-73.44,5.54-107.6,45.59-121.73,84.43c-14.72,40.47-11.66,92.07,26.83,142.1c7.04,9.15,17.61,13.63,28.76,15.4
					c4.15,0.66,3.97,2.84,4.41,5.24c3.09,16.72,12.45,27.94,28.69,33.36c1.4,0.47,3.46,1.4,3.73,1.34c0,0,0.01,0,0.01,0
					c-0.01,0,43.62,13.5,103.74,6.71c0,0,0,0,0,0c15.32-1.21,35.52-2.96,35.61-3c0.51-0.2,25.18-9.54,35.74-16.93
					c1.6,0.82,1.9,0.98,3.5,1.8v0l0,0c0.89,5.46-63.75,87.83-71.86,89.5c-15.92,3.28-31.77,3.56-47.5,1.1
					c-2.62-0.41-5.24-0.89-7.86-1.45c-1.31-0.28-2.62-0.58-3.92-0.89c-1.31-0.32-2.61-0.65-3.92-1.01
					c-5.2-1.41-10.35-3.1-14.74-6.46c-34.9-23.75-26.99-63.63-24.85-68.3c0.23-0.5-3.87-0.92-3.94-1.08
					c-1.51,3.65-10.14,34.2,10.86,61.62c5,6.53,10.37,12.82,17.42,17.06c3.58,2.15,7.79,4.15,12.63,5.62
					c1.23,0.37,2.36,0.99,3.57,1.36c1.35,0.42,1.8,0.87,1.75,2.3c-0.11,3.71-0.22,7.44,0.02,11.14c0.56,8.42,2.58,16.71,2.48,25.2
					c-0.05,3.99-0.91,5.03-4.9,5.54c-0.5,0.06-1.01,0.08-1.51,0.04c-5.06-0.4-10.13-1.08-15.21-0.62c-6.56,0.6-12.77,2.14-17.1,7.77
					c-2.23,2.89-1.69,4.48,1.56,6.38c2.61,1.53,5.73,1.73,8.08,1.41c5.43-0.74,10.87-0.38,16.27-0.76
					c10.1-0.7,20.14-1.62,30.08-3.47c2.27-0.42,2.57-2.72,0.86-3.3c-2.18-0.74-7.45-38.09-8.59-45.84
					c-0.46-3.16,0.31-4.12,3.38-3.59c5.38,0.94,10.79,1.32,16.24,1.26c6.45-0.07,32.7-1.9,44.74-6.75c2.96-1.19,3.75-0.47,3.73,2.61
					c-0.05,6.19,0.2,12.34,1.17,18.49c0.43,2.74,4.45,24.2,6.57,30.05c0.89,2.47,0.31,2.84-1.98,2.75
					c-1.31-0.05-1.38,2.46-0.19,3.11c0.08,0.04,0.21-0.01,0.31,0.01c12.78,3,25.67,4.78,38.86,3.89c3.37-0.23,6.36-2.92,5.51-6.6
					c-0.45-1.96-1.97-3.35-3.57-4.37c-5.45-3.49-11.28-4.76-17.63-2.6c-2.79,0.95-4.72,0.06-6.27-2.67
					c-1.78-3.15-3.19-6.42-4.31-9.81c-4.18-12.6-4.57-25.83-6.42-38.83c-0.31-2.14,0.99-3.07,2.33-3.86
					c7.14-4.23,12.98-9.94,19.15-15.46c36.7-32.81,32.51-85.24,34.47-90.52c2.68-7.21,4.35-14.99,6.07-16.66
					C426.15,378.43,427.19,375.89,428.48,373.55z M264.42,564.65c-3.85,0.44-7.71,0.81-11.55,1.28c-1.28,0.16-2.56,0.32-3.84,0.51
					c-0.55,0.08-1.09,0.19-1.63,0.31c-0.23,0.05-0.46,0.1-0.69,0.15c-1.02,0.24-2.03,0.52-3.05,0.79c-0.78,0.21-1.55,0.41-2.33,0.59
					c-0.22,0.05-0.47,0.11-0.72,0.15c-0.62,0.1-1.26,0.1-1.64-0.38c-0.08-0.1-0.14-0.21-0.19-0.35c-0.06-0.14-0.09-0.28-0.09-0.4
					c-0.01-0.25,0.06-0.46,0.19-0.64c0.13-0.18,0.31-0.34,0.52-0.48c0.1-0.07,0.21-0.13,0.32-0.19c0.22-0.12,0.44-0.23,0.63-0.33
					c2.24-1.2,4.54-1.96,6.88-2.41c1.17-0.22,2.36-0.37,3.55-0.45c0.4-0.03,0.8-0.05,1.2-0.06c1.2-0.04,2.4-0.02,3.62,0.04
					c0.81,0.04,1.62,0.1,2.43,0.17c0.41,0.04,0.81,0.08,1.22,0.12c0.88,0.09,1.75,0.27,2.62,0.47c0.87,0.2,1.74,0.42,2.61,0.61
					C264.45,564.3,264.44,564.48,264.42,564.65z M280.77,558.39c-0.57,1.28-1.47,2.34-2.66,3.11c-1.43,0.93-3.28,1.45-5.48,1.49
					c0,0,0,0,0,0c0,0,0,0,0,0c-0.04-0.51,0.28-0.71,0.7-0.9c1.06-0.48,1.97-1.02,2.74-1.61c0.26-0.2,0.5-0.41,0.73-0.62
					c0.68-0.64,1.23-1.34,1.65-2.09c0.14-0.25,0.27-0.51,0.38-0.78c0.23-0.53,0.4-1.09,0.52-1.67c0.18-0.88,0.25-1.81,0.22-2.8
					c-0.03-0.99-0.17-2.05-0.4-3.16c-0.4-1.94-0.77-3.89-1.1-5.84c-0.33-1.95-0.63-3.92-0.89-5.88c-0.26-1.97-0.5-3.94-0.7-5.91
					c-0.21-1.97-0.38-3.95-0.54-5.93c-0.13-1.66-0.02-3.35,0.62-5.09c0.46,3.65,0.92,7.29,1.36,10.94c0.46,3.73,1.18,7.41,1.87,11.1
					c0.34,1.84,0.68,3.69,0.96,5.54c0.29,1.85,0.52,3.72,0.68,5.59c0.03,0.34,0.04,0.67,0.04,1
					C281.46,556.19,281.22,557.37,280.77,558.39z M379.13,563.56c1.09-0.47,2.21-0.73,3.34-0.85c0.45-0.05,0.91-0.07,1.37-0.08
					c0.23,0,0.46,0,0.69,0s0.46,0.01,0.69,0.02c0.46,0.02,0.92,0.06,1.38,0.11c0.46,0.05,0.92,0.1,1.39,0.16
					c0.44,0.06,0.87,0.15,1.3,0.26c0.86,0.22,1.71,0.54,2.56,0.86c0.42,0.16,0.85,0.32,1.27,0.46c0.07,0.02,0.14,0.05,0.21,0.08
					c0.36,0.14,0.74,0.33,0.87,0.69c0.03,0.07,0.04,0.15,0.04,0.23c0,0.09-0.01,0.18-0.03,0.28c-0.06,0.27-0.2,0.45-0.38,0.59
					c-0.09,0.07-0.2,0.13-0.32,0.17c-0.05,0.02-0.11,0.04-0.16,0.06c-0.13,0.04-0.26,0.08-0.39,0.11c-0.08,0.02-0.16,0.03-0.24,0.05
					c-0.08,0.02-0.15,0.03-0.23,0.04c-0.24,0.04-0.49,0.05-0.7-0.01c-1.19-0.35-2.38-0.64-3.58-0.89c-2.35-0.48-4.73-0.79-7.13-1
					c-0.67-0.06-1.34-0.11-2.01-0.15c-0.62-0.04-1.24-0.07-1.86-0.1C377.83,564.2,378.48,563.84,379.13,563.56z M363.42,550.2
					c1.01,2.52,2.23,4.97,3.73,7.34c1.2,1.9,2.58,3.74,4.17,5.51c-0.32,0.03-0.64,0.03-0.94,0.01c-0.3-0.03-0.6-0.08-0.88-0.16
					c-0.7-0.19-1.33-0.55-1.92-1.02c-0.25-0.2-0.5-0.42-0.73-0.66c-0.56-0.58-1.08-1.26-1.55-2.03c-0.18-0.3-0.34-0.61-0.51-0.91
					c-2.15-3.82-3.58-7.9-4.67-12.1c-0.19-0.76-0.38-1.52-0.55-2.28c-0.18-0.76-0.34-1.53-0.5-2.3c-0.28-1.35-0.55-2.69-0.8-4.04
					c-1.29-6.82-2.17-13.68-2.1-20.61c0-0.01,0-0.03,0-0.04c0.01-1.19,0.06-2.38,0.13-3.57c0.41,2.14,0.75,4.3,1.06,6.48
					c0.31,2.17,0.59,4.35,0.87,6.53c0.21,1.63,0.43,3.27,0.66,4.89c0.15,1.08,0.32,2.17,0.49,3.25c0.26,1.62,0.55,3.23,0.88,4.82
					c0.22,1.06,0.46,2.12,0.72,3.17C361.62,545.1,362.42,547.68,363.42,550.2z M191.79,382.42c-1.64-0.18-3.28-0.41-4.92-0.71
					c-1.64-0.3-3.27-0.66-4.91-1.09c-2.81-0.74-5.57-1.65-8.13-2.99c-1.53-0.81-2.99-1.77-4.34-2.95
					c-17.85-11.74-56.86-76.92-28.93-147.7c4.57-11.57,28.76-55.46,75.45-67.46c31.99-8.23,63.4-10.66,95.14,0.01
					c11.02,3.7,21.06,9.26,30.8,15.45c23.63,15.01,41.63,35.33,55.76,59.29c5.42,9.18,8.49,18.72,5.06,29.41
					c-0.45,1.41-0.9,2.82-1.75,4.05c0,0,0,0,0,0c-0.56,2.84-2.15,5.11-3.84,7.29c-0.56,0.73-1.14,1.45-1.68,2.17
					c-4.27,5.65-9,10.89-14.67,15.24c-0.67,0.51-1.31,1.05-1.92,1.63c-0.61,0.57-1.2,1.17-1.75,1.8c-1.11,1.26-2.09,2.64-2.94,4.14
					c3.72-1.99,7.57-3.73,11.35-5.59c1.26-0.62,2.51-1.25,3.74-1.92c1.23-0.66,2.45-1.35,3.64-2.08c2.97-1.82,5.79-3.9,8.32-6.45
					c0.51-0.51,1-1.04,1.48-1.59c0.38-0.44,0.74-0.89,1.09-1.36c2.05-2.73,3.57-5.8,5.83-8.35c0.2-2.79,2.1-5.07,2.16-8.12
					c7.74,12.68,10.22,35.21,0.46,51.39c0.09,0.4,0.09,0.75,0.01,1.08c-0.07,0.33-0.21,0.64-0.38,0.93
					c-0.17,0.29-0.37,0.57-0.58,0.84c-0.2,0.27-0.41,0.54-0.58,0.82c-1.7,2.76-3.55,5.37-5.55,7.83c-1.5,1.85-3.07,3.62-4.72,5.31
					c-0.55,0.57-1.11,1.12-1.67,1.67c-1.7,1.65-3.46,3.22-5.29,4.73c-1.22,1.01-2.47,1.99-3.74,2.94c-1.91,1.43-3.89,2.79-5.91,4.1
					c-4.78,3.08-9.58,6.11-14.49,8.96c-2.45,1.42-4.93,2.8-7.44,4.1c-2.51,1.31-5.06,2.55-7.64,3.71c-3.45,1.55-6.98,2.95-10.6,4.16
					c-8.58,2.87-17.31,4.9-26.16,6.37c-1.97,0.33-3.94,0.62-5.91,0.9c-2.96,0.41-5.94,0.76-8.92,1.07
					c-1.99,0.21-3.98,0.39-5.98,0.56c-6.92,0.59-13.85,0.9-20.77,1.13c-6.93,0.23-13.86,0.37-20.79,0.63
					c-7.08,0.26-14.11,0.99-21.13,1.86c-4.21,0.52-8.41,1.09-12.62,1.63c-1.64,0.21-3.29,0.41-4.93,0.6
					c-2.47,0.28-4.94,0.52-7.41,0.69c-1.65,0.12-3.29,0.2-4.94,0.26c-0.82,0.03-1.65,0.04-2.47,0.05c-0.82,0.01-1.65,0-2.47-0.01
					c-0.82-0.01-1.64-0.04-2.47-0.08C195.08,382.72,193.43,382.6,191.79,382.42z M421.58,369.75c-0.79,1.67-2.23,3-2.77,4.84
					c-0.4,1.3-1,2.46-1.72,3.54c-0.48,0.72-1.01,1.4-1.56,2.07c-0.84,1-1.73,1.95-2.61,2.92c-1.1,1.21-2.23,2.37-3.39,3.48
					c-1.16,1.11-2.36,2.18-3.58,3.21c-0.61,0.51-1.23,1.02-1.86,1.51c-1.88,1.49-3.81,2.89-5.79,4.23c-1.32,0.89-2.66,1.76-4.02,2.6
					c-1.36,0.84-2.73,1.66-4.12,2.46c-2.77,1.6-5.6,3.14-8.44,4.65c-2.71,1.44-5.45,2.76-8.22,3.96c-2.77,1.2-5.58,2.28-8.42,3.26
					c-1.89,0.65-3.8,1.25-5.72,1.8c-7.68,2.21-15.58,3.66-23.68,4.45c-4.54,0.45-9.08,0.81-13.62,1.11
					c-2.27,0.15-4.54,0.29-6.82,0.41c-4.55,0.24-9.1,0.43-13.65,0.59c-4.55,0.15-9.1,0.28-13.66,0.38c-2.28,0.05-4.55,0.1-6.83,0.15
					c-3.71,0.08-7.41,0.19-11.12,0.32c-3.7,0.13-7.41,0.29-11.11,0.45c-7.41,0.33-14.82,0.69-22.23,1c-0.16,0.01-0.31,0-0.47-0.01
					c-0.47-0.03-0.94-0.1-1.41-0.14c-0.19,0.03-0.37,0.08-0.55,0.15l-1.67,0.01c-18.18-0.96-30.73-11.27-34.62-28.44
					c-1.21-5.34-1.21-5.34,4.4-5.13c7.55-1.02,15.06-2.27,22.58-3.44c3.76-0.59,7.52-1.16,11.3-1.68c2.51-0.34,5.03-0.66,7.55-0.95
					c1.26-0.14,2.52-0.27,3.79-0.4c2.53-0.24,5.06-0.45,7.6-0.6c2.54-0.15,5.09-0.25,7.65-0.28c17.03-0.22,34.11-0.88,51.04-3.04
					c21.73-2.78,42.5-8.69,61.73-19.5c2.17-1.22,4.33-2.46,6.47-3.73c3.21-1.91,6.39-3.89,9.51-6c1.32-0.89,2.62-1.82,3.92-2.76
					c1.78-1.3,3.55-2.63,5.3-4.05v0l0,0c-0.01,1.64-0.29,3.1-0.74,4.46c-0.11,0.34-0.23,0.67-0.36,1c-0.39,0.99-0.85,1.94-1.34,2.88
					c-0.96,1.86-2.06,3.56-3.26,5.14c-0.4,0.53-0.82,1.04-1.25,1.54c-0.85,1-1.76,1.95-2.7,2.85c-0.94,0.9-1.92,1.76-2.93,2.59
					c-1.01,0.82-2.05,1.61-3.12,2.37c-0.53,0.38-1.07,0.75-1.62,1.12c-0.75,0.51-1.52,1.01-2.29,1.5c-0.9,0.57-1.8,1.13-2.72,1.68
					c-1.13,0.68-2.27,1.35-3.42,2.02c-4.92,2.87-10.06,5.37-15.34,7.61c8.67-1.34,17.05-3.38,24.95-7.36
					c3.79-1.91,7.33-4.03,10.59-6.4c1.63-1.18,3.19-2.43,4.68-3.74c2.23-1.96,4.31-4.07,6.2-6.34c4.43-5.29,7.91-11.44,10.3-18.6
					c0.1-0.29,0.18-0.58,0.26-0.87c0.54-2.04,0.72-4.21,1.98-6.01c0.05-0.63-0.03-1.31,0.18-1.88c0.8-2.17,1.7-4.31,2.77-6.97
					C428.45,338.11,429.09,353.94,421.58,369.75z"/>
			</g>
			<g>
				<path class="st2" d="M216.47,381.88c-2.47,0.28-4.94,0.52-7.41,0.69C211.53,382.4,214,382.16,216.47,381.88z"/>
			</g>
			<g>
				<path class="st2" d="M275.94,377.17c6.93-0.23,13.86-0.54,20.77-1.13c2-0.17,3.99-0.36,5.98-0.56
					c-1.99,0.21-3.98,0.39-5.98,0.56C289.8,376.63,282.87,376.95,275.94,377.17z"/>
			</g>
			<g>
				<path class="st2" d="M392.93,290.44c2.97-1.82,5.79-3.9,8.32-6.45C398.72,286.53,395.91,288.61,392.93,290.44z"/>
			</g>
			<g>
				<path class="st2" d="M204.12,382.83c-0.82,0.03-1.65,0.04-2.47,0.05C202.48,382.88,203.3,382.86,204.12,382.83z"/>
			</g>
			<g>
				<path class="st2" d="M402.73,282.39c0.38-0.44,0.74-0.89,1.09-1.36C403.48,281.5,403.12,281.95,402.73,282.39z"/>
			</g>
			<g>
				<path class="st2" d="M377.15,295.88c0.55-0.63,1.14-1.23,1.75-1.8C378.29,294.65,377.7,295.25,377.15,295.88z"/>
			</g>
			<g>
				<path class="st2" d="M341.46,321.19c0.1-0.16,0.17-0.32,0.17-0.5C341.63,320.86,341.56,321.03,341.46,321.19z"/>
			</g>
			<g>
				<path class="st2" d="M385.56,294.43c1.26-0.62,2.51-1.25,3.74-1.92C388.07,293.18,386.82,293.81,385.56,294.43z"/>
			</g>
			<g>
				<path class="st2" d="M397.18,275.04c1.69-2.18,3.28-4.45,3.84-7.29c0,0,0,0,0,0c0,0,0,0,0,0
					C400.46,270.59,398.87,272.86,397.18,275.04z"/>
			</g>
			<g>
				<path class="st2" d="M234.02,379.66c-4.21,0.52-8.41,1.09-12.62,1.63C225.61,380.74,229.81,380.18,234.02,379.66z"/>
			</g>
			<g>
				<path class="st2" d="M340.07,319.85c-0.1,0.07-0.2,0.16-0.3,0.26C339.87,320.01,339.97,319.93,340.07,319.85z"/>
			</g>
			<g>
				<path class="st2" d="M369.37,355.16c-2.45,1.42-4.93,2.8-7.44,4.1C364.44,357.95,366.92,356.58,369.37,355.16z"/>
			</g>
			<g>
				<path class="st2" d="M317.53,373.51c-1.97,0.33-3.94,0.62-5.91,0.9C313.59,374.13,315.56,373.83,317.53,373.51z"/>
			</g>
			<g>
				<path class="st2" d="M361.93,359.26c-2.51,1.31-5.06,2.55-7.64,3.71C356.88,361.82,359.42,360.57,361.93,359.26z"/>
			</g>
			<g>
				<path class="st2" d="M196.72,382.8c-1.64-0.07-3.29-0.2-4.93-0.37C193.43,382.6,195.08,382.72,196.72,382.8z"/>
			</g>
			<g>
				<path class="st2" d="M191.79,382.42c-1.64-0.18-3.28-0.41-4.92-0.71C188.51,382.01,190.15,382.25,191.79,382.42z"/>
			</g>
			<g>
				<path class="st2" d="M311.62,374.41c-2.96,0.41-5.94,0.76-8.92,1.07C305.68,375.17,308.65,374.82,311.62,374.41z"/>
			</g>
			<g>
				<path class="st2" d="M148.17,332.2c2.07-0.32,4.09-0.77,6.05-1.34C152.26,331.43,150.24,331.88,148.17,332.2z"/>
			</g>
			<g>
				<path class="st2" d="M173.84,377.64c2.55,1.34,5.31,2.25,8.13,2.99c1.63,0.43,3.27,0.79,4.91,1.09
					c-1.64-0.3-3.27-0.66-4.91-1.09C179.15,379.89,176.39,378.98,173.84,377.64z"/>
			</g>
			<g>
				<path class="st2" d="M192.1,263.85c0,0.02,0,0.04,0,0.07C192.1,263.9,192.1,263.88,192.1,263.85z"/>
			</g>
			<g>
				<path class="st2" d="M161.78,327.96c1.2-0.58,2.38-1.22,3.53-1.9C164.16,326.74,162.98,327.38,161.78,327.96z"/>
			</g>
			<g>
				<path class="st2" d="M380.83,292.45c-0.67,0.51-1.31,1.05-1.92,1.63C379.52,293.51,380.16,292.96,380.83,292.45z"/>
			</g>
			<g>
				<path class="st2" d="M395.07,356.64c1.21-1.58,2.31-3.29,3.26-5.14c0.49-0.94,0.95-1.89,1.34-2.88
					c-0.39,0.99-0.85,1.94-1.34,2.88C397.38,353.35,396.28,355.06,395.07,356.64z"/>
			</g>
			<g>
				<path class="st2" d="M393.83,358.18c-0.85,1-1.76,1.95-2.7,2.85C392.07,360.13,392.97,359.18,393.83,358.18z"/>
			</g>
			<g>
				<path class="st2" d="M381.17,368.61c-0.9,0.57-1.8,1.13-2.72,1.68C379.37,369.74,380.28,369.18,381.17,368.61z"/>
			</g>
			<g>
				<path class="st2" d="M416.68,336.62c-0.08,0.29-0.16,0.58-0.26,0.87c-2.4,7.16-5.88,13.31-10.3,18.6
					c4.43-5.29,7.91-11.44,10.3-18.6C416.52,337.2,416.61,336.91,416.68,336.62z"/>
			</g>
			<g>
				<path class="st2" d="M247.56,383.11c2.53-0.24,5.06-0.45,7.6-0.6C252.62,382.66,250.09,382.86,247.56,383.11z"/>
			</g>
			<g>
				<path class="st2" d="M391.56,349.96c1.32-0.89,2.62-1.82,3.92-2.76C394.18,348.14,392.88,349.07,391.56,349.96z"/>
			</g>
			<g>
				<path class="st2" d="M400.78,343.15L400.78,343.15c-0.01,1.64-0.29,3.1-0.74,4.46C400.48,346.25,400.77,344.79,400.78,343.15z"
					/>
			</g>
			<g>
				<path class="st2" d="M395.24,366.17c1.63-1.18,3.19-2.43,4.68-3.74C398.43,363.74,396.87,364.98,395.24,366.17z"/>
			</g>
			<g>
				<path class="st2" d="M202.34,389.57c7.55-1.02,15.06-2.27,22.58-3.44C217.4,387.3,209.89,388.55,202.34,389.57z"/>
			</g>
			<g>
				<path class="st2" d="M236.22,384.45c2.51-0.34,5.03-0.66,7.55-0.95C241.25,383.79,238.73,384.11,236.22,384.45z"/>
			</g>
			<g>
				<path class="st2" d="M417.15,410.58c0.52-1.98,0.94-4.03,1.25-6.15c0.24-1.63,0.4-3.25,0.41-4.88
					c-0.01,1.63-0.18,3.26-0.41,4.88C418.09,406.55,417.68,408.6,417.15,410.58z"/>
			</g>
			<g>
				<path class="st2" d="M261.66,426.6c-4.26,0.32-8.51,0.72-12.76,1.22c-1.56,0.19-3.14,0.31-4.71,0.46
					c1.57-0.15,3.15-0.27,4.71-0.46C253.15,427.32,257.4,426.92,261.66,426.6z"/>
			</g>
			<g>
				<path class="st2" d="M401.33,401.39c-0.37,0.17-0.72,0.37-1.05,0.59c-2.3,1.51-4.63,2.93-7.01,4.26
					c2.37-1.33,4.71-2.75,7.01-4.26C400.62,401.76,400.96,401.55,401.33,401.39z"/>
			</g>
			<g>
				<path class="st2" d="M265.92,426.31c2.84-0.18,5.68-0.33,8.53-0.45C271.6,425.98,268.76,426.13,265.92,426.31z"/>
			</g>
			<g>
				<path class="st2" d="M241.05,428.63c1.04-0.14,2.09-0.25,3.14-0.35C243.14,428.38,242.09,428.49,241.05,428.63z"/>
			</g>
			<g>
				<path class="st2" d="M237.94,429.19c1.03-0.24,2.07-0.41,3.11-0.55C240.01,428.78,238.97,428.95,237.94,429.19z"/>
			</g>
			<g>
				<path class="st2" d="M330.78,423.72c0.98-0.06,1.95-0.13,2.93-0.2C332.74,423.59,331.76,423.65,330.78,423.72z"/>
			</g>
			<g>
				<path class="st2" d="M381.12,412.24c1.66-0.71,3.3-1.46,4.93-2.24C384.42,410.78,382.78,411.53,381.12,412.24z"/>
			</g>
			<g>
				<path class="st2" d="M373.56,415.24c2.55-0.93,5.07-1.93,7.56-3C378.63,413.31,376.11,414.31,373.56,415.24z"/>
			</g>
			<g>
				<path class="st2" d="M317.11,424.43c1.82-0.09,3.65-0.18,5.47-0.27C320.76,424.26,318.94,424.35,317.11,424.43z"/>
			</g>
			<g>
				<path class="st2" d="M322.58,424.17c1.82-0.09,3.65-0.18,5.47-0.29C326.23,423.99,324.41,424.08,322.58,424.17z"/>
			</g>
			<g>
				<path class="st2" d="M338.74,423.09c1.89-0.18,3.78-0.39,5.66-0.63C342.52,422.71,340.63,422.91,338.74,423.09z"/>
			</g>
			<g>
				<path class="st2" d="M371,416.15c-3.43,1.18-6.91,2.24-10.44,3.2c-4.45,1.21-8.94,2.09-13.45,2.75c4.51-0.66,9-1.54,13.45-2.75
					C364.09,418.39,367.57,417.33,371,416.15z"/>
			</g>
			<g>
				<path class="st2" d="M184.04,243.29c0-0.01,0-0.01,0-0.02l0,0C184.04,243.28,184.04,243.28,184.04,243.29z"/>
			</g>
			<g>
				<path class="st2" d="M358.89,531.23c0.15,1.08,0.32,2.17,0.49,3.25C359.2,533.4,359.04,532.31,358.89,531.23z"/>
			</g>
			<g>
				<path class="st2" d="M364.79,558.28c0.17,0.3,0.33,0.61,0.51,0.91c0.46,0.77,0.98,1.45,1.55,2.03
					c-0.56-0.58-1.08-1.26-1.55-2.03C365.12,558.89,364.96,558.58,364.79,558.28z"/>
			</g>
			<g>
				<path class="st2" d="M360.25,539.3c0.22,1.06,0.46,2.12,0.72,3.17C360.71,541.42,360.47,540.36,360.25,539.3z"/>
			</g>
			<g>
				<path class="st2" d="M359.38,534.47c0.26,1.62,0.55,3.23,0.88,4.82C359.92,537.7,359.64,536.09,359.38,534.47z"/>
			</g>
			<g>
				<path class="st2" d="M358.26,537.56c-1.29-6.82-2.17-13.68-2.1-20.61C356.09,523.88,356.97,530.74,358.26,537.56z"/>
			</g>
			<g>
				<path class="st2" d="M370.39,563.07c-0.3-0.03-0.6-0.08-0.88-0.16C369.79,562.99,370.08,563.04,370.39,563.07z"/>
			</g>
			<g>
				<path class="st2" d="M369.5,562.91c-0.7-0.19-1.33-0.55-1.92-1.02C368.17,562.35,368.8,562.71,369.5,562.91z"/>
			</g>
			<g>
				<path class="st2" d="M358.23,526.34c0.21,1.63,0.43,3.27,0.66,4.89C358.66,529.6,358.44,527.97,358.23,526.34z"/>
			</g>
			<g>
				<path class="st2" d="M357.35,519.81c0.31,2.17,0.59,4.35,0.87,6.53C357.95,524.16,357.67,521.98,357.35,519.81z"/>
			</g>
			<g>
				<path class="st2" d="M357.35,519.81c-0.31-2.17-0.65-4.33-1.06-6.48c-0.07,1.19-0.11,2.38-0.13,3.57
					c0.01-1.19,0.06-2.38,0.13-3.57C356.7,515.48,357.04,517.64,357.35,519.81z"/>
			</g>
			<g>
				<path class="st2" d="M281.47,554.89c-0.01,1.3-0.25,2.48-0.7,3.51C281.22,557.37,281.46,556.19,281.47,554.89z"/>
			</g>
			<g>
				<path class="st2" d="M276.79,559.86c0.68-0.64,1.23-1.34,1.65-2.09C278.02,558.53,277.47,559.23,276.79,559.86z"/>
			</g>
			<g>
				<path class="st2" d="M272.63,562.99c2.2-0.04,4.05-0.56,5.48-1.49C276.68,562.43,274.83,562.95,272.63,562.99
					C272.63,562.99,272.63,562.99,272.63,562.99z"/>
			</g>
			<g>
				<path class="st2" d="M276.48,531.73c-0.21-1.97-0.38-3.95-0.54-5.93C276.09,527.78,276.27,529.75,276.48,531.73z"/>
			</g>
			<g>
				<path class="st2" d="M278.11,561.5c1.19-0.77,2.09-1.82,2.66-3.11C280.2,559.68,279.3,560.73,278.11,561.5z"/>
			</g>
			<g>
				<path class="st2" d="M278.07,543.52c-0.33-1.95-0.63-3.92-0.89-5.88C277.44,539.6,277.74,541.56,278.07,543.52z"/>
			</g>
			<g>
				<path class="st2" d="M247.22,563.24c-2.35,0.45-4.65,1.21-6.88,2.41c-0.19,0.1-0.41,0.21-0.63,0.33
					c0.22-0.12,0.44-0.23,0.63-0.33C242.57,564.45,244.87,563.68,247.22,563.24z"/>
			</g>
			<g>
				<path class="st2" d="M255.58,562.77c-1.21-0.06-2.42-0.08-3.62-0.04C253.17,562.69,254.37,562.71,255.58,562.77z"/>
			</g>
			<g>
				<path class="st2" d="M247.22,563.24c1.17-0.22,2.36-0.37,3.55-0.45C249.58,562.87,248.39,563.02,247.22,563.24z"/>
			</g>
			<g>
				<path class="st2" d="M255.58,562.77c0.81,0.04,1.62,0.1,2.43,0.17C257.2,562.87,256.39,562.81,255.58,562.77z"/>
			</g>
			<g>
				<path class="st2" d="M247.4,566.74c-0.23,0.05-0.46,0.1-0.69,0.15C246.94,566.84,247.17,566.79,247.4,566.74z"/>
			</g>
			<g>
				<path class="st2" d="M239.39,566.17c-0.2,0.14-0.39,0.29-0.52,0.48C239,566.47,239.19,566.31,239.39,566.17z"/>
			</g>
			<g>
				<path class="st2" d="M238.69,567.29c0.01,0.12,0.04,0.26,0.09,0.4c0.05,0.14,0.12,0.25,0.19,0.35c-0.08-0.1-0.14-0.21-0.19-0.35
					C238.72,567.55,238.69,567.42,238.69,567.29z"/>
			</g>
			<g>
				<path class="st2" d="M240.61,568.42c0.25-0.04,0.49-0.1,0.72-0.15c0.78-0.17,1.56-0.38,2.33-0.59
					c-0.78,0.21-1.55,0.41-2.33,0.59C241.1,568.33,240.86,568.38,240.61,568.42z"/>
			</g>
			<g>
				<path class="st2" d="M393.34,566.6c-0.13,0.04-0.26,0.08-0.39,0.11C393.08,566.68,393.22,566.64,393.34,566.6z"/>
			</g>
			<g>
				<path class="st2" d="M377.2,564.64c0.63-0.45,1.27-0.8,1.93-1.08C378.48,563.84,377.83,564.2,377.2,564.64
					c0.62,0.03,1.24,0.06,1.86,0.1C378.44,564.71,377.82,564.67,377.2,564.64z"/>
			</g>
			<g>
				<path class="st2" d="M391.78,566.79c0.21,0.06,0.46,0.05,0.7,0.01C392.24,566.83,391.99,566.85,391.78,566.79z"/>
			</g>
			<g>
				<path class="st2" d="M393.33,564.58c-0.07-0.03-0.14-0.05-0.21-0.08c-0.42-0.15-0.84-0.31-1.27-0.46
					c0.42,0.16,0.85,0.32,1.27,0.46C393.18,564.52,393.25,564.55,393.33,564.58z"/>
			</g>
			<g>
				<path class="st2" d="M381.06,564.9c-0.67-0.06-1.34-0.11-2.01-0.15C379.73,564.79,380.4,564.84,381.06,564.9z"/>
			</g>
			<g>
				<path class="st2" d="M393.82,566.36c-0.09,0.07-0.2,0.13-0.32,0.17C393.62,566.49,393.73,566.44,393.82,566.36z"/>
			</g>
			<g>
				<path class="st2" d="M394.24,565.5c0,0.09-0.01,0.18-0.03,0.28C394.23,565.68,394.24,565.58,394.24,565.5z"/>
			</g>
			<g>
				<path class="st2" d="M382.47,562.71c0.45-0.05,0.91-0.07,1.37-0.08C383.38,562.64,382.93,562.67,382.47,562.71z"/>
			</g>
			<g>
				<path class="st2" d="M283,507.6c-2.62-0.41-5.24-0.89-7.86-1.45C277.75,506.71,280.37,507.19,283,507.6z"/>
			</g>
			<g>
				<path class="st2" d="M267.3,504.25c1.3,0.35,2.61,0.69,3.92,1.01c-1.3-0.32-2.6-0.65-3.9-1
					C267.31,504.25,267.31,504.25,267.3,504.25z"/>
			</g>
			<g>
				<path class="st2" d="M399.19,498.47c0-0.01-0.01-0.02-0.01-0.03c0,0-0.04,0.03-0.04,0.03
					C399.16,498.47,399.18,498.47,399.19,498.47z"/>
			</g>
			<g>
				<path class="st2" d="M399.14,498.47L399.14,498.47c0,0,0.04-0.03,0.04-0.03c-0.07-0.05-0.14-0.11-0.21-0.16
					C399.03,498.34,399.09,498.41,399.14,498.47z"/>
			</g>
			<g>
				<path class="st0" d="M372.84,426.51c-0.08,0.03-0.16,0.06-0.23,0.09c-14.48,5.69-29.77,7.38-45.09,8.53
					C342.95,434.57,358.29,432.28,372.84,426.51z"/>
			</g>
			<g>
				<path class="st0" d="M292.01,481.92c-1.03-0.06-1.95,0.17-2.18,1.28c-0.21,1.02,0.59,1.44,1.44,1.69
					c1.1-0.03,1.77-0.66,2.01-1.64C293.49,482.31,292.86,481.97,292.01,481.92z"/>
			</g>
			<g>
				<path class="st0" d="M372.6,426.6c-14.48,5.69-29.78,7.32-45.09,8.53c0,0,0,0,0,0c0,0,0,0,0,0
					C342.83,433.98,358.12,432.29,372.6,426.6z"/>
			</g>
			<g>
				<path class="st0" d="M407.17,396.92c-11.12,16.91-49.95,28.04-79.68,29.65c-49.43,2.68-90.84,4.12-96.79,3.66
					c0,0-8.23,24.92,10.34,54.66c4.67,7.09,26.48,37.41,92.66,24.3c37.61-7.45,61-45.23,65.35-54.11
					C413.02,426.57,407.85,401.08,407.17,396.92z"/>
			</g>
			<g>
				<path class="st0" d="M327.51,435.13C327.51,435.13,327.51,435.13,327.51,435.13c-0.01,0-0.01,0-0.02,0
					C327.5,435.13,327.51,435.13,327.51,435.13z"/>
			</g>
			<g>
				<path class="st0" d="M245.12,487.22c-0.04-0.63-0.4-0.87-0.99-0.85C244.13,486.37,245.18,487.37,245.12,487.22z"/>
			</g>
			<g>
				<path class="st2" d="M246.91,460.4c-0.01,0.73,0.41,1.14,1.17,1.16c0,0,0,0,0,0C247.32,461.54,246.9,461.13,246.91,460.4z"/>
			</g>
			<g>
				<path class="st2" d="M351.2,449.55c-0.01,0.73,0.41,1.14,1.17,1.16c0,0,0,0,0,0C351.61,450.7,351.19,450.28,351.2,449.55z"/>
			</g>
			<g>
				<g>
					<path class="st5" d="M189.87,189.13c-0.94,1.72-1.92,3.65-1.46,5.56c0.51,2.09,2.55,3.39,4.51,4.27
						c11.17,4.97,25.3,2.26,33.83-6.5c1.17-1.2,2.27-2.56,2.63-4.19c0.66-2.97-1.26-5.84-3.08-8.28c-0.63-0.85-1.28-1.72-2.18-2.28
						c-0.94-0.6-2.07-0.8-3.17-1c-2.43-0.43-2.47-2.4-4.9-2.84c-2.46-0.44-7.32,0.66-9.82,0.78
						C197.07,175.11,193.77,182.01,189.87,189.13z"/>
				</g>
				<g>
					<path class="st2" d="M228.06,190.23c-16.61,10.39-24.62,11.1-38.11,3.99c-0.56-0.3-1.13,0.37-0.75,0.88
						c4.6,6.11,10.55,7.46,16.86,7.21c9.13-0.37,16.67-3.95,23.16-10.65C229.99,190.88,228.99,189.65,228.06,190.23z"/>
				</g>
				<g>
					<path class="st2" d="M195.61,183.01c11.38-6.97,17.68-8.02,26.47-4.16c1.18,0.52,2.18-1.05,1.18-1.87
						c-3.22-2.62-7-3.25-10.95-3.09c-6.96,0.28-12.76,2.88-17.78,7.75C193.79,182.37,194.73,183.55,195.61,183.01z"/>
				</g>
			</g>
		</g>
		<g>
			<path class="st2" d="M194.24,448.72c-0.92,4.92,0.21,9.96,1.26,14.85s2.05,9.99,0.87,14.85c-1.18,4.86-5.16,9.42-10.16,9.6
				c-0.91,0.03-1.87-0.1-2.62-0.62c-1.64-1.14-1.6-3.68-0.6-5.4c1-1.72,2.67-2.93,4.04-4.38c5.02-5.3,5.56-13.34,5.37-20.64
				c-0.19-7.3-0.71-15.07,2.9-21.42c1.55-2.72,3.77-5.01,6.2-6.98c4.67-3.79,32.89-12.73,21.05-1.3
				c-3.53,3.41-13.09,3.64-17.73,6.83C199.74,437.62,195.41,442.47,194.24,448.72z"/>
		</g>
		<g>
			<path class="st2" d="M453.38,385.81c4.76,2.9,8.1,7.59,11.36,12.1s6.75,9.13,11.65,11.78s11.44,2.54,15.51-1.27
				c4.93-4.61,2.3-11.5-2.59-12.44c-2.18-0.42-4.42,0.03-6.63,0.09c-8.13,0.21-15.18-0.04-21.09-5.62
				c-5.91-5.59-11.95-11.8-19.89-13.54c-3.41-0.75-6.95-0.6-10.4-0.06c-6.62,1.05-35.01,17.76-16.74,16.46
				c5.45-0.39,12.75-8.13,18.86-9.6C440.1,382.1,447.33,382.13,453.38,385.81z"/>
		</g>
		<g>
			<path class="st0" d="M471.11,398.92c3.35,1.14,6.94,1.56,10.45,1.22c1.7-0.16,3.44-0.49,5.1-0.09c1.66,0.4,3.24,1.83,3.12,3.53
				c-0.16,2.25-2.91,3.29-5.16,3.29c-5.23,0.01-10.38-2.87-13.11-7.33"/>
		</g>
		<g>
			<path class="st0" d="M193.06,475.11c-1.06,2.07-2.2,4.22-4.13,5.51c-0.82,0.55-1.77,0.92-2.51,1.57
				c-0.75,0.65-1.28,1.71-0.91,2.62c1.62,1.02,3.88,0.22,5.1-1.25c1.22-1.47,1.67-3.42,2.07-5.29c0.2-0.93,0.41-1.86,0.61-2.79"/>
		</g>
	</g>
	<g>
		<g>
			<path class="st6" d="M202.04,238.85c22.42,0.55,27.18,65.57-6.45,63.87C161.95,301.02,174.52,238.17,202.04,238.85z"/>
		</g>
		<g>
			<path class="st6" d="M239.41,232.4c22.76-6.18,51.64,58.09,16.99,71C221.75,316.31,215.63,238.85,239.41,232.4z"/>
		</g>
		<g>
			<path class="st7" d="M213.42,288.62c-2.04,4.84-9.43,13.25-22.68,10.7c-13.25-2.55-12.74-21.91-12.74-21.91
				s0.76,12.99,14.01,15.8C205.27,296.01,213.42,288.62,213.42,288.62z"/>
		</g>
		<g>
			<path class="st7" d="M269.48,267.48c2.29,11.72,0.25,29.56-14.78,33.38c-15.03,3.82-21.4-9.68-21.4-9.68s12.49,11.98,25.73,1.27
				C272.28,281.74,269.48,267.48,269.48,267.48z"/>
		</g>
		<g>
			<g>
				<path class="st8" d="M202.66,239.8c10.35,0.39,14.25,13.62,15.54,21.96c1.66,10.72,0.65,23.67-6.33,32.47
					c-6.71,8.46-20.94,10.67-29.03,2.73c-8.22-8.07-7.48-22.43-4.62-32.62C181.35,253.22,189.51,239.62,202.66,239.8
					c1,0.01-0.53-1.89-1.23-1.9c-12.57-0.17-20.72,11.61-24.37,22.34c-3.8,11.19-4.57,25.84,3.28,35.56
					c7.35,9.09,22.08,10.79,30.9,2.84c9.05-8.17,10.56-22.61,9.17-34.01c-1.24-10.14-6.45-26.25-18.98-26.73
					C200.43,237.87,201.95,239.78,202.66,239.8z"/>
				<path class="st2" d="M197.55,305.08c-0.64,0-1.29-0.03-1.95-0.08c-6.49-0.51-12.44-3.56-16.32-8.35
					c-8.33-10.3-7.27-25.79-3.51-36.85c7.38-21.72,21.42-23.28,25.62-23.26c0.03,0,0.05,0,0.07,0c0.02,0,0.04,0,0.05,0
					c12.48,0.5,18.7,15.35,20.24,27.92c2.64,21.56-5.84,31.79-9.61,35.18C208.22,303.19,203.1,305.08,197.55,305.08z M202.4,241.16
					c-12,0-19.81,12.66-22.87,23.56c-2.88,10.27-3.28,23.87,4.26,31.28c3.27,3.21,7.84,4.81,12.88,4.49c5.59-0.35,10.87-3,14.12-7.1
					c8.25-10.4,6.98-25.44,6.06-31.42c-0.95-6.13-4.23-20.41-14.23-20.81C202.55,241.16,202.48,241.16,202.4,241.16z"/>
			</g>
		</g>
		<g>
			<g>
				<path class="st8" d="M239.91,233.53c11.97-3.07,21.57,11.08,25.91,20.13c5.62,11.73,9.11,27.96,1.5,39.65
					c-6.39,9.82-21.18,14.34-30.28,5.65c-8.7-8.31-10.99-22.64-11.04-34.1c-0.03-6.75,0.81-13.78,3.37-20.07
					C231.34,239.96,234.62,235.04,239.91,233.53c1-0.28-0.2-2.5-1-2.27c-11.38,3.24-14.09,18.74-14.56,28.75
					c-0.6,12.85,1.71,27.73,10,38.02c3.43,4.26,8.15,7.45,13.7,7.9c6.54,0.52,13.52-2.58,18.04-7.2
					c10.5-10.74,7.96-28.39,2.94-41.07c-2.96-7.47-7.28-14.71-13.18-20.24c-4.48-4.19-10.61-7.79-16.94-6.16
					C237.92,231.52,239.1,233.74,239.91,233.53z"/>
				<path class="st2" d="M249.46,307.34c-0.51,0-1.01-0.02-1.5-0.06c-5.44-0.43-10.64-3.41-14.65-8.4
					c-9.97-12.38-10.73-29.71-10.3-38.94c0.45-9.67,3.06-26.4,15.5-29.98c0.02-0.01,0.04-0.01,0.06-0.02
					c0.02-0.01,0.04-0.01,0.06-0.02c7.31-1.85,13.91,2.51,18.17,6.5c5.51,5.17,10.19,12.33,13.51,20.73
					c2.59,6.54,10.03,28.95-3.23,42.52C262.42,304.43,255.66,307.34,249.46,307.34z M240.27,234.84c-5.04,1.44-8.02,6.48-9.63,10.46
					c-2.2,5.42-3.3,12-3.27,19.56c0.04,8.61,1.46,24.37,10.62,33.12c4.33,4.14,9.39,4.53,12.87,4.12
					c6.09-0.71,11.96-4.36,15.33-9.53c8.97-13.77,1.05-32.81-1.59-38.32C262.77,250.44,253.01,231.59,240.27,234.84z"/>
			</g>
		</g>
		<g>
			<g>
				<path class="st8" d="M277.6,284.69c1.14,5.22,5.57,9.5,11.08,9.4c5.98-0.1,11.38-5.54,14.71-10.05c0.59-0.79-1.76-1.7-2.25-1.04
					c-2.66,3.6-6.3,7.31-10.51,8.99c-5.28,2.1-9.49-1.93-10.58-6.92C279.87,284.25,277.4,283.79,277.6,284.69L277.6,284.69z"/>
				<path class="st2" d="M288.5,294.55c-5.35,0-10.11-4.08-11.34-9.76c-0.06-0.29,0.02-0.57,0.23-0.76
					c0.42-0.38,1.22-0.31,1.82-0.12c0.71,0.23,1.18,0.62,1.28,1.08c0.62,2.87,2.27,5.26,4.41,6.4c1.69,0.9,3.61,0.97,5.56,0.19
					c4.43-1.77,8.05-5.78,10.32-8.84c0.53-0.71,1.9-0.4,2.62,0.13c0.68,0.51,0.62,1.09,0.37,1.44c-2.79,3.77-8.46,10.12-15.07,10.23
					C288.62,294.55,288.56,294.55,288.5,294.55z M278.06,284.67c1.19,5.29,5.64,9.08,10.61,8.97c6.22-0.11,11.67-6.23,14.36-9.86
					c-0.01-0.06-0.26-0.31-0.76-0.46c-0.46-0.14-0.73-0.07-0.77-0.04c-2.33,3.15-6.08,7.29-10.71,9.14
					c-2.2,0.88-4.38,0.79-6.31-0.23c-2.37-1.26-4.19-3.88-4.87-7.01c-0.01-0.05-0.15-0.21-0.49-0.35
					C278.68,284.65,278.24,284.63,278.06,284.67z"/>
			</g>
		</g>
		<g>
			<g>
				<path class="st8" d="M168.29,294.12c-0.04,4.63-3.83,9.64-9.32,8.72c-4.87-0.81-9.52-4.22-12.97-7.64
					c-0.69-0.69-3.48,0.41-2.75,1.13c4.44,4.4,11.07,8.93,17.6,8.16c5.77-0.69,10.34-5.25,10.39-11.15
					C171.25,292.5,168.3,293.02,168.29,294.12L168.29,294.12z"/>
				<path class="st2" d="M159.37,305.02c-7.17,0-13.8-5.76-16.44-8.37c-0.28-0.27-0.42-0.77,0.06-1.26
					c0.63-0.63,2.56-1.26,3.32-0.51c2.44,2.42,7.34,6.61,12.73,7.51c2.63,0.44,4.53-0.6,5.66-1.54c1.91-1.6,3.11-4.18,3.14-6.74l0,0
					c0-0.32,0.15-0.79,0.85-1.18c0.75-0.42,2-0.64,2.62-0.27c0.25,0.15,0.4,0.4,0.4,0.67c-0.06,5.98-4.6,10.86-10.79,11.6
					C160.39,304.99,159.88,305.02,159.37,305.02z M143.61,296.04c2.77,2.74,9.86,8.86,17.18,7.98c5.71-0.68,9.89-5.14,9.99-10.62
					c-0.24-0.08-0.99-0.04-1.59,0.27c-0.28,0.14-0.46,0.31-0.46,0.44l0,0c-0.03,2.81-1.35,5.65-3.46,7.42
					c-1.83,1.53-4.03,2.14-6.39,1.74c-5.35-0.9-10.14-4.72-13.21-7.76c-0.07-0.07-0.37-0.14-0.87-0.03
					C144.2,295.61,143.75,295.89,143.61,296.04z"/>
			</g>
		</g>
		<g>
			<g>
				<path class="st8" d="M159.49,303.9c1.99,4.75,5.56,9.1,9.11,12.74c9.14,9.38,21.16,15.36,33.79,18.48
					c27.89,6.89,65.67,3.29,81.65-23.93c2.96-5.03,5.52-10.94,6.12-16.82c0.16-1.6-4.86-2.42-5-0.97
					c-1.49,14.65-12.55,28.01-25.17,34.68c-15.15,8.01-34,9.04-50.64,6.25c-12.65-2.12-24.89-7.26-34.34-16.1
					c-4.15-3.89-8.35-8.64-10.59-13.97C163.82,302.82,158.9,302.51,159.49,303.9L159.49,303.9z"/>
				<path class="st2" d="M227.34,339.08c-8.33,0-16.88-1.03-25.17-3.08c-13.76-3.4-25.59-9.88-34.22-18.73
					c-4.53-4.65-7.58-8.91-9.3-13.02l0,0c-0.27-0.65-0.11-1.48,0.87-1.89c1.35-0.57,5.01-0.18,5.74,1.56
					c1.83,4.38,5.23,8.85,10.37,13.66c8.68,8.12,20.39,13.61,33.87,15.87c10.89,1.83,31.87,3.46,50.07-6.16
					c13.43-7.09,23.35-20.75,24.69-33.97c0.09-0.89,0.96-1.76,3.14-1.54c1.88,0.19,3.82,1.11,3.66,2.69
					c-0.53,5.27-2.63,11.05-6.24,17.19c-7.41,12.61-20.18,21.32-36.94,25.18C241.38,338.33,234.44,339.08,227.34,339.08z
					 M160.49,303.95c1.66,3.78,4.53,7.73,8.75,12.06c8.4,8.61,19.93,14.92,33.36,18.23c15.08,3.73,31.01,4.02,44.87,0.83
					c16.26-3.75,28.64-12.16,35.79-24.33c3.47-5.91,5.49-11.44,6-16.45c-0.04-0.04-0.44-0.36-1.28-0.57
					c-0.91-0.23-1.66-0.17-1.94-0.07c-1.46,13.75-11.74,27.9-25.63,35.24c-18.67,9.87-40.1,8.21-51.22,6.34
					c-13.83-2.32-25.87-7.97-34.81-16.33c-5.33-4.99-8.87-9.66-10.8-14.28c-0.05-0.09-0.37-0.33-1.06-0.51
					C161.7,303.88,160.92,303.88,160.49,303.95z M160.32,303.55C160.32,303.55,160.32,303.55,160.32,303.55
					C160.32,303.55,160.32,303.55,160.32,303.55L160.32,303.55z"/>
			</g>
		</g>
		<g>
			<path class="st8" d="M164.27,236.88c2.03-4.19,4.59-8.07,7.5-11.79c2.94-3.69,6.31-7.16,10.5-9.98c2.09-1.4,4.3-2.85,6.88-3.88
				c1.29-0.51,2.67-0.88,4.1-1.03c1.44-0.15,2.93-0.08,4.37,0.2c1.45,0.29,2.86,0.77,4.15,1.44c1.29,0.67,2.46,1.5,3.46,2.46
				c2.01,1.92,3.39,4.26,3.96,6.89c0.07,0.3-0.13,0.6-0.43,0.67c-0.09,0.02-0.18,0.02-0.26,0l-0.02,0c-2.55-0.66-4.65-1.3-6.6-1.58
				c-0.97-0.15-1.87-0.25-2.74-0.28c-0.87-0.02-1.69,0-2.49,0.06c-1.6,0.13-3.17,0.26-4.97,0.44c-1.79,0.17-3.76,0.56-5.62,1.39
				c-1.86,0.81-3.7,1.83-5.52,2.96c-1.82,1.12-3.62,2.38-5.37,3.71c-3.52,2.66-6.89,5.69-10.1,8.89l-0.01,0.01
				c-0.19,0.19-0.5,0.19-0.69,0C164.21,237.29,164.18,237.06,164.27,236.88z"/>
		</g>
		<g>
			<path class="st8" d="M226.44,218.21c0.09-0.77,0.24-1.5,0.47-2.2c0.22-0.71,0.49-1.39,0.8-2.06c0.63-1.33,1.43-2.59,2.37-3.76
				c1.91-2.3,4.39-4.3,7.32-5.57c0.74-0.28,1.48-0.62,2.26-0.8c0.78-0.21,1.56-0.41,2.37-0.48c0.4-0.06,0.8-0.09,1.2-0.13
				c0.4-0.03,0.8-0.01,1.21-0.01c0.4,0,0.8,0.02,1.2,0.04l1.18,0.16c3.15,0.47,6.03,1.62,8.69,2.84c2.66,1.25,5.02,2.85,7.23,4.55
				c0.54,0.44,1.05,0.91,1.57,1.36c0.51,0.46,1.05,0.89,1.52,1.39l1.44,1.45c0.24,0.24,0.48,0.48,0.71,0.73l0.67,0.76
				c3.57,4.04,6.6,8.38,9.19,12.94c0.13,0.23,0.05,0.53-0.18,0.67c-0.19,0.11-0.43,0.07-0.58-0.07l0,0
				c-3.77-3.58-7.59-7.03-11.67-9.93l-0.75-0.56c-0.25-0.18-0.52-0.34-0.78-0.51l-1.55-1.01c-0.51-0.35-1.05-0.64-1.57-0.94
				c-0.53-0.3-1.05-0.61-1.58-0.9l-1.6-0.79c-0.27-0.13-0.53-0.27-0.8-0.39l-0.81-0.33c-0.54-0.21-1.07-0.47-1.61-0.64l-1.62-0.52
				c-2.17-0.61-4.37-0.7-6.38-0.49c-2.02,0.21-3.86,0.49-5.84,0.83c-1.97,0.35-4.03,0.98-6.22,1.8c-2.19,0.85-4.48,1.91-7.03,3.14
				l-0.05,0.02c-0.27,0.13-0.59,0.02-0.72-0.25C226.44,218.41,226.42,218.3,226.44,218.21z"/>
		</g>
		<g>
			<path class="st8" d="M209.13,269.97c-0.57-0.12-1.16-0.03-1.74,0.22c0.81,0.58,1.15,2.25,0.76,4.08c-0.45,2.13-1.7,3.67-2.8,3.44
				c-1.08-0.23-1.6-2.06-1.21-4.12c-0.71,1.28-1.29,2.82-1.65,4.53c-1.06,5.05,0.2,9.59,2.81,10.14c2.61,0.55,5.59-3.1,6.65-8.15
				C213,275.05,211.75,270.52,209.13,269.97z"/>
		</g>
		<g>
			<path class="st8" d="M239.57,269.18c-0.58,0.08-1.1,0.36-1.56,0.8c0.95,0.27,1.84,1.73,2.09,3.59c0.3,2.16-0.36,4.03-1.48,4.18
				c-1.09,0.15-2.2-1.39-2.53-3.47c-0.24,1.44-0.26,3.09-0.02,4.82c0.71,5.11,3.42,8.96,6.06,8.59c2.64-0.37,4.21-4.8,3.51-9.92
				C244.93,272.66,242.21,268.81,239.57,269.18z"/>
		</g>
	</g>
</g>
<g>
	<path d="M68.6,92.08c-0.63,0.63-4.7,1.01-5.66,0.87c-0.49-0.1-0.49-5.08-0.38-11.7l-9.13,1.28c0.23,6,0.27,10.5,0.1,10.75
		c-0.56,0.81-5.12,2.11-6.21,2.1c-1.08-0.07-5.1-29.85-7-41.71c-0.43-2.68,10.42-3.2,11.16-2.76c0.43,0.28,1.15,12.74,1.7,24.06
		l9.48-1.36c0.13-7.21,0.25-14.79,0.14-19.47c-0.06-2.52,8.09-0.45,8.72,0.12C72.21,54.78,69.23,91.39,68.6,92.08z"/>
	<path d="M83.55,67.03c-0.06,1.14-0.81,24.25-1.01,25.22c-0.19,0.97-6,1.37-6.17,0.3c-0.23-1.01-1.18-23.31-1.24-25.65
		C75.13,65.58,83.55,65.83,83.55,67.03z M79.16,64.48c-2.1,0.1-3.67-2.65-3.81-5.46c-0.14-2.82,2.09-5.21,4.19-5.31
		c2.1-0.1,3.12,2.37,3.25,5.25C82.94,61.78,81.26,64.38,79.16,64.48z"/>
	<path d="M87.51,100.54c1.15-3.6,2.46-10.09,2.91-14.5l5.84-0.88c-1.13,5.16-3.45,11.94-4.99,14.84L87.51,100.54z"/>
	<path d="M120.87,52.5c0.69,0.51,1.2,37.24,0.69,37.93c-0.62,0.87-5.91,3.35-7.18,1.79c-1.46-1.73-0.86-27.89-2.18-39
		C111.9,50.77,120.13,52.05,120.87,52.5z"/>
	<path d="M134.32,49.75c-1.14,5.1-3.4,11.64-4.95,14.47l-3.34,0.58c1.15-3.6,2.41-9.91,2.86-14.25L134.32,49.75z"/>
	<path d="M178.06,86.2c0.08,1.56-5.86,1.72-6.09,0.77c-0.93-4.4-0.93-17.98-3.87-18.01c-4.51-0.08-4.7,15.96-4.71,17.05
		c0.02,0.36,0.03,0.66,0.04,0.9c0.08,1.56-5.86,1.72-6.09,0.77c-0.93-4.4-0.99-17.97-3.93-18.01c-3.91-0.11-5.71,13.55-6.17,17.84
		c0.05,1.14,0.05,2.22,0.03,3.18c0.08,1.62-6.48,1.39-6.59,0.32c-0.57-9.4-2.61-25.58-3.03-32.95c-0.07-1.38,9.43-3.76,9.5-2.32
		c0.12,2.58,0.17,6.06,0.23,9.78c2.14-4.25,5.08-8.05,8.67-8.23c3.54-0.17,5.39,3.34,6.33,8.04c2.01-3.16,4.65-5.81,7.88-5.97
		C179.51,58.92,177.74,80.81,178.06,86.2z"/>
	<path d="M222.5,84.66c-0.63,0.63-4.7,1.01-5.66,0.87c-0.49-0.1-0.49-5.08-0.38-11.7l-9.13,1.28c0.23,6,0.27,10.5,0.1,10.75
		c-0.56,0.81-5.12,2.11-6.21,2.1c-1.08-0.07-5.1-29.85-7-41.71c-0.43-2.68,10.42-3.2,11.16-2.76c0.43,0.28,1.15,12.74,1.7,24.06
		l9.48-1.36c0.13-7.21,0.25-14.79,0.14-19.47c-0.06-2.52,8.09-0.45,8.72,0.12C226.1,47.37,223.12,83.97,222.5,84.66z"/>
	<path d="M248.43,84.43c-0.1,1.69-5.97,1.91-6.1,0.47c-0.06-1.2-0.07-2.64-0.03-4.38c-1.54,3.02-3.99,5.78-6.95,5.38
		c-4.54-0.62-5.91-5.36-5.02-11.83c0.89-6.53,5.36-9.75,8.75-9.25c1.15,0.12,2.01,0.62,2.71,1.31c-0.69-4.35-3.08-5.44-9.83-2.05
		c-1.76,0.93-2.98-5.8-1.29-6.85c2.1-1.24,3.66-2.52,8.86-3.01s8.97,2.93,9.23,7.12C249.03,65.54,248.75,78.41,248.43,84.43z
		 M239.01,69.69c-2.83-0.22-4.3,9.28-1.52,9.62C239.55,79.58,242.03,69.91,239.01,69.69z"/>
	<path d="M260.51,45.77c0.69,0.51,1.2,37.24,0.69,37.93c-0.62,0.87-5.91,3.35-7.18,1.79c-1.46-1.73-0.86-27.89-2.18-39
		C251.53,44.04,259.77,45.32,260.51,45.77z"/>
	<path d="M284.23,54.36c-5.02-2.04-7.35,2.04-8.27,7.97c1.67-0.2,2.99-0.38,3.46-0.41c1.02-0.05,1.83,5.68,0.77,5.91
		c-0.54,0.09-2.45,0.3-4.72,0.47c-0.1,6.55,0.78,13.66,1.51,17.53c0.31,1.49-5.42,0.92-5.97-0.49c-1.28-2.88-2.44-9.49-2.66-16.57
		c-1.44,0.13-2.46,0.12-2.7,0.13c-0.61-0.15-0.94-4.52-0.17-4.74c0.47-0.14,1.61-0.32,2.92-0.56c0.62-12.16,4.88-23.42,17.59-17.61
		C287.09,46.47,285.27,54.79,284.23,54.36z"/>
	<path d="M304.9,64.47l0.19,3.9l-14.8,0.71l-0.19-3.9L304.9,64.47z"/>
	<path d="M316.54,43.07c0.69,0.51,1.2,37.24,0.69,37.93c-0.62,0.87-5.91,3.35-7.18,1.79c-1.46-1.73-0.86-27.89-2.18-39
		C307.57,41.34,315.8,42.62,316.54,43.07z"/>
	<path d="M344.46,77.7c0.07,1.5-5.87,1.66-6.09,0.71c-0.93-4.4-0.93-17.98-3.87-18.01c-2.52-0.06-4.12,5.42-5.14,10.58
		c-0.11,4.03-0.11,7.75-0.1,10.4c0.08,1.68-6.48,1.39-6.59,0.32c-0.57-9.34-1.47-25.52-1.88-32.89c-0.12-1.32,9.79-2.51,9.68-1.07
		c-0.16,1.63-0.25,3.5-0.39,5.61c1.96-2.92,4.25-5.19,7.01-5.32C346.37,47.58,344.14,72.25,344.46,77.7z"/>
	<path d="M367.04,60.04c-13.4-0.13-11.45,16.71-0.1,12.92c1.13-0.35,1.69,3.82,0.83,4.65c-7.42,6.73-20.3-0.04-20.09-10.62
		c0.18-8.84,6.09-15.73,16.98-16.68C367.04,50.07,368.06,60.05,367.04,60.04z"/>
	<path d="M391.23,77.13c0.27,1.91-7.44,2.58-7.54,0.66c-0.11-3.54,0.89-15.12-2.1-14.86c-2.27,0.17-3.09,8.2-3.27,11.93
		c0.01,1.44,0.02,2.82,0.07,3.9c0.01,1.56-6.43,1.21-6.5-0.35c-0.28-6.95-1.8-31.15-2.62-38.08c-0.28-2.15,8.54-2.27,8.58-0.11
		c0.06,4.86,0.18,12.54,0.24,19.99c1.19-2.82,3.12-6.4,5.45-6.57c3.29-0.22,4.67,3.5,5.48,6.58
		C389.84,63.26,390.69,73.43,391.23,77.13z"/>
	<path d="M428.02,61.72c0.36,6.11,0.85,12.63,1.62,17.4c0.33,1.79-10.1,1.09-10.55-0.81c-0.16-0.83,0.87-34.34,1.06-35.31
		c0.45-3.08,7.82-0.98,7.51,1.32c-0.09,0.61-0.11,5.17,0.11,11.11c4.28-2.13,8.09-6.58,6.55-12.45c-1.98-7.35-18.46-9.2-22.92,5.55
		c-0.72,2.44-9.09-4.25-7.88-6.47c1.82-3.33,9.07-12.51,19.64-12.54c8.34-0.1,13.36,4.34,15.88,9.27
		C442.17,44.82,442.08,56.66,428.02,61.72z"/>
	<path d="M462.9,62.44l-9.35,2.97c1.23,3.12,3.79,5.16,7.98,3.46c0.94-0.41,2.31,3.13,1.5,3.77c-8.28,6.41-17.5,2.1-18.55-5.95
		c-1.92-14.86,13.02-26.4,18.42-14.16C464.79,56.89,462.9,62.44,462.9,62.44z M456.76,53.37c-2.57,0.36-3.96,3.85-3.97,7.46
		l5.56-1.77C458.35,59.06,459.5,53,456.76,53.37z"/>
	<path d="M484.54,41.64c-0.66-0.03-4.02,0.07-7.98,0.2c-1.62,9.93-2.38,22.82,3.6,28.6c1.2,1.2-3.44,4.73-4.3,4.23
		c-7.71-4.25-9.1-20.52-8.9-32.55c-2.7,0.01-4.68,0.05-4.93-0.06c-0.55-0.21-0.19-6.36,0.65-6.4c0.48-0.08,2.21-0.23,4.55-0.4
		c0.25-3.56,0.55-6.03,0.64-6.58c0.25-1.15,11.65-1.28,11.48,0.17c0.02,0.36-0.6,2.43-1.29,5.53c4.01-0.25,7.42-0.48,8.03-0.39
		C487.06,34.13,485.62,41.59,484.54,41.64z"/>
	<path d="M501.37,60.59l-9.35,2.97c1.23,3.12,3.79,5.16,7.98,3.46c0.94-0.41,2.31,3.13,1.5,3.77c-8.28,6.41-17.5,2.1-18.55-5.95
		c-1.92-14.86,13.02-26.4,18.42-14.16C503.27,55.03,501.37,60.59,501.37,60.59z M495.23,51.52c-2.57,0.36-3.96,3.85-3.97,7.46
		l5.56-1.77C496.83,57.21,497.98,51.14,495.23,51.52z"/>
	<path d="M526.44,42.32c-5.63,0.27-11.49,8.42-12.5,17.24c0.04,4.62,0.07,8.95,0.18,12.37c0.08,1.62-6.66,1.34-6.74-0.33
		c-0.41-7.31-1.79-25.92-2.74-33.15c-0.29-2.21,8.95-2.41,9-0.19c0.02,1.74,0.05,3.6,0.09,5.58c1.86-3.87,5.49-9.46,11.25-9.73
		C526.58,33.97,527.64,42.26,526.44,42.32z"/>
	<path d="M533.66,59.99l-2.23-28.73l5.75-0.28l0.55,28.81L533.66,59.99z M532.58,68.64c-0.1-2.16,1.32-3.79,3.36-3.89
		c2.16-0.1,3.61,1.39,3.71,3.55c0.1,2.1-1.2,3.78-3.36,3.89C534.19,72.28,532.68,70.73,532.58,68.64z"/>
</g>
<g>
	<path d="M227.41,102.45c-2.36,8.42-5.51,22.82-6.85,31c-0.33,1.94-7.49,2.19-8.19,0.39c-1.22-2.99-2.61-6.49-4.01-10.17
		c-0.83,4.26-1.71,8.34-2.67,11.71c-0.57,1.86-7.72,2.25-8.19,0.39c-2.12-8.01-7.18-23.48-10.34-31.67c-0.7-1.89,8.1-6.11,8.43-4.06
		c1.15,7.26,5.89,26.92,5.89,26.92s3.6-9.88,2.19-16.8c-0.22-0.69-0.44-1.39-0.66-2.08c-0.1-0.18-0.06-0.37,0.02-0.52
		c0.7-2.05,7.93-4.7,8.17-2.69c0.75,5.73,4.49,20.18,4.49,20.18s3.19-16.47,3.68-23.86C219.47,99.18,227.93,100.51,227.41,102.45z"
		/>
	<path d="M242.78,132.29c-0.08,1.32-4.66,1.49-4.77,0.37c-0.04-0.94-0.05-2.06-0.02-3.42c-1.2,2.36-3.11,4.51-5.43,4.2
		c-3.54-0.49-4.61-4.19-3.92-9.24c0.69-5.1,4.18-7.61,6.83-7.22c0.9,0.1,1.57,0.49,2.11,1.02c-0.54-3.4-2.41-4.25-7.67-1.6
		c-1.37,0.72-2.33-4.53-1.01-5.34c1.64-0.97,2.86-1.97,6.92-2.35c4.06-0.38,7,2.29,7.21,5.56
		C243.24,117.54,243.02,127.59,242.78,132.29z M235.42,120.78c-2.21-0.17-3.35,7.24-1.19,7.51
		C235.84,128.5,237.78,120.95,235.42,120.78z"/>
	<path d="M263.57,129.65c0.06,1.17-4.58,1.3-4.76,0.56c-0.73-3.44-0.72-14.03-3.02-14.06c-1.97-0.05-3.22,4.23-4.01,8.26
		c-0.08,3.15-0.08,6.05-0.08,8.12c0.06,1.31-5.06,1.09-5.15,0.25c-0.45-7.29-1.15-19.92-1.47-25.68c-0.1-1.03,7.64-1.96,7.56-0.83
		c-0.13,1.27-0.2,2.73-0.3,4.38c1.53-2.28,3.32-4.05,5.47-4.16C265.06,106.13,263.32,125.39,263.57,129.65z"/>
	<path d="M283.97,128.66c0.06,1.17-4.58,1.3-4.76,0.56c-0.73-3.44-0.72-14.03-3.02-14.06c-1.97-0.05-3.22,4.23-4.01,8.26
		c-0.08,3.15-0.08,6.05-0.08,8.12c0.06,1.31-5.06,1.09-5.15,0.25c-0.45-7.29-1.15-19.92-1.47-25.68c-0.1-1.03,7.64-1.96,7.56-0.83
		c-0.13,1.27-0.2,2.73-0.3,4.38c1.53-2.28,3.32-4.05,5.47-4.16C285.46,105.14,283.72,124.41,283.97,128.66z"/>
	<path d="M301.41,129.46c-0.08,1.32-4.67,1.49-4.77,0.37c-0.04-0.94-0.05-2.06-0.02-3.42c-1.2,2.36-3.11,4.51-5.42,4.2
		c-3.54-0.49-4.61-4.19-3.92-9.24c0.69-5.1,4.18-7.61,6.83-7.22c0.9,0.1,1.57,0.49,2.11,1.02c-0.54-3.4-2.41-4.25-7.67-1.6
		c-1.37,0.72-2.33-4.53-1.01-5.34c1.64-0.97,2.86-1.97,6.92-2.35s7,2.29,7.21,5.56C301.87,114.72,301.65,124.76,301.41,129.46z
		 M294.05,117.95c-2.21-0.17-3.36,7.24-1.19,7.51C294.47,125.67,296.41,118.12,294.05,117.95z"/>
	<path d="M336.98,100.74c-0.27,0.15-5.01,1.18-9.98,2.22c-0.02,2.44-0.06,5.54-0.1,8.73c2.67-0.17,6.37-0.21,6.8-0.05
		c0.67,0.3,0.31,4.44,0.24,4.96c-0.08,0.29-4.14,0.76-7.12,1.05c-0.01,5.58-0.01,10.41,0.07,11.25c0.08,0.7-3.56,4.06-4.55,2.89
		c-0.35-0.45-2.42-18.17-3.19-27.19c-2.32,0.49-3.9,0.8-3.9,0.8c-0.91-0.38-1.69-4.89-1.3-5.61c0.34-0.72,22.72-6.35,23.51-5.64
		C338.25,94.86,337.62,100.42,336.98,100.74z"/>
	<path d="M358.99,126.36c0.05,1.08-7.64,2.01-7.55,0.88c0.09-1.04,0.13-2.16,0.17-3.24c-1.52,2.42-3.45,4.29-5.74,4.4
		c-7.21,0.35-6.65-18.35-6.62-22.57c-0.03-1.55,6.75-3.05,6.77-1.59c0.11,4.17-0.62,17.29,1.68,17.27c3.61,0.01,4.02-10,3.93-14.78
		c0.03-0.33,0.01-0.7,0-1.03c-0.01-1.27,5.11-1.09,5.15-0.25C357.26,112.8,358.67,120.61,358.99,126.36z"/>
	<path d="M376.27,111.27c-10.46-0.11-8.94,13.05-0.08,10.09c0.88-0.28,1.32,2.98,0.64,3.63c-5.8,5.25-15.85-0.03-15.69-8.3
		c0.14-6.9,4.76-12.28,13.26-13.02C376.27,103.49,377.07,111.28,376.27,111.27z"/>
	<path d="M391.89,125.9c-1.37-1.25-3.78-4.41-5.99-7.45c0.02,3.42,0.03,6.42,0.03,8.49c0.01,1.27-5.16,0.95-5.17-0.31
		c-0.18-5.62-1.21-25.17-1.81-30.73c-0.23-1.77,6.9-1.79,6.89-0.05c0.02,3.24,0.06,8.02,0.06,12.94c1.82-2.06,3.87-4.36,5.09-5.4
		c0.58-0.54,3.77,4.18,3.04,4.78c-1.31,1-3.66,2.85-5.83,4.55c2.69,2.36,6.12,5.43,8.33,7.52
		C397.43,121.04,392.83,126.79,391.89,125.9z"/>
	<path d="M404.09,116.31l-0.15-1.21c-0.4-2.51,0.31-5.31,2.51-8.24c1.98-2.58,3.07-4.46,2.97-6.57c-0.11-2.39-1.69-3.9-4.64-3.81
		c-1.68,0.08-3.53,0.73-4.66,1.68l-1.27-2.89c1.49-1.2,4.12-2.07,6.6-2.19c5.38-0.26,7.97,2.94,8.15,6.5
		c0.15,3.18-1.51,5.56-3.63,8.34c-1.94,2.53-2.59,4.63-2.34,7.01l0.11,1.21L404.09,116.31z M403.38,122.91
		c-0.08-1.73,1.03-3,2.67-3.08c1.64-0.08,2.82,1.08,2.9,2.81c0.08,1.64-0.94,2.95-2.67,3.04
		C404.64,125.76,403.46,124.55,403.38,122.91z"/>
</g>
</svg>
